{
.appVersion = "3109";
.formatVersion = 3;
DisplayStrings = (
"/uni0723.medi"
);
axes = (
{
name = Weight;
tag = wght;
},
{
name = Width;
tag = wdth;
}
);
customParameters = (
{
name = panose;
value = (
2,
11,
5,
2,
4,
5,
4,
2,
2,
4
);
},
{
name = unicodeRanges;
value = (
0,
1,
6,
13,
31,
38,
45,
46,
71
);
},
{
name = codePageRanges;
value = (
1252
);
},
{
name = fsType;
value = (
);
},
{
name = blueScale;
value = 0.05;
},
{
name = glyphOrder;
value = (
.notdef,
NULL,
CR,
space,
nbspace,
uni200C,
uni200D,
uni200E,
uni200F,
uni0710,
uni0710.fin3,
uni0710.fin2,
uni0710.fina,
uni0710.med2,
uni0711,
uni0712,
uni0712.fina,
uni0712.medi,
uni0712.init,
uni0713,
uni0713.fina,
uni0713.medi,
uni0713.init,
uni0714,
uni0714.fina,
uni0714.medi,
uni0714.init,
uni0715,
uni0715.fina,
uni0716,
uni0716.fina,
uni0717,
uni0717.fina,
uni0718,
uni0718.fina,
uni0719,
uni0719.fina,
uni071A,
uni071A.fina,
uni071A.medi,
uni071A.init,
uni071B,
uni071B.fina,
uni071B.medi,
uni071B.init,
uni071C,
uni071C.fina,
uni071C.medi,
uni071C.init,
uni071D,
uni071D.fina,
uni071D.medi,
uni071D.init,
uni071E,
uni071F,
uni071F.fina,
uni071F.medi,
uni071F.init,
uni0720,
uni0720.fina,
uni0720.medi,
uni0720.init,
uni0721,
uni0721.fina,
uni0721.medi,
uni0721.init,
uni0722,
uni0722.fina,
uni0722.medi,
uni0722.init,
uni0723,
uni0723.fina,
uni0723.medi,
uni0723.init,
uni0724,
uni0724.fina,
uni0724.medi,
uni0724.init,
uni0725,
uni0725.fina,
uni0725.medi,
uni0725.init,
uni0726,
uni0726.fina,
uni0726.medi,
uni0726.init,
uni0727,
uni0727.fina,
uni0727.medi,
uni0727.init,
uni0728,
uni0728.fina,
uni0729,
uni0729.fina,
uni0729.medi,
uni0729.init,
uni072A,
uni072A.fina,
uni072B,
uni072B.fina,
uni072B.medi,
uni072B.init,
uni072C,
uni072C.fina,
uni072D,
uni072D.fina,
uni072D.medi,
uni072D.init,
uni072E,
uni072E.fina,
uni072E.medi,
uni072E.init,
uni072F,
uni072F.fina,
uni074D,
uni074D.fina,
uni074E,
uni074E.fina,
uni074E.medi,
uni074E.init,
uni074F,
uni074F.fina,
uni074F.medi,
uni074F.init,
uni0621,
uni0640,
uni0700,

glyphs = (
{
glyphname = .notdef;
lastChange = "2023-01-02 09:26:46 +0000";
layers = (
{
layerId = m01;
shapes = (
{
closed = 1;
nodes = (
(94,714,l),
(94,0,l),
(505,0,l),
(505,714,l)
);
},
{
closed = 1;
nodes = (
(454,51,l),
(145,51,l),
(145,663,l),
(454,663,l)
);
}
);
width = 600;
},
{
layerId = "1C3A187F-9439-4340-B0A6-CD0525AA1AFE";
shapes = (
{
closed = 1;
nodes = (
(94,714,l),
(94,0,l),
(505,0,l),
(505,714,l)
);
},
{
closed = 1;
nodes = (
(454,51,l),
(145,51,l),
(145,663,l),
(454,663,l)
);
}
);
width = 600;
},
{
layerId = "DA9A8D32-36F4-433E-897C-B49E872243BC";
shapes = (
{
closed = 1;
nodes = (
(94,714,l),
(94,0,l),
(505,0,l),
(505,714,l)
);
},
{
closed = 1;
nodes = (
(454,51,l),
(145,51,l),
(145,663,l),
(454,663,l)
);
}
);
width = 600;
}
);
note = ".notdef";
},
{
glyphname = uni200E;
lastChange = "2023-01-02 09:26:46 +0000";
layers = (
{
layerId = m01;
shapes = (
{
closed = 1;
nodes = (
(-18,0,l),
(17,0,l),
(17,603,l),
(147,603,l),
(80,539,l),
(104,515,l),
(210,620,l),
(104,725,l),
(80,701,l),
(147,637,l),
(-18,637,l)
);
}
);
width = 0;
},
{
layerId = "1C3A187F-9439-4340-B0A6-CD0525AA1AFE";
shapes = (
{
closed = 1;
nodes = (
(-18,0,l),
(17,0,l),
(17,603,l),
(147,603,l),
(80,539,l),
(104,515,l),
(210,620,l),
(104,725,l),
(80,701,l),
(147,637,l),
(-18,637,l)
);
}
);
width = 0;
},
{
layerId = "DA9A8D32-36F4-433E-897C-B49E872243BC";
shapes = (
{
closed = 1;
nodes = (
(-16,0,l),
(15,0,l),
(15,551,l),
(136,551,l),
(74,491,l),
(96,469,l),
(195,566,l),
(96,662,l),
(74,640,l),
(136,583,l),
(-16,583,l)
);
}
);
width = 0;
}
);
note = uni200E;
unicode = 8206;
},
{
glyphname = uni200F;
lastChange = "2023-01-02 09:26:46 +0000";
layers = (
{
layerId = m01;
shapes = (
{
closed = 1;
nodes = (
(-18,0,l),
(17,0,l),
(17,637,l),
(-147,637,l),
(-81,701,l),
(-104,725,l),
(-210,620,l),
(-104,515,l),
(-81,539,l),
(-147,603,l),
(-18,603,l)
);
}
);
width = 0;
},
{
layerId = "1C3A187F-9439-4340-B0A6-CD0525AA1AFE";
shapes = (
{
closed = 1;
nodes = (
(-18,0,l),
(17,0,l),
(17,637,l),
(-147,637,l),
(-81,701,l),
(-104,725,l),
(-210,620,l),
(-104,515,l),
(-81,539,l),
(-147,603,l),
(-18,603,l)
);
}
);
width = 0;
},
{
layerId = "DA9A8D32-36F4-433E-897C-B49E872243BC";
shapes = (
{
closed = 1;
nodes = (
(-16,0,l),
(15,0,l),
(15,583,l),
(-136,583,l),
(-75,640,l),
(-96,662,l),
(-195,566,l),
(-96,469,l),
(-75,491,l),
(-136,551,l),
(-16,551,l)
);
}
);
width = 0;
}
);
note = uni200F;
unicode = 8207;
},
{
glyphname = uni0710;
lastChange = "2023-01-02 09:26:46 +0000";
layers = (
{
anchors = (
{
name = bottom;
pos = (183,-98);
},
{
name = top;
pos = (185,691);
}
);
layerId = m01;
shapes = (
{
closed = 1;
nodes = (
(58,0,l),
(312,0,l),
(312,76,l),
(222,76,ls),
(196,76,o),
(175,75,o),
(154,74,c),
(154,78,l),
(188,124,o),
(215,177,o),
(235,237,cs),
(255,297,o),
(266,356,o),
(266,413,cs),
(266,545,o),
(222,593,o),
(133,601,c),
(99,530,l),
(171,497,l),
(186,480,o),
(194,438,o),
(194,403,cs),
(194,347,o),
(181,288,o),
(157,227,cs),
(133,166,o),
(101,110,o),
(60,60,c)
);
}
);
width = 371;
},
{
anchors = (
{
name = bottom;
pos = (169,-98);
},
{
name = top;
pos = (179,667);
}
);
layerId = "1C3A187F-9439-4340-B0A6-CD0525AA1AFE";
shapes = (
{
closed = 1;
nodes = (
(70,0,l),
(272,0,l),
(272,25,l),
(156,25,ls),
(148,25,o),
(124,24,o),
(101,23,c),
(101,25,l),
(157,112,o),
(175,165,o),
(194,229,cs),
(211,285,o),
(219,343,o),
(219,403,cs),
(219,515,o),
(189,561,o),
(126,575,c),
(112,547,l),
(164,523,l),
(182,500,o),
(193,471,o),
(193,403,cs),
(193,349,o),
(185,290,o),
(167,228,cs),
(147,160,o),
(116,90,o),
(70,21,c)
);
}
);
width = 342;
},
{
anchors = (
{
name = bottom;
pos = (213,-98);
},
{
name = top;
pos = (208,735);
}
);
layerId = "DA9A8D32-36F4-433E-897C-B49E872243BC";
shapes = (
{
closed = 1;
nodes = (
(50,0,l),
(388,0,l),
(388,185,l),
(355,185,ls),
(329,185,o),
(279,184,o),
(265,183,c),
(265,187,l),
(277,203,o),
(297,235,o),
(314,275,cs),
(331,316,o),
(345,366,o),
(345,418,cs),
(345,574,o),
(257,641,o),
(154,646,c),
(70,479,l),
(173,428,l),
(181,416,o),
(187,396,o),
(187,374,cs),
(187,348,o),
(180,310,o),
(159,270,cs),
(138,229,o),
(104,187,o),
(50,150,c)
);
}
);
width = 438;
}
);
note = uni0710;
unicode = 1808;
},
{
glyphname = uni0710.fin3;
lastChange = "2023-01-02 09:26:46 +0000";
layers = (
{
anchors = (
{
name = bottom;
pos = (183,-98);
},
{
name = top;
pos = (185,690);
}
);
layerId = m01;
shapes = (
{
closed = 1;
nodes = (
(58,0,l),
(312,0,l),
(312,76,l),
(222,76,ls),
(196,76,o),
(175,75,o),
(154,74,c),
(154,78,l),
(188,124,o),
(215,177,o),
(235,237,cs),
(255,297,o),
(266,356,o),
(266,413,cs),
(266,545,o),
(222,593,o),
(133,601,c),
(99,530,l),
(171,497,l),
(186,480,o),
(194,438,o),
(194,403,cs),
(194,347,o),
(181,288,o),
(157,227,cs),
(133,166,o),
(101,110,o),
(60,60,c)
);
}
);
width = 371;
},
{
anchors = (
{
name = bottom;
pos = (169,-98);
},
{
name = top;
pos = (180,667);
}
);
layerId = "1C3A187F-9439-4340-B0A6-CD0525AA1AFE";
shapes = (
{
closed = 1;
nodes = (
(70,0,l),
(272,0,l),
(272,25,l),
(156,25,ls),
(148,25,o),
(124,24,o),
(101,23,c),
(101,25,l),
(157,112,o),
(175,165,o),
(194,229,cs),
(211,285,o),
(219,343,o),
(219,403,cs),
(219,515,o),
(189,561,o),
(126,575,c),
(112,547,l),
(164,523,l),
(182,500,o),
(193,471,o),
(193,403,cs),
(193,349,o),
(185,290,o),
(167,228,cs),
(147,160,o),
(116,90,o),
(70,21,c)
);
}
);
width = 342;
},
{
anchors = (
{
name = bottom;
pos = (213,-98);
},
{
name = top;
pos = (207,733);
}
);
layerId = "DA9A8D32-36F4-433E-897C-B49E872243BC";
shapes = (
{
closed = 1;
nodes = (
(50,0,l),
(388,0,l),
(388,185,l),
(355,185,ls),
(329,185,o),
(279,184,o),
(265,183,c),
(265,187,l),
(277,203,o),
(297,235,o),
(314,275,cs),
(331,316,o),
(345,366,o),
(345,418,cs),
(345,574,o),
(257,641,o),
(154,646,c),
(70,479,l),
(173,428,l),
(181,416,o),
(187,396,o),
(187,374,cs),
(187,348,o),
(180,310,o),
(159,270,cs),
(138,229,o),
(104,187,o),
(50,150,c)
);
}
);
width = 438;
}
);
note = uni0710.fin3;
},
{
glyphname = uni0710.fin2;
lastChange = "2023-01-02 09:26:46 +0000";
layers = (
{
anchors = (
{
name = bottom;
pos = (184,-141);
},
{
name = top;
pos = (187,691);
}
);
layerId = m01;
shapes = (
{
closed = 1;
nodes = (
(142,0,l),
(312,0,l),
(312,76,l),
(238,76,ls),
(212,76,o),
(186,75,o),
(161,74,c),
(161,78,l),
(223,176,o),
(265,286,o),
(265,408,cs),
(265,543,o),
(221,593,o),
(133,601,c),
(98,530,l),
(171,497,l),
(184,481,o),
(193,446,o),
(193,403,cs),
(193,298,o),
(159,199,o),
(83,76,c),
(59,76,l),
(59,6,l),
(72,0,l),
(130,-67,l),
(141,-67,l)
);
}
);
width = 370;
},
{
anchors = (
{
name = bottom;
pos = (171,-141);
},
{
name = top;
pos = (182,667);
}
);
layerId = "1C3A187F-9439-4340-B0A6-CD0525AA1AFE";
shapes = (
{
closed = 1;
nodes = (
(103,0,l),
(269,0,l),
(269,25,l),
(209,25,ls),
(184,25,o),
(139,24,o),
(110,23,c),
(110,25,l),
(194,177,o),
(223,294,o),
(223,403,cs),
(223,515,o),
(193,561,o),
(130,575,c),
(116,547,l),
(168,523,l),
(186,500,o),
(197,471,o),
(197,403,cs),
(197,289,o),
(158,155,o),
(82,25,c),
(70,25,l),
(70,2,l),
(77,0,l),
(92,-44,l),
(101,-44,l)
);
}
);
width = 339;
},
{
anchors = (
{
name = bottom;
pos = (216,-150);
},
{
name = top;
pos = (200,736);
}
);
layerId = "DA9A8D32-36F4-433E-897C-B49E872243BC";
shapes = (
{
closed = 1;
nodes = (
(220,0,l),
(378,0,l),
(378,185,l),
(345,185,ls),
(319,185,o),
(269,184,o),
(255,183,c),
(255,187,l),
(279,217,o),
(335,313,o),
(335,418,cs),
(335,574,o),
(247,641,o),
(144,646,c),
(60,479,l),
(163,428,l),
(171,416,o),
(177,397,o),
(177,374,cs),
(177,324,o),
(136,231,o),
(76,185,c),
(50,185,l),
(50,10,l),
(83,0,l),
(202,-101,l),
(217,-101,l)
);
}
);
width = 428;
}
);
note = uni0710.fin2;
},
{
glyphname = uni0710.fina;
lastChange = "2023-01-02 09:26:46 +0000";
layers = (
{
anchors = (
{
name = bottom;
pos = (172,-141);
},
{
name = top;
pos = (187,690);
}
);
layerId = m01;
shapes = (
{
closed = 1;
nodes = (
(142,0,l),
(356,0,l),
(356,76,l),
(238,76,ls),
(212,76,o),
(186,75,o),
(161,74,c),
(161,78,l),
(223,176,o),
(265,286,o),
(265,408,cs),
(265,543,o),
(221,593,o),
(133,601,c),
(98,530,l),
(171,497,l),
(184,481,o),
(193,446,o),
(193,403,cs),
(193,298,o),
(159,199,o),
(83,76,c),
(59,76,l),
(59,6,l),
(72,0,l),
(130,-67,l),
(141,-67,l)
);
}
);
width = 356;
},
{
anchors = (
{
name = bottom;
pos = (172,-141);
},
{
name = top;
pos = (182,667);
}
);
layerId = "1C3A187F-9439-4340-B0A6-CD0525AA1AFE";
shapes = (
{
closed = 1;
nodes = (
(103,0,l),
(324,0,l),
(324,25,l),
(209,25,ls),
(184,25,o),
(139,24,o),
(110,23,c),
(110,25,l),
(194,177,o),
(223,294,o),
(223,403,cs),
(223,515,o),
(193,561,o),
(130,575,c),
(116,547,l),
(168,523,l),
(186,500,o),
(197,471,o),
(197,403,cs),
(197,289,o),
(158,155,o),
(82,25,c),
(70,25,l),
(70,2,l),
(77,0,l),
(92,-44,l),
(101,-44,l)
);
}
);
width = 324;
},
{
anchors = (
{
name = bottom;
pos = (216,-149);
},
{
name = top;
pos = (200,733);
}
);
layerId = "DA9A8D32-36F4-433E-897C-B49E872243BC";
shapes = (
{
closed = 1;
nodes = (
(220,0,l),
(418,0,l),
(418,185,l),
(345,185,ls),
(319,185,o),
(269,184,o),
(255,183,c),
(255,187,l),
(279,217,o),
(335,313,o),
(335,418,cs),
(335,574,o),
(247,641,o),
(144,646,c),
(60,479,l),
(163,428,l),
(171,416,o),
(177,397,o),
(177,374,cs),
(177,324,o),
(136,231,o),
(76,185,c),
(50,185,l),
(50,10,l),
(83,0,l),
(202,-101,l),
(217,-101,l)
);
}
);
width = 418;
}
);
note = uni0710.fina;
},
{
glyphname = uni0710.med2;
lastChange = "2023-01-02 09:26:46 +0000";
layers = (
{
anchors = (
{
name = bottom;
pos = (172,-141);
},
{
name = top;
pos = (187,691);
}
);
layerId = m01;
shapes = (
{
closed = 1;
nodes = (
(58,0,l),
(356,0,l),
(356,76,l),
(222,76,ls),
(196,76,o),
(175,75,o),
(154,74,c),
(154,78,l),
(188,124,o),
(215,177,o),
(235,237,cs),
(255,297,o),
(266,356,o),
(266,413,cs),
(266,545,o),
(222,593,o),
(133,601,c),
(99,530,l),
(171,497,l),
(186,480,o),
(194,438,o),
(194,403,cs),
(194,347,o),
(181,288,o),
(157,227,cs),
(133,166,o),
(101,110,o),
(60,60,c)
);
}
);
width = 356;
},
{
anchors = (
{
name = bottom;
pos = (172,-141);
},
{
name = top;
pos = (182,667);
}
);
layerId = "1C3A187F-9439-4340-B0A6-CD0525AA1AFE";
shapes = (
{
closed = 1;
nodes = (
(70,0,l),
(320,0,l),
(320,25,l),
(156,25,ls),
(148,25,o),
(124,24,o),
(101,23,c),
(101,25,l),
(157,112,o),
(175,165,o),
(194,229,cs),
(211,285,o),
(219,343,o),
(219,403,cs),
(219,515,o),
(189,561,o),
(126,575,c),
(112,547,l),
(164,523,l),
(182,500,o),
(193,471,o),
(193,403,cs),
(193,349,o),
(185,290,o),
(167,228,cs),
(147,160,o),
(116,90,o),
(70,21,c)
);
}
);
width = 320;
},
{
anchors = (
{
name = bottom;
pos = (216,-150);
},
{
name = top;
pos = (200,736);
}
);
layerId = "DA9A8D32-36F4-433E-897C-B49E872243BC";
shapes = (
{
closed = 1;
nodes = (
(50,0,l),
(428,0,l),
(428,185,l),
(355,185,ls),
(329,185,o),
(279,184,o),
(265,183,c),
(265,187,l),
(277,203,o),
(297,235,o),
(314,275,cs),
(331,316,o),
(345,366,o),
(345,418,cs),
(345,574,o),
(257,641,o),
(154,646,c),
(70,479,l),
(173,428,l),
(181,416,o),
(187,396,o),
(187,374,cs),
(187,348,o),
(180,310,o),
(159,270,cs),
(138,229,o),
(104,187,o),
(50,150,c)
);
}
);
width = 428;
}
);
note = uni0710.med2;
},
{
category = Mark;
glyphname = uni0711;
lastChange = "2023-01-02 09:26:46 +0000";
layers = (
{
anchors = (
{
name = _Anchor6;
pos = (0,545);
},
{
name = _top;
pos = (0,542);
}
);
layerId = m01;
shapes = (
{
closed = 1;
nodes = (
(-59,552,l),
(51,552,l),
(51,585,l),
(23,585,ls),
(11,585,o),
(-2,585,o),
(-16,584,c),
(-16,587,l),
(23,638,o),
(35,685,o),
(35,728,cs),
(35,783,o),
(16,808,o),
(-24,811,c),
(-41,777,l),
(-9,764,l),
(-2,756,o),
(0,739,o),
(0,724,cs),
(0,681,o),
(-18,627,o),
(-58,578,c)
);
}
);
width = 0;
},
{
anchors = (
{
name = _Anchor6;
pos = (0,545);
},
{
name = _top;
pos = (0,542);
}
);
layerId = "1C3A187F-9439-4340-B0A6-CD0525AA1AFE";
shapes = (
{
closed = 1;
nodes = (
(-52,552,l),
(42,552,l),
(42,568,l),
(-9,568,ls),
(-17,568,o),
(-23,568,o),
(-34,567,c),
(-34,568,l),
(0,622,o),
(19,665,o),
(19,713,cs),
(19,763,o),
(5,780,o),
(-23,786,c),
(-31,770,l),
(-8,760,l),
(0,749,o),
(3,735,o),
(3,713,cs),
(3,672,o),
(-13,625,o),
(-52,566,c)
);
}
);
width = 0;
},
{
anchors = (
{
name = _Anchor6;
pos = (0,545);
},
{
name = _top;
pos = (0,542);
}
);
layerId = "DA9A8D32-36F4-433E-897C-B49E872243BC";
shapes = (
{
closed = 1;
nodes = (
(-68,552,l),
(77,552,l),
(77,635,l),
(68,635,ls),
(55,635,o),
(39,634,o),
(24,633,c),
(24,636,l),
(35,649,o),
(60,692,o),
(60,737,cs),
(60,807,o),
(20,837,o),
(-26,839,c),
(-62,765,l),
(-17,742,l),
(-13,737,o),
(-11,728,o),
(-11,718,cs),
(-11,695,o),
(-20,652,o),
(-68,619,c)
);
}
);
width = 0;
}
);
note = uni0711;
subCategory = Nonspacing;
unicode = 1809;
},
{
glyphname = uni0712;
lastChange = "2023-01-02 09:26:46 +0000";
layers = (
{
anchors = (
{
name = bottom;
pos = (375,-99);
},
{
name = top;
pos = (500,523);
}
);
layerId = m01;
shapes = (
{
closed = 1;
nodes = (
(668,0,l),
(708,54,l),
(708,426,l),
(484,426,ls),
(417,426,o),
(343,431,o),
(306,438,c),
(306,367,l),
(335,359,o),
(412,353,o),
(489,353,cs),
(634,353,l),
(634,76,l),
(262,76,ls),
(174,76,o),
(129,89,o),
(94,138,c),
(49,78,l),
(69,30,o),
(136,0,o),
(240,0,cs)
);
}
);
width = 776;
},
{
anchors = (
{
name = bottom;
pos = (340,-102);
},
{
name = top;
pos = (463,480);
}
);
layerId = "1C3A187F-9439-4340-B0A6-CD0525AA1AFE";
shapes = (
{
closed = 1;
nodes = (
(632,0,l),
(647,20,l),
(647,377,l),
(453,377,ls),
(405,377,o),
(345,381,o),
(303,388,c),
(303,363,l),
(331,357,o),
(396,352,o),
(457,352,cs),
(621,352,l),
(621,25,l),
(228,25,ls),
(137,25,o),
(106,34,o),
(77,73,c),
(60,53,l),
(77,23,o),
(113,0,o),
(197,0,cs)
);
}
);
width = 727;
},
{
anchors = (
{
name = bottom;
pos = (441,-93);
},
{
name = top;
pos = (549,597);
}
);
layerId = "DA9A8D32-36F4-433E-897C-B49E872243BC";
shapes = (
{
closed = 1;
nodes = (
(694,0,l),
(775,126,l),
(775,500,l),
(530,500,ls),
(432,500,o),
(335,507,o),
(311,512,c),
(311,343,l),
(340,333,o),
(434,325,o),
(537,325,cs),
(614,325,l),
(614,185,l),
(320,185,ls),
(245,185,o),
(177,188,o),
(132,247,c),
(37,130,l),
(61,45,o),
(163,0,o),
(307,0,cs)
);
}
);
width = 831;
}
);
note = uni0712;
unicode = 1810;
},
{
glyphname = uni0712.fina;
lastChange = "2023-01-02 09:26:46 +0000";
layers = (
{
anchors = (
{
name = bottom;
pos = (375,-98);
},
{
name = top;
pos = (500,523);
}
);
layerId = m01;
shapes = (
{
closed = 1;
nodes = (
(812,0,l),
(812,76,l),
(780,76,ls),
(727,76,o),
(708,96,o),
(708,170,cs),
(708,426,l),
(484,426,ls),
(417,426,o),
(343,431,o),
(306,438,c),
(306,367,l),
(335,359,o),
(412,353,o),
(489,353,cs),
(634,353,l),
(634,164,ls),
(634,128,o),
(638,99,o),
(647,76,c),
(262,76,ls),
(174,76,o),
(129,89,o),
(94,138,c),
(49,78,l),
(69,30,o),
(136,0,o),
(240,0,cs),
(645,0,l),
(662,46,l),
(664,46,l),
(687,13,o),
(724,0,o),
(772,0,cs)
);
}
);
width = 812;
},
{
anchors = (
{
name = bottom;
pos = (340,-98);
},
{
name = top;
pos = (463,480);
}
);
layerId = "1C3A187F-9439-4340-B0A6-CD0525AA1AFE";
shapes = (
{
closed = 1;
nodes = (
(759,0,l),
(759,25,l),
(691,25,ls),
(650,25,o),
(647,45,o),
(647,98,cs),
(647,377,l),
(453,377,ls),
(405,377,o),
(345,381,o),
(303,388,c),
(303,363,l),
(331,357,o),
(396,352,o),
(457,352,cs),
(621,352,l),
(621,80,ls),
(621,57,o),
(623,39,o),
(631,25,c),
(228,25,ls),
(137,25,o),
(106,34,o),
(77,73,c),
(60,53,l),
(77,23,o),
(113,0,o),
(197,0,cs),
(628,0,l),
(635,18,l),
(637,18,l),
(647,6,o),
(662,0,o),
(686,0,cs)
);
}
);
width = 759;
},
{
anchors = (
{
name = bottom;
pos = (441,-98);
},
{
name = top;
pos = (549,597);
}
);
layerId = "DA9A8D32-36F4-433E-897C-B49E872243BC";
shapes = (
{
closed = 1;
nodes = (
(867,0,l),
(867,185,l),
(847,185,ls),
(788,185,o),
(775,206,o),
(775,293,cs),
(775,500,l),
(530,500,ls),
(432,500,o),
(335,507,o),
(311,512,c),
(311,343,l),
(340,333,o),
(434,325,o),
(537,325,cs),
(614,325,l),
(614,261,ls),
(614,240,o),
(617,201,o),
(621,185,c),
(320,185,ls),
(245,185,o),
(177,188,o),
(132,247,c),
(37,130,l),
(61,45,o),
(163,0,o),
(307,0,cs),
(616,0,l),
(654,81,l),
(658,81,l),
(700,5,o),
(780,0,o),
(853,0,cs)
);
}
);
width = 867;
}
);
note = uni0712.fina;
},
{
glyphname = uni0712.medi;
lastChange = "2023-01-02 09:26:46 +0000";
layers = (
{
anchors = (
{
name = bottom;
pos = (198,-98);
},
{
name = top;
pos = (262,523);
}
);
layerId = m01;
shapes = (
{
closed = 1;
nodes = (
(574,0,l),
(574,76,l),
(542,76,ls),
(489,76,o),
(470,96,o),
(470,170,cs),
(470,426,l),
(246,426,ls),
(179,426,o),
(105,431,o),
(68,438,c),
(68,367,l),
(97,359,o),
(174,353,o),
(251,353,cs),
(396,353,l),
(396,164,ls),
(396,128,o),
(400,99,o),
(409,76,c),
(0,76,ls),
(-21,76,o),
(-39,61,o),
(-39,38,cs),
(-39,14,o),
(-21,0,o),
(0,0,cs),
(407,0,l),
(424,46,l),
(426,46,l),
(449,13,o),
(487,0,o),
(534,0,cs)
);
}
);
width = 574;
},
{
anchors = (
{
name = bottom;
pos = (198,-98);
},
{
name = top;
pos = (227,480);
}
);
layerId = "1C3A187F-9439-4340-B0A6-CD0525AA1AFE";
shapes = (
{
closed = 1;
nodes = (
(524,0,l),
(524,25,l),
(456,25,ls),
(415,25,o),
(412,45,o),
(412,98,cs),
(412,377,l),
(218,377,ls),
(170,377,o),
(110,381,o),
(68,388,c),
(68,363,l),
(96,357,o),
(161,352,o),
(222,352,cs),
(386,352,l),
(386,80,ls),
(386,57,o),
(388,39,o),
(396,25,c),
(0,25,ls),
(-19,25,o),
(-40,21,o),
(-40,13,cs),
(-40,4,o),
(-19,0,o),
(0,0,cs),
(393,0,l),
(400,18,l),
(402,18,l),
(412,6,o),
(427,0,o),
(451,0,cs)
);
}
);
width = 524;
},
{
anchors = (
{
name = bottom;
pos = (214,-94);
},
{
name = top;
pos = (323,598);
}
);
layerId = "DA9A8D32-36F4-433E-897C-B49E872243BC";
shapes = (
{
closed = 1;
nodes = (
(640,0,l),
(640,185,l),
(620,185,ls),
(561,185,o),
(548,206,o),
(548,293,cs),
(548,500,l),
(303,500,ls),
(205,500,o),
(108,507,o),
(84,512,c),
(84,343,l),
(113,333,o),
(207,325,o),
(310,325,cs),
(387,325,l),
(387,261,ls),
(387,240,o),
(390,201,o),
(394,185,c),
(0,185,ls),
(-24,185,o),
(-40,141,o),
(-40,92,cs),
(-40,42,o),
(-24,0,o),
(0,0,cs),
(389,0,l),
(427,81,l),
(431,81,l),
(473,5,o),
(553,0,o),
(626,0,cs)
);
}
);
width = 640;
}
);
note = uni0712.medi;
},
{
glyphname = uni0712.init;
lastChange = "2023-01-02 09:26:46 +0000";
layers = (
{
anchors = (
{
name = bottom;
pos = (197,-98);
},
{
name = top;
pos = (263,523);
}
);
layerId = m01;
shapes = (
{
closed = 1;
nodes = (
(431,0,l),
(470,54,l),
(470,426,l),
(246,426,ls),
(179,426,o),
(105,431,o),
(68,438,c),
(68,367,l),
(97,359,o),
(174,353,o),
(251,353,cs),
(396,353,l),
(396,76,l),
(0,76,ls),
(-21,76,o),
(-39,61,o),
(-39,38,cs),
(-39,14,o),
(-21,0,o),
(0,0,cs)
);
}
);
width = 538;
},
{
anchors = (
{
name = bottom;
pos = (197,-98);
},
{
name = top;
pos = (227,480);
}
);
layerId = "1C3A187F-9439-4340-B0A6-CD0525AA1AFE";
shapes = (
{
closed = 1;
nodes = (
(397,0,l),
(412,20,l),
(412,377,l),
(218,377,ls),
(170,377,o),
(110,381,o),
(68,388,c),
(68,363,l),
(96,357,o),
(161,352,o),
(222,352,cs),
(386,352,l),
(386,25,l),
(0,25,ls),
(-19,25,o),
(-40,21,o),
(-40,13,cs),
(-40,4,o),
(-19,0,o),
(0,0,cs)
);
}
);
width = 492;
},
{
anchors = (
{
name = bottom;
pos = (214,-93);
},
{
name = top;
pos = (324,595);
}
);
layerId = "DA9A8D32-36F4-433E-897C-B49E872243BC";
shapes = (
{
closed = 1;
nodes = (
(467,0,l),
(548,126,l),
(548,500,l),
(303,500,ls),
(205,500,o),
(110,507,o),
(84,512,c),
(84,343,l),
(113,333,o),
(207,325,o),
(309,325,cs),
(387,325,l),
(387,185,l),
(0,185,ls),
(-24,185,o),
(-40,141,o),
(-40,92,cs),
(-40,42,o),
(-24,0,o),
(0,0,cs)
);
}
);
width = 604;
}
);
note = uni0712.init;
},
{
glyphname = uni0713;
lastChange = "2023-01-02 09:26:46 +0000";
layers = (
{
anchors = (
{
name = bottom;
pos = (384,-98);
},
{
name = top;
pos = (374,772);
}
);
layerId = m01;
shapes = (
{
closed = 1;
nodes = (
(810,-240,l),
(906,-240,l),
(906,-141,l),
(860,-141,l),
(429,693,l),
(358,659,l),
(659,76,l),
(267,76,ls),
(175,76,o),
(127,90,o),
(94,138,c),
(49,78,l),
(69,30,o),
(136,0,o),
(240,0,cs),
(688,0,l),
(706,46,l),
(708,46,l),
(810,-152,l)
);
}
);
width = 833;
},
{
anchors = (
{
name = bottom;
pos = (342,-98);
},
{
name = top;
pos = (328,735);
}
);
layerId = "1C3A187F-9439-4340-B0A6-CD0525AA1AFE";
shapes = (
{
closed = 1;
nodes = (
(791,-235,l),
(839,-235,l),
(839,-187,l),
(807,-187,l),
(372,656,l),
(349,644,l),
(668,25,l),
(228,25,ls),
(137,25,o),
(106,34,o),
(77,73,c),
(60,53,l),
(77,23,o),
(113,0,o),
(197,0,cs),
(671,0,l),
(678,18,l),
(680,18,l),
(791,-197,l)
);
}
);
width = 776;
},
{
anchors = (
{
name = bottom;
pos = (385,-98);
},
{
name = top;
pos = (417,798);
}
);
layerId = "DA9A8D32-36F4-433E-897C-B49E872243BC";
shapes = (
{
closed = 1;
nodes = (
(817,-240,l),
(979,-240,l),
(979,-80,l),
(939,-80,l),
(515,743,l),
(360,661,l),
(604,185,l),
(320,185,ls),
(245,185,o),
(177,188,o),
(132,247,c),
(37,130,l),
(61,45,o),
(163,0,o),
(307,0,cs),
(690,0,l),
(728,81,l),
(732,81,l),
(817,-91,l)
);
}
);
width = 927;
}
);
note = uni0713;
unicode = 1811;
},
{
glyphname = uni0713.fina;
lastChange = "2023-01-02 09:26:46 +0000";
layers = (
{
anchors = (
{
name = bottom;
pos = (372,-98);
},
{
name = top;
pos = (374,773);
}
);
layerId = m01;
shapes = (
{
closed = 1;
nodes = (
(779,-240,l),
(875,-240,l),
(875,-141,l),
(829,-141,l),
(756,0,l),
(768,0,l),
(768,76,l),
(752,76,o),
(739,91,o),
(717,134,cs),
(429,693,l),
(359,659,l),
(659,76,l),
(267,76,ls),
(175,76,o),
(127,90,o),
(94,138,c),
(49,78,l),
(69,30,o),
(136,0,o),
(240,0,cs),
(657,0,l),
(675,46,l),
(677,46,l),
(779,-152,l)
);
}
);
width = 768;
},
{
anchors = (
{
name = bottom;
pos = (342,-98);
},
{
name = top;
pos = (328,737);
}
);
layerId = "1C3A187F-9439-4340-B0A6-CD0525AA1AFE";
shapes = (
{
closed = 1;
nodes = (
(784,-235,l),
(832,-235,l),
(832,-187,l),
(800,-187,l),
(703,0,l),
(717,0,l),
(717,25,l),
(699,25,o),
(697,26,o),
(684,51,cs),
(372,656,l),
(349,644,l),
(668,25,l),
(228,25,ls),
(137,25,o),
(106,34,o),
(77,73,c),
(60,53,l),
(77,23,o),
(113,0,o),
(197,0,cs),
(664,0,l),
(671,18,l),
(673,18,l),
(784,-197,l)
);
}
);
width = 717;
},
{
anchors = (
{
name = bottom;
pos = (365,-98);
},
{
name = top;
pos = (418,798);
}
);
layerId = "DA9A8D32-36F4-433E-897C-B49E872243BC";
shapes = (
{
closed = 1;
nodes = (
(743,-240,l),
(905,-240,l),
(905,-80,l),
(848,-80,l),
(810,0,l),
(821,0,l),
(821,185,l),
(810,185,o),
(798,195,o),
(774,241,cs),
(515,743,l),
(360,661,l),
(604,185,l),
(320,185,ls),
(245,185,o),
(177,188,o),
(132,247,c),
(37,130,l),
(61,45,o),
(163,0,o),
(307,0,cs),
(616,0,l),
(654,81,l),
(658,81,l),
(743,-91,l)
);
}
);
width = 821;
}
);
note = uni0713.fina;
},
{
glyphname = uni0713.medi;
lastChange = "2023-01-02 09:26:46 +0000";
layers = (
{
anchors = (
{
name = bottom;
pos = (171,-98);
},
{
name = top;
pos = (-9,773);
}
);
layerId = m01;
shapes = (
{
closed = 1;
nodes = (
(397,-240,l),
(493,-240,l),
(493,-141,l),
(447,-141,l),
(374,0,l),
(386,0,l),
(386,76,l),
(370,76,o),
(356,90,o),
(334,134,cs),
(47,693,l),
(-23,659,l),
(277,76,l),
(0,76,ls),
(-21,76,o),
(-39,61,o),
(-39,38,cs),
(-39,14,o),
(-21,0,o),
(0,0,cs),
(275,0,l),
(293,46,l),
(295,46,l),
(397,-152,l)
);
}
);
width = 386;
},
{
anchors = (
{
name = bottom;
pos = (171,-98);
},
{
name = top;
pos = (-30,738);
}
);
layerId = "1C3A187F-9439-4340-B0A6-CD0525AA1AFE";
shapes = (
{
closed = 1;
nodes = (
(431,-235,l),
(479,-235,l),
(479,-187,l),
(447,-187,l),
(350,0,l),
(364,0,l),
(364,25,l),
(346,25,o),
(344,26,o),
(331,51,cs),
(19,656,l),
(-4,644,l),
(315,25,l),
(0,25,ls),
(-19,25,o),
(-40,21,o),
(-40,13,cs),
(-40,4,o),
(-19,0,o),
(0,0,cs),
(311,0,l),
(318,18,l),
(320,18,l),
(431,-197,l)
);
}
);
width = 364;
},
{
anchors = (
{
name = bottom;
pos = (128,-98);
},
{
name = top;
pos = (52,798);
}
);
layerId = "DA9A8D32-36F4-433E-897C-B49E872243BC";
shapes = (
{
closed = 1;
nodes = (
(378,-240,l),
(540,-240,l),
(540,-80,l),
(483,-80,l),
(445,0,l),
(456,0,l),
(456,185,l),
(445,185,o),
(433,195,o),
(409,241,cs),
(150,743,l),
(-5,661,l),
(239,185,l),
(0,185,ls),
(-24,185,o),
(-40,141,o),
(-40,92,cs),
(-40,42,o),
(-24,0,o),
(0,0,cs),
(251,0,l),
(289,81,l),
(293,81,l),
(378,-91,l)
);
}
);
width = 456;
}
);
note = uni0713.medi;
},
{
glyphname = uni0713.init;
lastChange = "2023-01-02 09:26:46 +0000";
layers = (
{
anchors = (
{
name = bottom;
pos = (171,-98);
},
{
name = top;
pos = (-10,773);
}
);
layerId = m01;
shapes = (
{
closed = 1;
nodes = (
(428,-240,l),
(524,-240,l),
(524,-141,l),
(478,-141,l),
(47,693,l),
(-23,659,l),
(277,76,l),
(0,76,ls),
(-21,76,o),
(-39,61,o),
(-39,38,cs),
(-39,14,o),
(-21,0,o),
(0,0,cs),
(306,0,l),
(324,46,l),
(326,46,l),
(428,-152,l)
);
}
);
width = 451;
},
{
anchors = (
{
name = bottom;
pos = (171,-98);
},
{
name = top;
pos = (-29,740);
}
);
layerId = "1C3A187F-9439-4340-B0A6-CD0525AA1AFE";
shapes = (
{
closed = 1;
nodes = (
(438,-235,l),
(486,-235,l),
(486,-187,l),
(454,-187,l),
(19,656,l),
(-4,644,l),
(315,25,l),
(0,25,ls),
(-19,25,o),
(-40,21,o),
(-40,13,cs),
(-40,4,o),
(-19,0,o),
(0,0,cs),
(318,0,l),
(325,18,l),
(327,18,l),
(438,-197,l)
);
}
);
width = 423;
},
{
anchors = (
{
name = bottom;
pos = (129,-98);
},
{
name = top;
pos = (53,799);
}
);
layerId = "DA9A8D32-36F4-433E-897C-B49E872243BC";
shapes = (
{
closed = 1;
nodes = (
(452,-240,l),
(614,-240,l),
(614,-80,l),
(574,-80,l),
(150,743,l),
(-5,661,l),
(239,185,l),
(0,185,ls),
(-24,185,o),
(-40,141,o),
(-40,92,cs),
(-40,42,o),
(-24,0,o),
(0,0,cs),
(325,0,l),
(363,81,l),
(367,81,l),
(452,-91,l)
);
}
);
width = 562;
}
);
note = uni0713.init;
},
{
glyphname = uni0714;
lastChange = "2023-01-02 09:26:46 +0000";
layers = (
{
anchors = (
{
name = bottom;
pos = (384,-98);
},
{
name = top;
pos = (374,772);
}
);
layerId = m01;
shapes = (
{
closed = 1;
nodes = (
(810,-240,l),
(906,-240,l),
(906,-141,l),
(860,-141,l),
(429,693,l),
(358,659,l),
(659,76,l),
(267,76,ls),
(175,76,o),
(127,90,o),
(94,138,c),
(49,78,l),
(69,30,o),
(136,0,o),
(240,0,cs),
(688,0,l),
(706,46,l),
(708,46,l),
(810,-152,l)
);
},
{
closed = 1;
nodes = (
(406,156,l),
(488,156,l),
(488,241,l),
(406,241,l)
);
}
);
width = 833;
},
{
anchors = (
{
name = bottom;
pos = (342,-98);
},
{
name = top;
pos = (328,736);
}
);
layerId = "1C3A187F-9439-4340-B0A6-CD0525AA1AFE";
shapes = (
{
closed = 1;
nodes = (
(791,-235,l),
(839,-235,l),
(839,-187,l),
(807,-187,l),
(372,656,l),
(349,644,l),
(668,25,l),
(228,25,ls),
(137,25,o),
(106,34,o),
(77,73,c),
(60,53,l),
(77,23,o),
(113,0,o),
(197,0,cs),
(671,0,l),
(678,18,l),
(680,18,l),
(791,-197,l)
);
},
{
closed = 1;
nodes = (
(388,147,l),
(436,147,l),
(436,195,l),
(388,195,l)
);
}
);
width = 776;
},
{
anchors = (
{
name = bottom;
pos = (385,-98);
},
{
name = top;
pos = (417,798);
}
);
layerId = "DA9A8D32-36F4-433E-897C-B49E872243BC";
shapes = (
{
closed = 1;
nodes = (
(817,-240,l),
(979,-240,l),
(979,-80,l),
(939,-80,l),
(515,743,l),
(360,661,l),
(604,185,l),
(320,185,ls),
(245,185,o),
(177,188,o),
(132,247,c),
(37,130,l),
(61,45,o),
(163,0,o),
(307,0,cs),
(690,0,l),
(728,81,l),
(732,81,l),
(817,-91,l)
);
},
{
closed = 1;
nodes = (
(316,236,l),
(457,236,l),
(457,375,l),
(316,375,l)
);
}
);
width = 927;
}
);
note = uni0714;
unicode = 1812;
},
{
glyphname = uni0714.fina;
lastChange = "2023-01-02 09:26:46 +0000";
layers = (
{
anchors = (
{
name = bottom;
pos = (372,-98);
},
{
name = top;
pos = (374,773);
}
);
layerId = m01;
shapes = (
{
closed = 1;
nodes = (
(779,-240,l),
(875,-240,l),
(875,-141,l),
(829,-141,l),
(756,0,l),
(768,0,l),
(768,76,l),
(752,76,o),
(739,91,o),
(717,134,cs),
(429,693,l),
(359,659,l),
(659,76,l),
(267,76,ls),
(175,76,o),
(127,90,o),
(94,138,c),
(49,78,l),
(69,30,o),
(136,0,o),
(240,0,cs),
(657,0,l),
(675,46,l),
(677,46,l),
(779,-152,l)
);
},
{
closed = 1;
nodes = (
(406,156,l),
(488,156,l),
(488,241,l),
(406,241,l)
);
}
);
width = 768;
},
{
anchors = (
{
name = bottom;
pos = (343,-98);
},
{
name = top;
pos = (328,739);
}
);
layerId = "1C3A187F-9439-4340-B0A6-CD0525AA1AFE";
shapes = (
{
closed = 1;
nodes = (
(784,-235,l),
(832,-235,l),
(832,-187,l),
(800,-187,l),
(703,0,l),
(717,0,l),
(717,25,l),
(699,25,o),
(697,26,o),
(684,51,cs),
(372,656,l),
(349,644,l),
(668,25,l),
(228,25,ls),
(137,25,o),
(106,34,o),
(77,73,c),
(60,53,l),
(77,23,o),
(113,0,o),
(197,0,cs),
(664,0,l),
(671,18,l),
(673,18,l),
(784,-197,l)
);
},
{
closed = 1;
nodes = (
(388,147,l),
(436,147,l),
(436,195,l),
(388,195,l)
);
}
);
width = 717;
},
{
anchors = (
{
name = bottom;
pos = (365,-98);
},
{
name = top;
pos = (416,798);
}
);
layerId = "DA9A8D32-36F4-433E-897C-B49E872243BC";
shapes = (
{
closed = 1;
nodes = (
(743,-240,l),
(905,-240,l),
(905,-80,l),
(848,-80,l),
(810,0,l),
(821,0,l),
(821,185,l),
(810,185,o),
(798,195,o),
(774,241,cs),
(515,743,l),
(360,661,l),
(604,185,l),
(320,185,ls),
(245,185,o),
(177,188,o),
(132,247,c),
(37,130,l),
(61,45,o),
(163,0,o),
(307,0,cs),
(616,0,l),
(654,81,l),
(658,81,l),
(743,-91,l)
);
},
{
closed = 1;
nodes = (
(316,236,l),
(457,236,l),
(457,375,l),
(316,375,l)
);
}
);
width = 821;
}
);
note = uni0714.fina;
},
{
glyphname = uni0714.medi;
lastChange = "2023-01-02 09:26:46 +0000";
layers = (
{
anchors = (
{
name = bottom;
pos = (171,-98);
},
{
name = top;
pos = (-9,773);
}
);
layerId = m01;
shapes = (
{
closed = 1;
nodes = (
(397,-240,l),
(493,-240,l),
(493,-141,l),
(447,-141,l),
(374,0,l),
(386,0,l),
(386,76,l),
(370,76,o),
(356,90,o),
(334,134,cs),
(47,693,l),
(-23,659,l),
(277,76,l),
(0,76,ls),
(-21,76,o),
(-39,61,o),
(-39,38,cs),
(-39,14,o),
(-21,0,o),
(0,0,cs),
(275,0,l),
(293,46,l),
(295,46,l),
(397,-152,l)
);
},
{
closed = 1;
nodes = (
(24,156,l),
(106,156,l),
(106,241,l),
(24,241,l)
);
}
);
width = 386;
},
{
anchors = (
{
name = bottom;
pos = (171,-98);
},
{
name = top;
pos = (-29,740);
}
);
layerId = "1C3A187F-9439-4340-B0A6-CD0525AA1AFE";
shapes = (
{
closed = 1;
nodes = (
(431,-235,l),
(479,-235,l),
(479,-187,l),
(447,-187,l),
(350,0,l),
(364,0,l),
(364,25,l),
(346,25,o),
(344,26,o),
(331,51,cs),
(19,656,l),
(-4,644,l),
(315,25,l),
(0,25,ls),
(-19,25,o),
(-40,21,o),
(-40,13,cs),
(-40,4,o),
(-19,0,o),
(0,0,cs),
(311,0,l),
(318,18,l),
(320,18,l),
(431,-197,l)
);
},
{
closed = 1;
nodes = (
(35,147,l),
(83,147,l),
(83,195,l),
(35,195,l)
);
}
);
width = 364;
},
{
anchors = (
{
name = bottom;
pos = (187,-98);
},
{
name = top;
pos = (111,797);
}
);
layerId = "DA9A8D32-36F4-433E-897C-B49E872243BC";
shapes = (
{
closed = 1;
nodes = (
(437,-240,l),
(599,-240,l),
(599,-80,l),
(542,-80,l),
(504,0,l),
(515,0,l),
(515,185,l),
(504,185,o),
(492,195,o),
(468,241,cs),
(209,743,l),
(54,661,l),
(298,185,l),
(0,185,ls),
(-24,185,o),
(-40,141,o),
(-40,92,cs),
(-40,42,o),
(-24,0,o),
(0,0,cs),
(310,0,l),
(348,81,l),
(352,81,l),
(437,-91,l)
);
},
{
closed = 1;
nodes = (
(10,234,l),
(151,234,l),
(151,373,l),
(10,373,l)
);
}
);
width = 515;
}
);
note = uni0714.medi;
},
{
glyphname = uni0714.init;
lastChange = "2023-01-02 09:26:46 +0000";
layers = (
{
anchors = (
{
name = bottom;
pos = (171,-98);
},
{
name = top;
pos = (-10,773);
}
);
layerId = m01;
shapes = (
{
closed = 1;
nodes = (
(428,-240,l),
(524,-240,l),
(524,-141,l),
(478,-141,l),
(47,693,l),
(-23,659,l),
(277,76,l),
(0,76,ls),
(-21,76,o),
(-39,61,o),
(-39,38,cs),
(-39,14,o),
(-21,0,o),
(0,0,cs),
(306,0,l),
(324,46,l),
(326,46,l),
(428,-152,l)
);
},
{
closed = 1;
nodes = (
(24,156,l),
(106,156,l),
(106,241,l),
(24,241,l)
);
}
);
width = 451;
},
{
anchors = (
{
name = bottom;
pos = (171,-98);
},
{
name = top;
pos = (-29,740);
}
);
layerId = "1C3A187F-9439-4340-B0A6-CD0525AA1AFE";
shapes = (
{
closed = 1;
nodes = (
(438,-235,l),
(486,-235,l),
(486,-187,l),
(454,-187,l),
(19,656,l),
(-4,644,l),
(315,25,l),
(0,25,ls),
(-19,25,o),
(-40,21,o),
(-40,13,cs),
(-40,4,o),
(-19,0,o),
(0,0,cs),
(318,0,l),
(325,18,l),
(327,18,l),
(438,-197,l)
);
},
{
closed = 1;
nodes = (
(35,147,l),
(83,147,l),
(83,195,l),
(35,195,l)
);
}
);
width = 423;
},
{
anchors = (
{
name = bottom;
pos = (185,-98);
},
{
name = top;
pos = (108,797);
}
);
layerId = "DA9A8D32-36F4-433E-897C-B49E872243BC";
shapes = (
{
closed = 1;
nodes = (
(511,-240,l),
(673,-240,l),
(673,-80,l),
(633,-80,l),
(208,743,l),
(54,661,l),
(298,185,l),
(0,185,ls),
(-24,185,o),
(-40,141,o),
(-40,92,cs),
(-40,42,o),
(-24,0,o),
(0,0,cs),
(384,0,l),
(422,81,l),
(426,81,l),
(511,-91,l)
);
},
{
closed = 1;
nodes = (
(10,234,l),
(151,234,l),
(151,373,l),
(10,373,l)
);
}
);
width = 621;
}
);
note = uni0714.init;
},
{
glyphname = uni0715;
lastChange = "2023-01-02 09:26:46 +0000";
layers = (
{
anchors = (
{
name = bottom;
pos = (244,-257);
},
{
name = top;
pos = (248,505);
}
);
layerId = m01;
shapes = (
{
closed = 1;
nodes = (
(78,0,l),
(314,0,ls),
(429,0,o),
(444,71,o),
(444,136,cs),
(444,317,o),
(366,430,o),
(212,430,cs),
(162,430,o),
(120,418,o),
(90,399,c),
(90,331,l),
(130,350,o),
(168,356,o),
(208,356,cs),
(317,356,o),
(370,267,o),
(370,137,cs),
(370,102,o),
(361,76,o),
(313,76,cs),
(78,76,l)
);
},
{
closed = 1;
nodes = (
(203,-178,l),
(285,-178,l),
(285,-93,l),
(203,-93,l)
);
}
);
width = 521;
},
{
anchors = (
{
name = bottom;
pos = (228,-256);
},
{
name = top;
pos = (221,507);
}
);
layerId = "1C3A187F-9439-4340-B0A6-CD0525AA1AFE";
shapes = (
{
closed = 1;
nodes = (
(88,0,l),
(295,0,ls),
(388,0,o),
(400,59,o),
(400,112,cs),
(400,278,o),
(330,386,o),
(193,386,cs),
(160,386,o),
(123,377,o),
(100,364,c),
(100,340,l),
(131,354,o),
(167,361,o),
(193,361,cs),
(319,361,o),
(375,257,o),
(375,112,cs),
(375,63,o),
(364,25,o),
(294,25,cs),
(88,25,l)
);
},
{
closed = 1;
nodes = (
(204,-165,l),
(252,-165,l),
(252,-117,l),
(204,-117,l)
);
}
);
width = 482;
},
{
anchors = (
{
name = bottom;
pos = (265,-300);
},
{
name = top;
pos = (285,589);
}
);
layerId = "DA9A8D32-36F4-433E-897C-B49E872243BC";
shapes = (
{
closed = 1;
nodes = (
(72,0,l),
(337,0,ls),
(472,0,o),
(526,87,o),
(526,176,cs),
(526,388,o),
(403,493,o),
(228,493,cs),
(187,493,o),
(122,480,o),
(86,447,c),
(86,297,l),
(136,315,o),
(171,318,o),
(215,318,cs),
(288,318,o),
(364,283,o),
(364,215,cs),
(364,199,o),
(362,185,o),
(340,185,cs),
(72,185,l)
);
},
{
closed = 1;
nodes = (
(197,-221,l),
(338,-221,l),
(338,-82,l),
(197,-82,l)
);
}
);
width = 584;
}
);
note = uni0715;
unicode = 1813;
},
{
glyphname = uni0715.fina;
lastChange = "2023-01-02 09:26:46 +0000";
layers = (
{
anchors = (
{
name = bottom;
pos = (243,-257);
},
{
name = top;
pos = (248,505);
}
);
layerId = m01;
shapes = (
{
closed = 1;
nodes = (
(518,76,l),
(478,76,o),
(469,86,o),
(462,121,cs),
(441,231,ls),
(416,364,o),
(341,430,o),
(214,430,cs),
(166,430,o),
(114,417,o),
(90,398,c),
(90,331,l),
(119,346,o),
(166,356,o),
(199,356,cs),
(302,356,o),
(355,306,o),
(375,191,cs),
(387,121,l),
(383,96,o),
(352,76,o),
(291,76,cs),
(78,76,l),
(78,0,l),
(286,0,ls),
(329,0,o),
(388,10,o),
(412,48,c),
(414,48,l),
(432,14,o),
(462,0,o),
(518,0,c)
);
},
{
closed = 1;
nodes = (
(203,-178,l),
(285,-178,l),
(285,-93,l),
(203,-93,l)
);
}
);
width = 518;
},
{
anchors = (
{
name = bottom;
pos = (243,-256);
},
{
name = top;
pos = (221,507);
}
);
layerId = "1C3A187F-9439-4340-B0A6-CD0525AA1AFE";
shapes = (
{
closed = 1;
nodes = (
(472,25,l),
(434,25,o),
(417,36,o),
(408,84,cs),
(386,207,ls),
(366,318,o),
(305,386,o),
(193,386,cs),
(160,386,o),
(123,377,o),
(100,364,c),
(100,340,l),
(131,354,o),
(167,361,o),
(193,361,cs),
(307,361,o),
(347,282,o),
(364,186,cs),
(383,77,l),
(375,46,o),
(348,25,o),
(294,25,cs),
(88,25,l),
(88,0,l),
(295,0,ls),
(349,0,o),
(377,18,o),
(391,44,c),
(393,44,l),
(405,9,o),
(430,0,o),
(472,0,c)
);
},
{
closed = 1;
nodes = (
(210,-165,l),
(258,-165,l),
(258,-117,l),
(210,-117,l)
);
}
);
width = 472;
},
{
anchors = (
{
name = bottom;
pos = (262,-300);
},
{
name = top;
pos = (285,588);
}
);
layerId = "DA9A8D32-36F4-433E-897C-B49E872243BC";
shapes = (
{
closed = 1;
nodes = (
(577,185,l),
(542,185,o),
(537,194,o),
(531,223,cs),
(524,255,ls),
(487,425,o),
(375,493,o),
(228,493,cs),
(187,493,o),
(122,480,o),
(86,447,c),
(86,297,l),
(136,315,o),
(171,318,o),
(215,318,cs),
(291,318,o),
(353,290,o),
(369,221,cs),
(373,204,l),
(365,189,o),
(342,185,o),
(269,185,cs),
(72,185,l),
(72,0,l),
(241,0,ls),
(319,0,o),
(384,17,o),
(415,71,c),
(417,71,l),
(451,10,o),
(493,0,o),
(577,0,c)
);
},
{
closed = 1;
nodes = (
(195,-221,l),
(336,-221,l),
(336,-82,l),
(195,-82,l)
);
}
);
width = 577;
}
);
note = uni0715.fina;
},
{
glyphname = uni0716;
lastChange = "2023-01-02 09:26:46 +0000";
layers = (
{
anchors = (
{
name = bottom;
pos = (259,-98);
},
{
name = top;
pos = (248,505);
}
);
layerId = m01;
shapes = (
{
closed = 1;
nodes = (
(78,0,l),
(314,0,ls),
(429,0,o),
(444,71,o),
(444,136,cs),
(444,317,o),
(366,430,o),
(212,430,cs),
(162,430,o),
(120,418,o),
(90,399,c),
(90,331,l),
(130,350,o),
(168,356,o),
(208,356,cs),
(317,356,o),
(370,267,o),
(370,137,cs),
(370,102,o),
(361,76,o),
(313,76,cs),
(78,76,l)
);
}
);
width = 521;
},
{
anchors = (
{
name = bottom;
pos = (242,-98);
},
{
name = top;
pos = (221,507);
}
);
layerId = "1C3A187F-9439-4340-B0A6-CD0525AA1AFE";
shapes = (
{
closed = 1;
nodes = (
(88,0,l),
(295,0,ls),
(388,0,o),
(400,59,o),
(400,112,cs),
(400,278,o),
(330,386,o),
(193,386,cs),
(160,386,o),
(123,377,o),
(100,364,c),
(100,340,l),
(131,354,o),
(167,361,o),
(193,361,cs),
(319,361,o),
(375,257,o),
(375,112,cs),
(375,63,o),
(364,25,o),
(294,25,cs),
(88,25,l)
);
}
);
width = 482;
},
{
anchors = (
{
name = bottom;
pos = (264,-98);
},
{
name = top;
pos = (285,589);
}
);
layerId = "DA9A8D32-36F4-433E-897C-B49E872243BC";
shapes = (
{
closed = 1;
nodes = (
(72,0,l),
(337,0,ls),
(472,0,o),
(526,87,o),
(526,176,cs),
(526,388,o),
(403,493,o),
(228,493,cs),
(187,493,o),
(122,480,o),
(86,447,c),
(86,297,l),
(136,315,o),
(171,318,o),
(215,318,cs),
(288,318,o),
(364,283,o),
(364,215,cs),
(364,199,o),
(362,185,o),
(340,185,cs),
(72,185,l)
);
}
);
width = 584;
}
);
note = uni0716;
unicode = 1814;
},
{
glyphname = uni0716.fina;
lastChange = "2023-01-02 09:26:46 +0000";
layers = (
{
anchors = (
{
name = bottom;
pos = (259,-98);
},
{
name = top;
pos = (248,505);
}
);
layerId = m01;
shapes = (
{
closed = 1;
nodes = (
(518,76,l),
(478,76,o),
(469,86,o),
(462,121,cs),
(441,231,ls),
(416,364,o),
(341,430,o),
(214,430,cs),
(166,430,o),
(114,417,o),
(90,398,c),
(90,331,l),
(119,346,o),
(166,356,o),
(199,356,cs),
(302,356,o),
(355,306,o),
(375,191,cs),
(387,121,l),
(383,96,o),
(352,76,o),
(291,76,cs),
(78,76,l),
(78,0,l),
(286,0,ls),
(329,0,o),
(388,10,o),
(412,48,c),
(414,48,l),
(432,14,o),
(462,0,o),
(518,0,c)
);
}
);
width = 518;
},
{
anchors = (
{
name = bottom;
pos = (240,-98);
},
{
name = top;
pos = (221,507);
}
);
layerId = "1C3A187F-9439-4340-B0A6-CD0525AA1AFE";
shapes = (
{
closed = 1;
nodes = (
(472,25,l),
(434,25,o),
(417,36,o),
(408,84,cs),
(386,207,ls),
(366,318,o),
(305,386,o),
(193,386,cs),
(160,386,o),
(123,377,o),
(100,364,c),
(100,340,l),
(131,354,o),
(167,361,o),
(193,361,cs),
(307,361,o),
(347,282,o),
(364,186,cs),
(383,77,l),
(375,46,o),
(348,25,o),
(294,25,cs),
(88,25,l),
(88,0,l),
(295,0,ls),
(349,0,o),
(377,18,o),
(391,44,c),
(393,44,l),
(405,9,o),
(430,0,o),
(472,0,c)
);
}
);
width = 472;
},
{
anchors = (
{
name = bottom;
pos = (265,-97);
},
{
name = top;
pos = (285,589);
}
);
layerId = "DA9A8D32-36F4-433E-897C-B49E872243BC";
shapes = (
{
closed = 1;
nodes = (
(577,185,l),
(542,185,o),
(537,194,o),
(531,223,cs),
(524,255,ls),
(487,425,o),
(375,493,o),
(228,493,cs),
(187,493,o),
(122,480,o),
(86,447,c),
(86,297,l),
(136,315,o),
(171,318,o),
(215,318,cs),
(291,318,o),
(353,290,o),
(369,221,cs),
(373,204,l),
(365,189,o),
(342,185,o),
(269,185,cs),
(72,185,l),
(72,0,l),
(241,0,ls),
(319,0,o),
(384,17,o),
(415,71,c),
(417,71,l),
(451,10,o),
(493,0,o),
(577,0,c)
);
}
);
width = 577;
}
);
note = uni0716.fina;
},
{
glyphname = uni0717;
lastChange = "2023-01-02 10:20:07 +0000";
layers = (
{
anchors = (
{
name = bottom;
pos = (398,-98);
},
{
name = top;
pos = (405,523);
}
);
layerId = m01;
shapes = (
{
closed = 1;
nodes = (
(619,0,l),
(687,0,l),
(687,434,l),
(678,431,o),
(651,429,o),
(606,428,cs),
(561,427,o),
(514,426,o),
(465,426,cs),
(224,426,ls),
(177,426,o),
(140,406,o),
(111,366,cs),
(82,327,o),
(68,280,o),
(68,226,cs),
(68,159,o),
(85,103,o),
(122,62,cs),
(159,20,o),
(207,-1,o),
(267,-1,cs),
(447,-1,o),
(478,133,o),
(478,290,cs),
(478,307,o),
(475,333,o),
(472,353,c),
(521,354,o),
(570,355,o),
(619,356,c)
);
},
{
closed = 1;
nodes = (
(403,353,l),
(407,336,o),
(409,312,o),
(409,292,cs),
(409,169,o),
(395,74,o),
(275,74,cs),
(188,74,o),
(142,129,o),
(142,233,cs),
(142,301,o),
(181,353,o),
(229,353,cs)
);
}
);
width = 755;
},
{
anchors = (
{
name = bottom;
pos = (373,-101);
},
{
name = top;
pos = (381,496);
}
);
layerId = "1C3A187F-9439-4340-B0A6-CD0525AA1AFE";
shapes = (
{
closed = 1;
nodes = (
(609,0,l),
(635,0,l),
(635,384,l),
(624,382,o),
(597,380,o),
(575,379,cs),
(521,377,o),
(486,377,o),
(438,377,cs),
(224,377,ls),
(178,377,o),
(143,359,o),
(121,333,cs),
(92,299,o),
(80,250,o),
(80,202,cs),
(80,141,o),
(94,91,o),
(126,53,cs),
(157,17,o),
(204,0,o),
(256,0,cs),
(416,0,o),
(431,140,o),
(431,266,cs),
(431,290,o),
(428,327,o),
(423,352,c),
(485,352,o),
(543,353,o),
(609,356,c)
);
},
{
closed = 1;
nodes = (
(397,352,l),
(403,331,o),
(406,288,o),
(406,266,cs),
(406,144,o),
(389,25,o),
(257,25,cs),
(159,25,o),
(107,89,o),
(107,209,cs),
(107,291,o),
(150,352,o),
(219,352,cs)
);
}
);
width = 713;
},
{
anchors = (
{
name = bottom;
pos = (436,-98);
},
{
name = top;
pos = (439,598);
}
);
layerId = "DA9A8D32-36F4-433E-897C-B49E872243BC";
shapes = (
{
closed = 1;
nodes = (
(621,0,l),
(780,0,l),
(780,510,l),
(763,506,o),
(721,504,o),
(664,502,cs),
(624,501,o),
(577,500,o),
(525,500,cs),
(280,500,ls),
(193,500,o),
(132,464,o),
(97,411,cs),
(69,368,o),
(56,315,o),
(56,261,cs),
(56,196,o),
(76,129,o),
(116,78,cs),
(154,30,o),
(212,-3,o),
(290,-3,cs),
(480,-3,o),
(549,132,o),
(549,303,cs),
(549,306,o),
(549,328,o),
(548,340,c),
(572.333,340,o),
(596.667,340,o),
(621,340,c)
);
},
{
closed = 1;
nodes = (
(398,340,l),
(401,324,o),
(401,312,o),
(401,310,cs),
(401,235,o),
(386,167,o),
(300,167,cs),
(253,167,o),
(214,194,o),
(214,255,cs),
(214,296,o),
(234,340,o),
(290,340,cs)
);
}
);
width = 838;
}
);
note = uni0717;
unicode = 1815;
},
{
glyphname = uni0717.fina;
lastChange = "2023-01-02 10:20:11 +0000";
layers = (
{
anchors = (
{
name = bottom;
pos = (399,-98);
},
{
name = top;
pos = (402,523);
}
);
layerId = m01;
shapes = (
{
closed = 1;
nodes = (
(619,0,l),
(792,0,l),
(792,76,l),
(687,76,l),
(687,434,l),
(678,431,o),
(651,429,o),
(606,428,cs),
(561,427,o),
(514,426,o),
(465,426,cs),
(224,426,ls),
(177,426,o),
(140,406,o),
(111,366,cs),
(82,327,o),
(68,280,o),
(68,226,cs),
(68,159,o),
(86,104,o),
(122,62,cs),
(158,20,o),
(207,-1,o),
(267,-1,cs),
(447,-1,o),
(478,133,o),
(478,290,cs),
(478,307,o),
(475,333,o),
(472,353,c),
(521,354,o),
(570,355,o),
(619,356,c)
);
},
{
closed = 1;
nodes = (
(403,353,l),
(407,336,o),
(409,312,o),
(409,292,cs),
(409,169,o),
(395,74,o),
(275,74,cs),
(188,74,o),
(142,129,o),
(142,233,cs),
(142,301,o),
(181,353,o),
(229,353,cs)
);
}
);
width = 792;
},
{
anchors = (
{
name = bottom;
pos = (372,-98);
},
{
name = top;
pos = (383,495);
}
);
layerId = "1C3A187F-9439-4340-B0A6-CD0525AA1AFE";
shapes = (
{
closed = 1;
nodes = (
(609,0,l),
(750,0,l),
(750,25,l),
(635,25,l),
(635,384,l),
(624,382,o),
(597,380,o),
(575,379,cs),
(521,377,o),
(486,377,o),
(438,377,cs),
(224,377,ls),
(178,377,o),
(143,359,o),
(121,333,cs),
(92,299,o),
(80,250,o),
(80,202,cs),
(80,141,o),
(94,91,o),
(126,53,cs),
(157,17,o),
(204,0,o),
(256,0,cs),
(416,0,o),
(431,140,o),
(431,266,cs),
(431,290,o),
(428,327,o),
(423,352,c),
(485,352,o),
(543,353,o),
(609,356,c)
);
},
{
closed = 1;
nodes = (
(397,352,l),
(403,331,o),
(406,288,o),
(406,266,cs),
(406,144,o),
(389,25,o),
(257,25,cs),
(159,25,o),
(107,89,o),
(107,209,cs),
(107,291,o),
(150,352,o),
(219,352,cs)
);
}
);
width = 750;
},
{
anchors = (
{
name = bottom;
pos = (436,-99);
},
{
name = top;
pos = (440,598);
}
);
layerId = "DA9A8D32-36F4-433E-897C-B49E872243BC";
shapes = (
{
closed = 1;
nodes = (
(621,0,l),
(875,0,l),
(875,185,l),
(780,185,l),
(780,510,l),
(763,506,o),
(721,504,o),
(664,502,cs),
(624,501,o),
(577,500,o),
(525,500,cs),
(280,500,ls),
(193,500,o),
(132,464,o),
(97,411,cs),
(69,368,o),
(56,315,o),
(56,261,cs),
(56,196,o),
(76,129,o),
(116,78,cs),
(154,29,o),
(212,-3,o),
(290,-3,cs),
(480,-3,o),
(549,132,o),
(549,303,cs),
(549,306,o),
(549,328,o),
(548,340,c),
(572.333,340,o),
(596.667,340,o),
(621,340,c)
);
},
{
closed = 1;
nodes = (
(398,340,l),
(401,324,o),
(401,312,o),
(401,310,cs),
(401,235,o),
(386,167,o),
(300,167,cs),
(253,167,o),
(214,194,o),
(214,255,cs),
(214,296,o),
(234,340,o),
(290,340,cs)
);
}
);
width = 875;
}
);
note = uni0717.fina;
},
{
glyphname = uni0718;
lastChange = "2023-01-02 09:26:46 +0000";
layers = (
{
anchors = (
{
name = bottom;
pos = (289,-98);
},
{
name = top;
pos = (292,555);
}
);
layerId = m01;
shapes = (
{
closed = 1;
nodes = (
(453,-5,o),
(509,101,o),
(509,208,cs),
(509,280,o),
(489,338,o),
(450,383,cs),
(411,428,o),
(359,451,o),
(292,451,cs),
(225,451,o),
(170,428,o),
(129,382,cs),
(88,337,o),
(68,279,o),
(68,208,cs),
(68,73,o),
(149,-5,o),
(289,-5,cs)
);
},
{
closed = 1;
nodes = (
(185,67,o),
(142,118,o),
(142,209,cs),
(142,312,o),
(198,378,o),
(289,378,cs),
(380,378,o),
(436,312,o),
(436,209,cs),
(436,118,o),
(390,67,o),
(289,67,cs)
);
}
);
width = 578;
},
{
anchors = (
{
name = bottom;
pos = (271,-98);
},
{
name = top;
pos = (272,533);
}
);
layerId = "1C3A187F-9439-4340-B0A6-CD0525AA1AFE";
shapes = (
{
closed = 1;
nodes = (
(394,-5,o),
(462,64,o),
(462,188,cs),
(462,254,o),
(445,306,o),
(411,347,cs),
(378,387,o),
(334,408,o),
(276,408,cs),
(216,408,o),
(168,389,o),
(134,348,cs),
(99,306,o),
(80,250,o),
(80,185,cs),
(80,65,o),
(144,-5,o),
(273,-5,cs)
);
},
{
closed = 1;
nodes = (
(158,20,o),
(106,79,o),
(106,187,cs),
(106,305,o),
(170,383,o),
(273,383,cs),
(375,383,o),
(436,305,o),
(436,187,cs),
(436,79,o),
(382,20,o),
(273,20,cs)
);
}
);
width = 542;
},
{
anchors = (
{
name = bottom;
pos = (323,-98);
},
{
name = top;
pos = (322,606);
}
);
layerId = "DA9A8D32-36F4-433E-897C-B49E872243BC";
shapes = (
{
closed = 1;
nodes = (
(549,-5,o),
(579,175,o),
(579,234,cs),
(579,315,o),
(551,382,o),
(509,431,cs),
(461,486,o),
(397,510,o),
(317,510,cs),
(240,510,o),
(173,479,o),
(127,429,cs),
(82,380,o),
(56,312,o),
(56,243,cs),
(56,77,o),
(163,-5,o),
(314,-5,cs)
);
},
{
closed = 1;
nodes = (
(240,161,o),
(214,204,o),
(214,244,cs),
(214,303,o),
(253,342,o),
(314,342,cs),
(377,342,o),
(421,301,o),
(421,242,cs),
(421,196,o),
(393,161,o),
(314,161,cs)
);
}
);
width = 637;
}
);
note = uni0718;
unicode = 1816;
},
{
glyphname = uni0718.fina;
lastChange = "2023-01-02 09:26:46 +0000";
layers = (
{
anchors = (
{
name = bottom;
pos = (289,-98);
},
{
name = top;
pos = (292,549);
}
);
layerId = m01;
shapes = (
{
closed = 1;
nodes = (
(573,76,l),
(540,76,o),
(503,97,o),
(499,132,c),
(506,155,o),
(509,180,o),
(509,208,cs),
(509,280,o),
(489,338,o),
(450,383,cs),
(411,428,o),
(359,451,o),
(292,451,cs),
(225,451,o),
(170,428,o),
(129,382,cs),
(88,337,o),
(68,279,o),
(68,208,cs),
(68,73,o),
(149,-5,o),
(289,-5,cs),
(364,-5,o),
(417,16,o),
(454,55,c),
(458,55,l),
(477,18,o),
(518,0,o),
(573,0,c)
);
},
{
closed = 1;
nodes = (
(185,67,o),
(142,118,o),
(142,209,cs),
(142,312,o),
(198,378,o),
(289,378,cs),
(380,378,o),
(436,312,o),
(436,209,cs),
(436,118,o),
(390,67,o),
(289,67,cs)
);
}
);
width = 573;
},
{
anchors = (
{
name = bottom;
pos = (270,-99);
},
{
name = top;
pos = (272,533);
}
);
layerId = "1C3A187F-9439-4340-B0A6-CD0525AA1AFE";
shapes = (
{
closed = 1;
nodes = (
(536,25,l),
(493,25,o),
(440,28,o),
(432,70,c),
(451,101,o),
(462,140,o),
(462,188,cs),
(462,254,o),
(445,305,o),
(411,347,cs),
(378,387,o),
(334,408,o),
(276,408,cs),
(216,408,o),
(168,388,o),
(134,348,cs),
(98,306,o),
(80,250,o),
(80,185,cs),
(80,65,o),
(144,-5,o),
(273,-5,cs),
(335,-5,o),
(383,13,o),
(415,47,c),
(418,47,l),
(433,7,o),
(481,0,o),
(536,0,c)
);
},
{
closed = 1;
nodes = (
(158,20,o),
(106,79,o),
(106,187,cs),
(106,305,o),
(170,383,o),
(273,383,cs),
(375,383,o),
(436,305,o),
(436,187,cs),
(436,79,o),
(382,20,o),
(273,20,cs)
);
}
);
width = 536;
},
{
anchors = (
{
name = bottom;
pos = (325,-96);
},
{
name = top;
pos = (321,604);
}
);
layerId = "DA9A8D32-36F4-433E-897C-B49E872243BC";
shapes = (
{
closed = 1;
nodes = (
(637,185,l),
(607,185,o),
(584,191,o),
(577,209,c),
(578,215,o),
(579,224,o),
(579,234,cs),
(579,315,o),
(552,382,o),
(509,431,cs),
(461,486,o),
(397,510,o),
(317,510,cs),
(240,510,o),
(173,479,o),
(127,429,cs),
(82,380,o),
(56,312,o),
(56,243,cs),
(56,77,o),
(163,-5,o),
(314,-5,cs),
(409,-5,o),
(477,18,o),
(514,69,c),
(518,69,l),
(547,9,o),
(601,0,o),
(637,0,c)
);
},
{
closed = 1;
nodes = (
(240,161,o),
(214,204,o),
(214,244,cs),
(214,303,o),
(253,342,o),
(314,342,cs),
(377,342,o),
(421,301,o),
(421,242,cs),
(421,196,o),
(393,161,o),
(314,161,cs)
);
}
);
width = 637;
}
);
note = uni0718.fina;
},
{
glyphname = uni0719;
lastChange = "2023-01-02 10:21:34 +0000";
layers = (
{
anchors = (
{
name = bottom;
pos = (159,-173);
},
{
name = top;
pos = (152,485);
}
);
layerId = m01;
shapes = (
{
closed = 1;
nodes = (
(154,-63,l),
(209,-78,l),
(215,2,ls),
(220,74,o),
(225,154,o),
(225,238,cs),
(225,337,o),
(205,375,o),
(157,375,cs),
(110,375,o),
(83,331,o),
(83,230,cs),
(83,135,o),
(104,67,o),
(159,26,c)
);
},
{
closed = 1;
nodes = (
(161,230,l),
(161,230,o),
(161,230,o),
(161,230,cs),
(161,230,o),
(161,230,o),
(161,230,cs),
(161,230,o),
(161,230,o),
(161,230,cs),
(161,230,o),
(161,230,o),
(161,230,c)
);
}
);
width = 293;
},
{
anchors = (
{
name = bottom;
pos = (127,-172);
},
{
name = top;
pos = (121,443);
}
);
layerId = "1C3A187F-9439-4340-B0A6-CD0525AA1AFE";
shapes = (
{
closed = 1;
nodes = (
(122,-60,l),
(146,-67,l),
(149,-18,ls),
(153,46,o),
(157,131,o),
(157,213,cs),
(157,293,o),
(147,314,o),
(120,314,cs),
(92,314,o),
(80,290,o),
(80,210,cs),
(80,124,o),
(88,50,o),
(126,19,c)
);
},
{
closed = 1;
nodes = (
(128,57,l),
(111,78,o),
(104,150,o),
(104,210,cs),
(104,279,o),
(111,290,o),
(120,290,cs),
(131,290,o),
(133,274,o),
(133,213,cs),
(133,160,o),
(132,106,o),
(130,57,c)
);
}
);
width = 237;
},
{
anchors = (
{
name = bottom;
pos = (219,-175);
},
{
name = top;
pos = (209,580);
}
);
layerId = "DA9A8D32-36F4-433E-897C-B49E872243BC";
shapes = (
{
closed = 1;
nodes = (
(177,-71,l),
(302,-95,l),
(316,48,ls),
(323,123,o),
(327,197,o),
(327,277,cs),
(327,411,o),
(288,480,o),
(203,480,cs),
(123,480,o),
(70,394,o),
(70,256,cs),
(70,148,o),
(110,82,o),
(182,39,c)
);
},
{
closed = 1;
nodes = (
(201,260,l),
(201,260,o),
(201,260,o),
(201,260,cs),
(201,260,o),
(201,260,o),
(201,260,cs),
(201,260,o),
(201,260,o),
(201,260,cs),
(201,260,o),
(201,260,o),
(201,260,c)
);
}
);
width = 385;
}
);
note = uni0719;
unicode = 1817;
},
{
glyphname = uni0719.fina;
lastChange = "2023-01-02 10:21:43 +0000";
layers = (
{
anchors = (
{
name = bottom;
pos = (167,-173);
},
{
name = top;
pos = (153,485);
}
);
layerId = m01;
shapes = (
{
closed = 1;
nodes = (
(317,0,l),
(317,76,l),
(295,76,ls),
(270,76,o),
(244,79,o),
(221,84,c),
(224,131,o),
(225,178,o),
(225,238,cs),
(225,337,o),
(205,375,o),
(157,375,cs),
(110,375,o),
(83,331,o),
(83,230,cs),
(83,135,o),
(104,67,o),
(159,26,c),
(154,-63,l),
(209,-78,l),
(216,10,l),
(245,2,o),
(279,0,o),
(295,0,cs)
);
},
{
closed = 1;
nodes = (
(161,230,l),
(161,230,o),
(161,230,o),
(161,230,cs),
(161,230,o),
(161,230,o),
(161,230,cs),
(161,230,o),
(161,230,o),
(161,230,cs),
(161,230,o),
(161,230,o),
(161,230,c)
);
}
);
width = 317;
},
{
anchors = (
{
name = bottom;
pos = (140,-172);
},
{
name = top;
pos = (134,443);
}
);
layerId = "1C3A187F-9439-4340-B0A6-CD0525AA1AFE";
shapes = (
{
closed = 1;
nodes = (
(272,0,l),
(272,25,l),
(262,25,ls),
(235,25,o),
(190,25,o),
(165,37,c),
(167,91,o),
(170,153,o),
(170,213,cs),
(170,293,o),
(160,314,o),
(133,314,cs),
(105,314,o),
(93,290,o),
(93,210,cs),
(93,124,o),
(101,46,o),
(139,19,c),
(135,-60,l),
(159,-67,l),
(164,10,l),
(190,1,o),
(234,0,o),
(263,0,cs)
);
},
{
closed = 1;
nodes = (
(141,49,l),
(124,70,o),
(117,150,o),
(117,210,cs),
(117,279,o),
(124,290,o),
(133,290,cs),
(144,290,o),
(146,274,o),
(146,213,cs),
(146,160,o),
(145,98,o),
(143,49,c)
);
}
);
width = 272;
},
{
anchors = (
{
name = bottom;
pos = (218,-175);
},
{
name = top;
pos = (209,578);
}
);
layerId = "DA9A8D32-36F4-433E-897C-B49E872243BC";
shapes = (
{
closed = 1;
nodes = (
(418,0,l),
(418,185,l),
(410,185,ls),
(390,185,o),
(346,188,o),
(325,195,c),
(327,232,o),
(327,266,o),
(327,276,cs),
(327,410,o),
(288,480,o),
(203,480,cs),
(123,480,o),
(70,394,o),
(70,256,cs),
(70,148,o),
(110,82,o),
(182,39,c),
(177,-71,l),
(302,-95,l),
(313,10,l),
(346,4,o),
(388,0,o),
(412,0,cs)
);
},
{
closed = 1;
nodes = (
(211,270,l),
(211,270,o),
(211,270,o),
(211,270,cs),
(211,270,o),
(211,270,o),
(211,270,cs),
(211,270,o),
(211,270,o),
(211,270,cs),
(211,270,o),
(211,270,o),
(211,270,c)
);
}
);
width = 418;
}
);
note = uni0719.fina;
},
{
glyphname = uni071A;
lastChange = "2023-01-02 09:26:46 +0000";
layers = (
{
anchors = (
{
name = bottom;
pos = (580,-98);
},
{
name = top;
pos = (572,434);
}
);
layerId = m01;
shapes = (
{
closed = 1;
nodes = (
(785,0,l),
(785,78,l),
(699,221,l),
(655,220,l),
(595,75,l),
(588,75,o),
(579,82,o),
(565,105,cs),
(494,221,l),
(450,220,l),
(391,82,l),
(350,76,o),
(299,76,o),
(275,76,cs),
(262,76,ls),
(174,76,o),
(129,89,o),
(94,138,c),
(49,78,l),
(69,30,o),
(136,0,o),
(240,0,cs),
(276,0,ls),
(305,0,o),
(374,1,o),
(431,14,c),
(472,126,l),
(475,126,l),
(511,62,ls),
(535,20,o),
(561,0,o),
(598,0,cs),
(606,0,o),
(619,1,o),
(629,8,c),
(675,126,l),
(678,126,l),
(708,69,ls),
(733,22,o),
(752,0,o),
(778,0,cs)
);
}
);
width = 834;
},
{
anchors = (
{
name = bottom;
pos = (559,-98);
},
{
name = top;
pos = (551,434);
}
);
layerId = "1C3A187F-9439-4340-B0A6-CD0525AA1AFE";
shapes = (
{
closed = 1;
nodes = (
(760,0,l),
(760,23,l),
(660,201,l),
(638,201,l),
(567,25,l),
(559,25,o),
(544,40,o),
(525,73,cs),
(453,201,l),
(431,201,l),
(363,32,l),
(323,26,o),
(280,25,o),
(250,25,cs),
(245,25,ls),
(132,25,o),
(106,34,o),
(77,73,c),
(60,53,l),
(77,23,o),
(108,0,o),
(214,0,cs),
(238,0,ls),
(291,0,o),
(347,2,o),
(380,8,c),
(442,166,l),
(444,166,l),
(500,66,ls),
(525,22,o),
(541,0,o),
(571,0,cs),
(574,0,o),
(578,0,o),
(584,2,c),
(649,166,l),
(651,166,l),
(730,23,ls),
(738,9,o),
(744,0,o),
(757,0,cs)
);
}
);
width = 820;
},
{
anchors = (
{
name = bottom;
pos = (499,-98);
},
{
name = top;
pos = (611,500);
}
);
layerId = "DA9A8D32-36F4-433E-897C-B49E872243BC";
shapes = (
{
closed = 1;
nodes = (
(843,0,l),
(843,186,l),
(745,318,l),
(682,315,l),
(621,181,l),
(604,199,o),
(584,225,o),
(566,249,cs),
(515,318,l),
(452,315,l),
(390,191,l),
(368,185,o),
(343,185,o),
(321,185,cs),
(317,185,ls),
(242,185,o),
(182,189,o),
(132,247,c),
(37,130,l),
(61,45,o),
(156,0,o),
(300,0,cs),
(322,0,ls),
(362,0,o),
(433,5,o),
(461,19,c),
(495,84,l),
(499,84,l),
(511,68,ls),
(543,25,o),
(582,-2,o),
(641,-2,cs),
(650,-2,o),
(665,-1,o),
(680,5,c),
(723,84,l),
(727,84,l),
(739,67,ls),
(778,12,o),
(812,0,o),
(833,0,cs)
);
}
);
width = 893;
}
);
note = uni071A;
unicode = 1818;
},
{
glyphname = uni071A.fina;
lastChange = "2023-01-02 09:26:46 +0000";
layers = (
{
anchors = (
{
name = bottom;
pos = (580,-98);
},
{
name = top;
pos = (571,434);
}
);
layerId = m01;
shapes = (
{
closed = 1;
nodes = (
(697,221,l),
(653,220,l),
(595,75,l),
(588,75,o),
(579,82,o),
(565,105,cs),
(494,221,l),
(450,220,l),
(391,82,l),
(350,76,o),
(299,76,o),
(275,76,cs),
(262,76,ls),
(174,76,o),
(129,89,o),
(94,138,c),
(49,78,l),
(69,30,o),
(136,0,o),
(240,0,cs),
(276,0,ls),
(305,0,o),
(374,1,o),
(431,14,c),
(472,126,l),
(475,126,l),
(511,62,ls),
(535,20,o),
(561,0,o),
(598,0,cs),
(606,0,o),
(619,1,o),
(629,8,c),
(673,126,l),
(676,126,l),
(709,69,ls),
(735,24,o),
(761,0,o),
(821,0,c),
(821,76,l),
(787,76,o),
(776,91,o),
(761,115,cs)
);
}
);
width = 821;
},
{
anchors = (
{
name = bottom;
pos = (558,-98);
},
{
name = top;
pos = (554,434);
}
);
layerId = "1C3A187F-9439-4340-B0A6-CD0525AA1AFE";
shapes = (
{
closed = 1;
nodes = (
(660,201,l),
(638,201,l),
(567,25,l),
(559,25,o),
(545,40,o),
(526,73,cs),
(453,201,l),
(431,201,l),
(363,32,l),
(323,26,o),
(280,25,o),
(250,25,cs),
(245,25,ls),
(132,25,o),
(106,34,o),
(77,73,c),
(60,53,l),
(77,23,o),
(108,0,o),
(214,0,cs),
(228,0,ls),
(281,0,o),
(347,2,o),
(380,8,c),
(442,166,l),
(444,166,l),
(500,66,ls),
(525,22,o),
(541,0,o),
(571,0,cs),
(574,0,o),
(578,0,o),
(584,2,c),
(649,166,l),
(651,166,l),
(702,65,ls),
(724,22,o),
(737,0,o),
(793,0,c),
(793,25,l),
(764,25,o),
(752,27,o),
(729,71,cs)
);
}
);
width = 793;
},
{
anchors = (
{
name = bottom;
pos = (499,-98);
},
{
name = top;
pos = (609,500);
}
);
layerId = "DA9A8D32-36F4-433E-897C-B49E872243BC";
shapes = (
{
closed = 1;
nodes = (
(740,318,l),
(677,315,l),
(621,181,l),
(615,183,o),
(603,199,o),
(586,222,cs),
(515,318,l),
(452,315,l),
(390,191,l),
(368,185,o),
(343,185,o),
(321,185,cs),
(317,185,ls),
(242,185,o),
(182,189,o),
(132,247,c),
(37,130,l),
(61,45,o),
(156,0,o),
(300,0,cs),
(322,0,ls),
(362,0,o),
(433,5,o),
(461,19,c),
(495,84,l),
(499,84,l),
(511,68,ls),
(543,25,o),
(572,-2,o),
(636,-2,cs),
(651,-2,o),
(669,0,o),
(683,5,c),
(720,84,l),
(724,84,l),
(738,67,ls),
(785,7,o),
(825,0,o),
(881,0,c),
(881,185,l),
(840,185,o),
(831,196,o),
(792,248,cs)
);
}
);
width = 881;
}
);
note = uni071A.fina;
},
{
glyphname = uni071A.medi;
lastChange = "2023-01-02 09:26:46 +0000";
layers = (
{
anchors = (
{
name = bottom;
pos = (262,-98);
},
{
name = top;
pos = (264,433);
}
);
layerId = m01;
shapes = (
{
closed = 1;
nodes = (
(29,0,o),
(70,0,o),
(107,14,c),
(148,126,l),
(151,126,l),
(187,62,ls),
(211,20,o),
(237,0,o),
(274,0,cs),
(282,0,o),
(295,1,o),
(305,8,c),
(349,126,l),
(352,126,l),
(385,69,ls),
(411,24,o),
(437,0,o),
(497,0,c),
(497,76,l),
(463,76,o),
(452,91,o),
(437,115,cs),
(373,221,l),
(329,220,l),
(271,75,l),
(264,75,o),
(255,82,o),
(241,105,cs),
(170,221,l),
(126,220,l),
(69,82,l),
(58,76,o),
(24,76,o),
(0,76,cs),
(-21,76,o),
(-39,61,o),
(-39,38,cs),
(-39,14,o),
(-21,0,o),
(0,0,cs)
);
}
);
width = 497;
},
{
anchors = (
{
name = bottom;
pos = (263,-98);
},
{
name = top;
pos = (254,431);
}
);
layerId = "1C3A187F-9439-4340-B0A6-CD0525AA1AFE";
shapes = (
{
closed = 1;
nodes = (
(22,0,o),
(49,0,o),
(82,4,c),
(145,166,l),
(147,166,l),
(203,66,ls),
(228,22,o),
(244,0,o),
(274,0,cs),
(277,0,o),
(281,0,o),
(287,2,c),
(352,166,l),
(354,166,l),
(405,65,ls),
(427,22,o),
(440,0,o),
(496,0,c),
(496,25,l),
(467,25,o),
(455,27,o),
(432,71,cs),
(363,201,l),
(341,201,l),
(270,25,l),
(262,25,o),
(248,40,o),
(229,73,cs),
(156,201,l),
(134,201,l),
(65,28,l),
(46,25,o),
(15,25,o),
(0,25,cs),
(-19,25,o),
(-40,21,o),
(-40,13,cs),
(-40,4,o),
(-19,0,o),
(0,0,cs)
);
}
);
width = 496;
},
{
anchors = (
{
name = bottom;
pos = (279,-102);
},
{
name = top;
pos = (279,500);
}
);
layerId = "DA9A8D32-36F4-433E-897C-B49E872243BC";
shapes = (
{
closed = 1;
nodes = (
(40,0,o),
(104,5,o),
(132,19,c),
(166,84,l),
(170,84,l),
(182,68,ls),
(214,25,o),
(243,-2,o),
(307,-2,cs),
(322,-2,o),
(340,0,o),
(354,5,c),
(391,84,l),
(395,84,l),
(409,67,ls),
(456,7,o),
(496,0,o),
(552,0,c),
(552,185,l),
(511,185,o),
(502,196,o),
(463,248,cs),
(411,318,l),
(348,315,l),
(292,181,l),
(281,190,o),
(274,199,o),
(256,223,cs),
(186,318,l),
(123,315,l),
(61,191,l),
(47,185,o),
(19,185,o),
(0,185,cs),
(-24,185,o),
(-40,141,o),
(-40,92,cs),
(-40,42,o),
(-24,0,o),
(0,0,cs)
);
}
);
width = 552;
}
);
note = uni071A.medi;
},
{
glyphname = uni071A.init;
lastChange = "2023-01-02 09:26:46 +0000";
layers = (
{
anchors = (
{
name = bottom;
pos = (263,-98);
},
{
name = top;
pos = (264,432);
}
);
layerId = m01;
shapes = (
{
closed = 1;
nodes = (
(351,126,l),
(354,126,l),
(384,69,ls),
(409,22,o),
(428,0,o),
(454,0,cs),
(461,0,l),
(461,76,l),
(375,221,l),
(331,220,l),
(271,75,l),
(264,75,o),
(255,82,o),
(241,105,cs),
(170,221,l),
(126,220,l),
(69,82,l),
(58,76,o),
(24,76,o),
(0,76,cs),
(-21,76,o),
(-39,61,o),
(-39,38,cs),
(-39,14,o),
(-21,0,o),
(0,0,cs),
(29,0,o),
(70,0,o),
(107,14,c),
(149,126,l),
(152,126,l),
(188,62,ls),
(212,20,o),
(237,0,o),
(274,0,cs),
(282,0,o),
(295,1,o),
(305,8,c)
);
}
);
width = 510;
},
{
anchors = (
{
name = bottom;
pos = (263,-98);
},
{
name = top;
pos = (255,433);
}
);
layerId = "1C3A187F-9439-4340-B0A6-CD0525AA1AFE";
shapes = (
{
closed = 1;
nodes = (
(352,166,l),
(354,166,l),
(433,23,ls),
(441,9,o),
(447,0,o),
(460,0,cs),
(463,0,l),
(463,23,l),
(363,201,l),
(341,201,l),
(270,25,l),
(262,25,o),
(248,40,o),
(229,73,cs),
(156,201,l),
(134,201,l),
(65,28,l),
(46,25,o),
(15,25,o),
(0,25,cs),
(-19,25,o),
(-40,21,o),
(-40,13,cs),
(-40,4,o),
(-19,0,o),
(0,0,cs),
(22,0,o),
(49,0,o),
(82,4,c),
(145,166,l),
(147,166,l),
(203,66,ls),
(228,22,o),
(244,0,o),
(274,0,cs),
(277,0,o),
(281,0,o),
(287,2,c)
);
}
);
width = 523;
},
{
anchors = (
{
name = bottom;
pos = (289,-100);
},
{
name = top;
pos = (279,500);
}
);
layerId = "DA9A8D32-36F4-433E-897C-B49E872243BC";
shapes = (
{
closed = 1;
nodes = (
(394,84,l),
(398,84,l),
(408,70,ls),
(447,16,o),
(482,0,o),
(504,0,cs),
(514,0,l),
(514,181,l),
(416,318,l),
(353,315,l),
(292,181,l),
(286,182,o),
(265,210,o),
(248,234,cs),
(186,318,l),
(123,315,l),
(61,191,l),
(47,185,o),
(15,185,o),
(0,185,cs),
(-24,185,o),
(-40,141,o),
(-40,92,cs),
(-40,42,o),
(-24,0,o),
(0,0,cs),
(40,0,o),
(104,5,o),
(132,19,c),
(166,84,l),
(170,84,l),
(182,68,ls),
(214,25,o),
(253,-2,o),
(312,-2,cs),
(321,-2,o),
(336,-1,o),
(351,5,c)
);
}
);
width = 564;
}
);
note = uni071A.init;
},
{
glyphname = uni071B;
lastChange = "2023-01-02 09:26:46 +0000";
layers = (
{
anchors = (
{
name = bottom;
pos = (433,-98);
},
{
name = top;
pos = (374,773);
}
);
layerId = m01;
shapes = (
{
closed = 1;
nodes = (
(845,-285,l),
(875,-285,l),
(1056,-3,l),
(1056,76,l),
(746,76,l),
(429,693,l),
(358,659,l),
(659,76,l),
(267,76,ls),
(175,76,o),
(127,90,o),
(94,138,c),
(49,78,l),
(69,30,o),
(136,0,o),
(240,0,cs),
(698,0,l)
);
},
{
closed = 1;
nodes = (
(1002,0,l),
(881,-188,l),
(785,0,l)
);
}
);
width = 1125;
},
{
anchors = (
{
name = bottom;
pos = (418,-98);
},
{
name = top;
pos = (331,736);
}
);
layerId = "1C3A187F-9439-4340-B0A6-CD0525AA1AFE";
shapes = (
{
closed = 1;
nodes = (
(813,-255,l),
(833,-255,l),
(986,0,l),
(986,25,l),
(697,25,l),
(372,656,l),
(349,644,l),
(668,25,l),
(228,25,ls),
(137,25,o),
(106,34,o),
(77,73,c),
(60,53,l),
(77,23,o),
(113,0,o),
(197,0,cs),
(681,0,l)
);
},
{
closed = 1;
nodes = (
(963,0,l),
(827,-226,l),
(710,0,l)
);
}
);
width = 1066;
},
{
anchors = (
{
name = bottom;
pos = (441,-98);
},
{
name = top;
pos = (416,798);
}
);
layerId = "DA9A8D32-36F4-433E-897C-B49E872243BC";
shapes = (
{
closed = 1;
nodes = (
(833,-285,l),
(933,-285,l),
(1125,5,l),
(1125,185,l),
(797,185,l),
(515,743,l),
(360,661,l),
(604,185,l),
(320,185,ls),
(245,185,o),
(177,188,o),
(132,247,c),
(37,130,l),
(61,45,o),
(163,0,o),
(307,0,cs),
(691,0,l)
);
},
{
closed = 1;
nodes = (
(1018,0,l),
(940,-123,l),
(884,0,l)
);
}
);
width = 1175;
}
);
note = uni071B;
unicode = 1819;
},
{
glyphname = uni071B.fina;
lastChange = "2023-01-02 09:26:46 +0000";
layers = (
{
anchors = (
{
name = bottom;
pos = (433,-98);
},
{
name = top;
pos = (373,773);
}
);
layerId = m01;
shapes = (
{
closed = 1;
nodes = (
(845,-285,l),
(875,-285,l),
(1056,-3,l),
(1056,76,l),
(746,76,l),
(429,693,l),
(358,659,l),
(659,76,l),
(267,76,ls),
(175,76,o),
(127,90,o),
(94,138,c),
(49,78,l),
(69,30,o),
(136,0,o),
(240,0,cs),
(698,0,l)
);
},
{
closed = 1;
nodes = (
(1002,0,l),
(881,-188,l),
(785,0,l)
);
}
);
width = 1002;
},
{
anchors = (
{
name = bottom;
pos = (418,-98);
},
{
name = top;
pos = (329,736);
}
);
layerId = "1C3A187F-9439-4340-B0A6-CD0525AA1AFE";
shapes = (
{
closed = 1;
nodes = (
(813,-255,l),
(833,-255,l),
(986,0,l),
(986,25,l),
(697,25,l),
(372,656,l),
(349,644,l),
(668,25,l),
(228,25,ls),
(137,25,o),
(106,34,o),
(77,73,c),
(60,53,l),
(77,23,o),
(113,0,o),
(197,0,cs),
(681,0,l)
);
},
{
closed = 1;
nodes = (
(963,0,l),
(827,-226,l),
(710,0,l)
);
}
);
width = 942;
},
{
anchors = (
{
name = bottom;
pos = (441,-98);
},
{
name = top;
pos = (418,799);
}
);
layerId = "DA9A8D32-36F4-433E-897C-B49E872243BC";
shapes = (
{
closed = 1;
nodes = (
(833,-285,l),
(933,-285,l),
(1125,5,l),
(1125,185,l),
(797,185,l),
(515,743,l),
(360,661,l),
(604,185,l),
(320,185,ls),
(245,185,o),
(177,188,o),
(132,247,c),
(37,130,l),
(61,45,o),
(163,0,o),
(307,0,cs),
(691,0,l)
);
},
{
closed = 1;
nodes = (
(1018,0,l),
(940,-123,l),
(884,0,l)
);
}
);
width = 1061;
}
);
note = uni071B.fina;
},
{
glyphname = uni071B.medi;
lastChange = "2023-01-02 09:26:46 +0000";
layers = (
{
anchors = (
{
name = bottom;
pos = (175,-98);
},
{
name = top;
pos = (-9,771);
}
);
layerId = m01;
shapes = (
{
closed = 1;
nodes = (
(463,-285,l),
(493,-285,l),
(674,-3,l),
(674,76,l),
(364,76,l),
(47,693,l),
(-23,659,l),
(277,76,l),
(0,76,ls),
(-21,76,o),
(-39,61,o),
(-39,38,cs),
(-39,14,o),
(-21,0,o),
(0,0,cs),
(316,0,l)
);
},
{
closed = 1;
nodes = (
(620,0,l),
(500,-188,l),
(403,0,l)
);
}
);
width = 620;
},
{
anchors = (
{
name = bottom;
pos = (175,-98);
},
{
name = top;
pos = (-26,739);
}
);
layerId = "1C3A187F-9439-4340-B0A6-CD0525AA1AFE";
shapes = (
{
closed = 1;
nodes = (
(460,-255,l),
(480,-255,l),
(633,0,l),
(633,25,l),
(344,25,l),
(19,656,l),
(-4,644,l),
(315,25,l),
(0,25,ls),
(-19,25,o),
(-40,21,o),
(-40,13,cs),
(-40,4,o),
(-19,0,o),
(0,0,cs),
(328,0,l)
);
},
{
closed = 1;
nodes = (
(610,0,l),
(474,-226,l),
(357,0,l)
);
}
);
width = 589;
},
{
anchors = (
{
name = bottom;
pos = (192,-98);
},
{
name = top;
pos = (50,800);
}
);
layerId = "DA9A8D32-36F4-433E-897C-B49E872243BC";
shapes = (
{
closed = 1;
nodes = (
(468,-285,l),
(568,-285,l),
(760,5,l),
(760,185,l),
(432,185,l),
(150,743,l),
(-5,661,l),
(239,185,l),
(0,185,ls),
(-24,185,o),
(-40,141,o),
(-40,92,cs),
(-40,42,o),
(-24,0,o),
(0,0,cs),
(326,0,l)
);
},
{
closed = 1;
nodes = (
(653,0,l),
(575,-123,l),
(519,0,l)
);
}
);
width = 696;
}
);
note = uni071B.medi;
},
{
glyphname = uni071B.init;
lastChange = "2023-01-02 09:26:46 +0000";
layers = (
{
anchors = (
{
name = bottom;
pos = (175,-98);
},
{
name = top;
pos = (-9,773);
}
);
layerId = m01;
shapes = (
{
closed = 1;
nodes = (
(463,-285,l),
(493,-285,l),
(674,-3,l),
(674,76,l),
(364,76,l),
(47,693,l),
(-23,659,l),
(277,76,l),
(0,76,ls),
(-21,76,o),
(-39,61,o),
(-39,38,cs),
(-39,14,o),
(-21,0,o),
(0,0,cs),
(316,0,l)
);
},
{
closed = 1;
nodes = (
(620,0,l),
(500,-188,l),
(403,0,l)
);
}
);
width = 743;
},
{
anchors = (
{
name = bottom;
pos = (175,-98);
},
{
name = top;
pos = (-25,736);
}
);
layerId = "1C3A187F-9439-4340-B0A6-CD0525AA1AFE";
shapes = (
{
closed = 1;
nodes = (
(460,-255,l),
(480,-255,l),
(633,0,l),
(633,25,l),
(344,25,l),
(19,656,l),
(-4,644,l),
(315,25,l),
(0,25,ls),
(-19,25,o),
(-40,21,o),
(-40,13,cs),
(-40,4,o),
(-19,0,o),
(0,0,cs),
(328,0,l)
);
},
{
closed = 1;
nodes = (
(610,0,l),
(474,-226,l),
(357,0,l)
);
}
);
width = 713;
},
{
anchors = (
{
name = bottom;
pos = (192,-98);
},
{
name = top;
pos = (51,799);
}
);
layerId = "DA9A8D32-36F4-433E-897C-B49E872243BC";
shapes = (
{
closed = 1;
nodes = (
(468,-285,l),
(568,-285,l),
(760,5,l),
(760,185,l),
(432,185,l),
(150,743,l),
(-5,661,l),
(239,185,l),
(0,185,ls),
(-24,185,o),
(-40,141,o),
(-40,92,cs),
(-40,42,o),
(-24,0,o),
(0,0,cs),
(326,0,l)
);
},
{
closed = 1;
nodes = (
(653,0,l),
(575,-123,l),
(519,0,l)
);
}
);
width = 810;
}
);
note = uni071B.init;
},
{
glyphname = uni071C;
lastChange = "2023-01-02 09:26:46 +0000";
layers = (
{
anchors = (
{
name = bottom;
pos = (433,-98);
},
{
name = top;
pos = (374,773);
}
);
layerId = m01;
shapes = (
{
closed = 1;
nodes = (
(852,-300,l),
(882,-300,l),
(1071,-3,l),
(1071,76,l),
(746,76,l),
(429,693,l),
(358,659,l),
(659,76,l),
(267,76,ls),
(175,76,o),
(127,90,o),
(94,138,c),
(49,78,l),
(69,30,o),
(136,0,o),
(240,0,cs),
(698,0,l)
);
},
{
closed = 1;
nodes = (
(852,-207,o),
(828,-174,o),
(804,-129,cs),
(780,-84,o),
(768,-41,o),
(768,0,c),
(1019,0,l),
(1002,-43,o),
(977,-88,o),
(946,-136,cs),
(915,-183,o),
(891,-214,o),
(875,-227,c)
);
},
{
closed = 1;
nodes = (
(842,-120,l),
(919,-120,l),
(919,-41,l),
(842,-41,l)
);
}
);
width = 1139;
},
{
anchors = (
{
name = bottom;
pos = (418,-98);
},
{
name = top;
pos = (328,737);
}
);
layerId = "1C3A187F-9439-4340-B0A6-CD0525AA1AFE";
shapes = (
{
closed = 1;
nodes = (
(813,-255,l),
(833,-255,l),
(986,0,l),
(986,25,l),
(697,25,l),
(372,656,l),
(349,644,l),
(668,25,l),
(228,25,ls),
(137,25,o),
(106,34,o),
(77,73,c),
(60,53,l),
(77,23,o),
(113,0,o),
(197,0,cs),
(681,0,l)
);
},
{
closed = 1;
nodes = (
(810,-194,o),
(792,-161,o),
(774,-129,cs),
(752,-86,o),
(731,-43,o),
(710,0,c),
(963,0,l),
(938,-42,o),
(912,-84,o),
(887,-126,cs),
(867,-159,o),
(847,-193,o),
(827,-226,c)
);
},
{
closed = 1;
nodes = (
(809,-100,l),
(857,-100,l),
(857,-52,l),
(809,-52,l)
);
}
);
width = 1078;
},
{
anchors = (
{
name = bottom;
pos = (439,-98);
},
{
name = top;
pos = (418,795);
}
);
layerId = "DA9A8D32-36F4-433E-897C-B49E872243BC";
shapes = (
{
closed = 1;
nodes = (
(848,-306,l),
(957,-306,l),
(1148,-10,l),
(1148,185,l),
(797,185,l),
(515,743,l),
(360,661,l),
(604,185,l),
(320,185,ls),
(245,185,o),
(177,188,o),
(132,247,c),
(37,130,l),
(61,45,o),
(163,0,o),
(307,0,cs),
(691,0,l)
);
},
{
closed = 1;
nodes = (
(897,-222,o),
(866,-177,o),
(844,-124,cs),
(828,-85,o),
(816,-40,o),
(816,0,c),
(1063,0,l),
(1056,-36,o),
(1034,-85,o),
(1006,-130,cs),
(978,-175,o),
(946,-216,o),
(921,-236,c)
);
},
{
closed = 1;
nodes = (
(890,-120,l),
(967,-120,l),
(967,-41,l),
(890,-41,l)
);
}
);
width = 1198;
}
);
note = uni071C;
unicode = 1820;
},
{
glyphname = uni071C.fina;
lastChange = "2023-01-02 09:26:46 +0000";
layers = (
{
anchors = (
{
name = bottom;
pos = (433,-98);
},
{
name = top;
pos = (373,773);
}
);
layerId = m01;
shapes = (
{
closed = 1;
nodes = (
(852,-300,l),
(882,-300,l),
(1071,-3,l),
(1071,76,l),
(746,76,l),
(429,693,l),
(358,659,l),
(659,76,l),
(267,76,ls),
(175,76,o),
(127,90,o),
(94,138,c),
(49,78,l),
(69,30,o),
(136,0,o),
(240,0,cs),
(698,0,l)
);
},
{
closed = 1;
nodes = (
(852,-207,o),
(828,-174,o),
(804,-129,cs),
(780,-84,o),
(768,-41,o),
(768,0,c),
(1019,0,l),
(1002,-43,o),
(977,-88,o),
(946,-136,cs),
(915,-183,o),
(891,-214,o),
(875,-227,c)
);
},
{
closed = 1;
nodes = (
(842,-120,l),
(919,-120,l),
(919,-41,l),
(842,-41,l)
);
}
);
width = 1017;
},
{
anchors = (
{
name = bottom;
pos = (420,-98);
},
{
name = top;
pos = (328,740);
}
);
layerId = "1C3A187F-9439-4340-B0A6-CD0525AA1AFE";
shapes = (
{
closed = 1;
nodes = (
(813,-255,l),
(833,-255,l),
(986,0,l),
(986,25,l),
(697,25,l),
(372,656,l),
(349,644,l),
(668,25,l),
(228,25,ls),
(137,25,o),
(106,34,o),
(77,73,c),
(60,53,l),
(77,23,o),
(113,0,o),
(197,0,cs),
(681,0,l)
);
},
{
closed = 1;
nodes = (
(809,-194,o),
(791,-161,o),
(774,-129,cs),
(751,-86,o),
(731,-43,o),
(710,0,c),
(963,0,l),
(938,-42,o),
(912,-84,o),
(887,-126,cs),
(867,-159,o),
(847,-193,o),
(827,-226,c)
);
},
{
closed = 1;
nodes = (
(809,-100,l),
(857,-100,l),
(857,-52,l),
(809,-52,l)
);
}
);
width = 942;
},
{
anchors = (
{
name = bottom;
pos = (442,-98);
},
{
name = top;
pos = (417,797);
}
);
layerId = "DA9A8D32-36F4-433E-897C-B49E872243BC";
shapes = (
{
closed = 1;
nodes = (
(848,-306,l),
(957,-306,l),
(1148,-10,l),
(1148,185,l),
(797,185,l),
(515,743,l),
(360,661,l),
(604,185,l),
(320,185,ls),
(245,185,o),
(177,188,o),
(132,247,c),
(37,130,l),
(61,45,o),
(163,0,o),
(307,0,cs),
(691,0,l)
);
},
{
closed = 1;
nodes = (
(897,-222,o),
(865,-176,o),
(843,-122,cs),
(827,-83,o),
(816,-39,o),
(816,0,c),
(1063,0,l),
(1056,-36,o),
(1034,-85,o),
(1006,-130,cs),
(978,-175,o),
(946,-216,o),
(921,-236,c)
);
},
{
closed = 1;
nodes = (
(890,-120,l),
(967,-120,l),
(967,-41,l),
(890,-41,l)
);
}
);
width = 1084;
}
);
note = uni071C.fina;
},
{
glyphname = uni071C.medi;
lastChange = "2023-01-02 09:26:46 +0000";
layers = (
{
anchors = (
{
name = bottom;
pos = (175,-98);
},
{
name = top;
pos = (-9,771);
}
);
layerId = m01;
shapes = (
{
closed = 1;
nodes = (
(470,-300,l),
(500,-300,l),
(689,-3,l),
(689,76,l),
(364,76,l),
(47,693,l),
(-23,659,l),
(277,76,l),
(0,76,ls),
(-21,76,o),
(-39,61,o),
(-39,38,cs),
(-39,14,o),
(-21,0,o),
(0,0,cs),
(316,0,l)
);
},
{
closed = 1;
nodes = (
(470,-207,o),
(446,-174,o),
(422,-129,cs),
(398,-84,o),
(386,-41,o),
(386,0,c),
(637,0,l),
(620,-43,o),
(596,-89,o),
(565,-136,cs),
(534,-183,o),
(510,-214,o),
(493,-227,c)
);
},
{
closed = 1;
nodes = (
(460,-120,l),
(538,-120,l),
(538,-41,l),
(460,-41,l)
);
}
);
width = 635;
},
{
anchors = (
{
name = bottom;
pos = (175,-98);
},
{
name = top;
pos = (-25,737);
}
);
layerId = "1C3A187F-9439-4340-B0A6-CD0525AA1AFE";
shapes = (
{
closed = 1;
nodes = (
(460,-255,l),
(480,-255,l),
(633,0,l),
(633,25,l),
(344,25,l),
(19,656,l),
(-4,644,l),
(315,25,l),
(0,25,ls),
(-19,25,o),
(-40,21,o),
(-40,13,cs),
(-40,4,o),
(-19,0,o),
(0,0,cs),
(328,0,l)
);
},
{
closed = 1;
nodes = (
(456,-194,o),
(438,-161,o),
(421,-129,cs),
(399,-86,o),
(378,-43,o),
(357,0,c),
(610,0,l),
(585,-42,o),
(559,-84,o),
(534,-126,cs),
(514,-159,o),
(494,-193,o),
(474,-226,c)
);
},
{
closed = 1;
nodes = (
(456,-100,l),
(504,-100,l),
(504,-52,l),
(456,-52,l)
);
}
);
width = 589;
},
{
anchors = (
{
name = bottom;
pos = (175,-98);
},
{
name = top;
pos = (33,799);
}
);
layerId = "DA9A8D32-36F4-433E-897C-B49E872243BC";
shapes = (
{
closed = 1;
nodes = (
(466,-306,l),
(575,-306,l),
(766,-10,l),
(766,185,l),
(415,185,l),
(133,743,l),
(-22,661,l),
(222,185,l),
(0,185,ls),
(-24,185,o),
(-40,141,o),
(-40,92,cs),
(-40,42,o),
(-24,0,o),
(0,0,cs),
(309,0,l)
);
},
{
closed = 1;
nodes = (
(516,-222,o),
(487,-181,o),
(465,-132,cs),
(446,-91,o),
(434,-43,o),
(434,0,c),
(681,0,l),
(674,-36,o),
(651,-85,o),
(624,-130,cs),
(597,-175,o),
(564,-216,o),
(539,-236,c)
);
},
{
closed = 1;
nodes = (
(508,-120,l),
(585,-120,l),
(585,-41,l),
(508,-41,l)
);
}
);
width = 702;
}
);
note = uni071C.medi;
},
{
glyphname = uni071C.init;
lastChange = "2023-01-02 09:26:46 +0000";
layers = (
{
anchors = (
{
name = bottom;
pos = (175,-98);
},
{
name = top;
pos = (-9,773);
}
);
layerId = m01;
shapes = (
{
closed = 1;
nodes = (
(470,-300,l),
(500,-300,l),
(689,-3,l),
(689,76,l),
(364,76,l),
(47,693,l),
(-23,659,l),
(277,76,l),
(0,76,ls),
(-21,76,o),
(-39,61,o),
(-39,38,cs),
(-39,14,o),
(-21,0,o),
(0,0,cs),
(316,0,l)
);
},
{
closed = 1;
nodes = (
(470,-207,o),
(446,-174,o),
(422,-129,cs),
(398,-84,o),
(386,-41,o),
(386,0,c),
(637,0,l),
(620,-43,o),
(596,-89,o),
(565,-136,cs),
(534,-183,o),
(510,-214,o),
(493,-227,c)
);
},
{
closed = 1;
nodes = (
(460,-120,l),
(538,-120,l),
(538,-41,l),
(460,-41,l)
);
}
);
width = 757;
},
{
anchors = (
{
name = bottom;
pos = (175,-98);
},
{
name = top;
pos = (-25,739);
}
);
layerId = "1C3A187F-9439-4340-B0A6-CD0525AA1AFE";
shapes = (
{
closed = 1;
nodes = (
(460,-255,l),
(480,-255,l),
(633,0,l),
(633,25,l),
(344,25,l),
(19,656,l),
(-4,644,l),
(315,25,l),
(0,25,ls),
(-19,25,o),
(-40,21,o),
(-40,13,cs),
(-40,4,o),
(-19,0,o),
(0,0,cs),
(328,0,l)
);
},
{
closed = 1;
nodes = (
(456,-194,o),
(438,-162,o),
(421,-129,cs),
(399,-86,o),
(378,-43,o),
(357,0,c),
(610,0,l),
(585,-42,o),
(559,-84,o),
(534,-126,cs),
(514,-159,o),
(494,-193,o),
(474,-226,c)
);
},
{
closed = 1;
nodes = (
(456,-100,l),
(504,-100,l),
(504,-52,l),
(456,-52,l)
);
}
);
width = 713;
},
{
anchors = (
{
name = bottom;
pos = (175,-98);
},
{
name = top;
pos = (31,799);
}
);
layerId = "DA9A8D32-36F4-433E-897C-B49E872243BC";
shapes = (
{
closed = 1;
nodes = (
(466,-306,l),
(575,-306,l),
(766,-10,l),
(766,185,l),
(415,185,l),
(133,743,l),
(-22,661,l),
(222,185,l),
(0,185,ls),
(-24,185,o),
(-40,141,o),
(-40,92,cs),
(-40,42,o),
(-24,0,o),
(0,0,cs),
(309,0,l)
);
},
{
closed = 1;
nodes = (
(516,-222,o),
(486,-180,o),
(464,-130,cs),
(446,-89,o),
(434,-42,o),
(434,0,c),
(681,0,l),
(674,-36,o),
(652,-85,o),
(624,-130,cs),
(596,-175,o),
(564,-216,o),
(539,-236,c)
);
},
{
closed = 1;
nodes = (
(508,-120,l),
(585,-120,l),
(585,-41,l),
(508,-41,l)
);
}
);
width = 816;
}
);
note = uni071C.init;
},
{
glyphname = uni071D;
lastChange = "2023-01-02 09:26:46 +0000";
layers = (
{
anchors = (
{
name = bottom;
pos = (492,-98);
},
{
name = top;
pos = (468,434);
}
);
layerId = m01;
shapes = (
{
closed = 1;
nodes = (
(579,78,l),
(493,221,l),
(449,220,l),
(389,82,l),
(348,76,o),
(299,76,o),
(275,76,cs),
(262,76,ls),
(174,76,o),
(129,89,o),
(94,138,c),
(49,78,l),
(69,30,o),
(136,0,o),
(240,0,cs),
(270,0,ls),
(299,0,o),
(368,1,o),
(425,14,c),
(472,126,l),
(475,126,l),
(505,69,ls),
(530,22,o),
(546,0,o),
(572,0,cs),
(579,0,l)
);
}
);
width = 628;
},
{
anchors = (
{
name = bottom;
pos = (457,-99);
},
{
name = top;
pos = (445,418);
}
);
layerId = "1C3A187F-9439-4340-B0A6-CD0525AA1AFE";
shapes = (
{
closed = 1;
nodes = (
(546,23,l),
(454,186,l),
(431,186,l),
(363,32,l),
(323,26,o),
(280,25,o),
(250,25,cs),
(245,25,ls),
(132,25,o),
(106,34,o),
(77,73,c),
(60,53,l),
(77,23,o),
(108,0,o),
(214,0,cs),
(228,0,ls),
(281,0,o),
(346,2,o),
(379,8,c),
(442,154,l),
(444,154,l),
(515,25,ls),
(523,10,o),
(529,0,o),
(543,0,cs),
(546,0,l)
);
}
);
width = 606;
},
{
anchors = (
{
name = bottom;
pos = (459,-96);
},
{
name = top;
pos = (489,500);
}
);
layerId = "DA9A8D32-36F4-433E-897C-B49E872243BC";
shapes = (
{
closed = 1;
nodes = (
(615,186,l),
(517,318,l),
(454,315,l),
(392,191,l),
(370,185,o),
(343,185,o),
(321,185,cs),
(317,185,ls),
(242,185,o),
(182,189,o),
(132,247,c),
(37,130,l),
(61,45,o),
(156,0,o),
(300,0,cs),
(322,0,ls),
(362,0,o),
(430,5,o),
(458,19,c),
(495,84,l),
(499,84,l),
(508,71,ls),
(547,16,o),
(583,0,o),
(605,0,cs),
(615,0,l)
);
}
);
width = 665;
}
);
note = uni071D;
unicode = 1821;
},
{
glyphname = uni071D.fina;
lastChange = "2023-01-02 09:26:46 +0000";
layers = (
{
anchors = (
{
name = bottom;
pos = (492,-98);
},
{
name = top;
pos = (468,434);
}
);
layerId = m01;
shapes = (
{
closed = 1;
nodes = (
(472,126,l),
(475,126,l),
(508,69,ls),
(534,24,o),
(557,0,o),
(617,0,c),
(617,76,l),
(583,76,o),
(572,91,o),
(557,115,cs),
(493,221,l),
(449,220,l),
(389,82,l),
(348,76,o),
(299,76,o),
(275,76,cs),
(262,76,ls),
(174,76,o),
(129,89,o),
(94,138,c),
(49,78,l),
(69,30,o),
(136,0,o),
(240,0,cs),
(270,0,ls),
(299,0,o),
(368,1,o),
(425,14,c)
);
}
);
width = 617;
},
{
anchors = (
{
name = bottom;
pos = (458,-98);
},
{
name = top;
pos = (446,419);
}
);
layerId = "1C3A187F-9439-4340-B0A6-CD0525AA1AFE";
shapes = (
{
closed = 1;
nodes = (
(442,154,l),
(444,154,l),
(495,62,ls),
(517,22,o),
(530,0,o),
(586,0,c),
(586,25,l),
(557,25,o),
(545,27,o),
(522,67,cs),
(453,186,l),
(431,186,l),
(363,32,l),
(323,26,o),
(280,25,o),
(250,25,cs),
(245,25,ls),
(132,25,o),
(106,34,o),
(77,73,c),
(60,53,l),
(77,23,o),
(108,0,o),
(214,0,cs),
(228,0,ls),
(281,0,o),
(346,2,o),
(379,8,c)
);
}
);
width = 593;
},
{
anchors = (
{
name = bottom;
pos = (459,-100);
},
{
name = top;
pos = (491,500);
}
);
layerId = "DA9A8D32-36F4-433E-897C-B49E872243BC";
shapes = (
{
closed = 1;
nodes = (
(497,84,l),
(501,84,l),
(515,67,ls),
(562,7,o),
(602,0,o),
(658,0,c),
(658,185,l),
(617,185,o),
(608,196,o),
(569,248,cs),
(517,318,l),
(454,315,l),
(392,191,l),
(370,185,o),
(343,185,o),
(321,185,cs),
(317,185,ls),
(242,185,o),
(182,189,o),
(132,247,c),
(37,130,l),
(61,45,o),
(156,0,o),
(300,0,cs),
(322,0,ls),
(362,0,o),
(430,5,o),
(458,19,c)
);
}
);
width = 658;
}
);
note = uni071D.fina;
},
{
glyphname = uni071D.medi;
lastChange = "2023-01-02 10:17:03 +0000";
layers = (
{
anchors = (
{
name = bottom;
pos = (159,-98);
},
{
name = top;
pos = (148,434);
}
);
layerId = m01;
shapes = (
{
closed = 1;
nodes = (
(29,0,o),
(70,0,o),
(107,14,c),
(146,126,l),
(149,126,l),
(182,69,ls),
(208,24,o),
(234,0,o),
(294,0,c),
(294,76,l),
(260,76,o),
(249,91,o),
(234,115,cs),
(170,221,l),
(126,220,l),
(69,82,l),
(58,76,o),
(24,76,o),
(0,76,cs),
(-21,76,o),
(-39,61,o),
(-39,38,cs),
(-39,14,o),
(-21,0,o),
(0,0,cs)
);
}
);
width = 294;
},
{
anchors = (
{
name = bottom;
pos = (161,-98);
},
{
name = top;
pos = (149,419);
}
);
layerId = "1C3A187F-9439-4340-B0A6-CD0525AA1AFE";
shapes = (
{
closed = 1;
nodes = (
(16,0,o),
(49,0,o),
(82,5,c),
(146,154,l),
(148,154,l),
(199,62,ls),
(221,22,o),
(234,0,o),
(290,0,c),
(290,25,l),
(261,25,o),
(249,27,o),
(226,67,cs),
(157,186,l),
(135,186,l),
(66,29,l),
(51,26,o),
(18,25,o),
(0,25,cs),
(-19,25,o),
(-40,21,o),
(-40,13,cs),
(-40,4,o),
(-19,0,o),
(0,0,cs)
);
}
);
width = 290;
},
{
anchors = (
{
name = bottom;
pos = (161,-100);
},
{
name = top;
pos = (151,500);
}
);
layerId = "DA9A8D32-36F4-433E-897C-B49E872243BC";
shapes = (
{
closed = 1;
nodes = (
(40,0,o),
(104,5,o),
(132,19,c),
(166,84,l),
(170,84,l),
(184,67,ls),
(231,7,o),
(271,0,o),
(327,0,c),
(327,185,l),
(286,185,o),
(277,196,o),
(238,248,cs),
(186,318,l),
(123,315,l),
(58,185,l),
(38.667,185,o),
(19.333,185,o),
(0,185,cs),
(-24,185,o),
(-40,141,o),
(-40,92,cs),
(-40,42,o),
(-24,0,o),
(0,0,cs)
);
}
);
width = 327;
}
);
note = uni071D.medi;
},
{
glyphname = uni071D.init;
lastChange = "2023-01-02 10:17:11 +0000";
layers = (
{
anchors = (
{
name = bottom;
pos = (166,-97);
},
{
name = top;
pos = (151,434);
}
);
layerId = m01;
shapes = (
{
closed = 1;
nodes = (
(129,220,l),
(69,82,l),
(58,76,o),
(24,76,o),
(0,76,cs),
(-21,76,o),
(-39,61,o),
(-39,38,cs),
(-39,14,o),
(-21,0,o),
(0,0,cs),
(29,0,o),
(68,0,o),
(105,14,c),
(152,126,l),
(155,126,l),
(185,69,ls),
(210,22,o),
(226,0,o),
(252,0,cs),
(259,0,l),
(259,78,l),
(173,221,l)
);
}
);
width = 308;
},
{
anchors = (
{
name = bottom;
pos = (161,-98);
},
{
name = top;
pos = (149,419);
}
);
layerId = "1C3A187F-9439-4340-B0A6-CD0525AA1AFE";
shapes = (
{
closed = 1;
nodes = (
(134,186,l),
(66,29,l),
(51,26,o),
(19,25,o),
(0,25,cs),
(-19,25,o),
(-40,21,o),
(-40,13,cs),
(-40,4,o),
(-19,0,o),
(0,0,cs),
(25,0,o),
(49,0,o),
(82,5,c),
(145,154,l),
(147,154,l),
(218,25,ls),
(226,10,o),
(232,0,o),
(246,0,cs),
(249,0,l),
(249,23,l),
(157,186,l)
);
}
);
width = 309;
},
{
anchors = (
{
name = bottom;
pos = (168,-98);
},
{
name = top;
pos = (155,500);
}
);
layerId = "DA9A8D32-36F4-433E-897C-B49E872243BC";
shapes = (
{
closed = 1;
nodes = (
(120,315,l),
(56,185,l),
(37.333,185,o),
(18.667,185,o),
(0,185,cs),
(-24,185,o),
(-40,141,o),
(-40,92,cs),
(-40,42,o),
(-24,0,o),
(0,0,cs),
(40,0,o),
(96,5,o),
(124,19,c),
(161,84,l),
(165,84,l),
(173,72,ls),
(213,17,o),
(248,0,o),
(271,0,cs),
(281,0,l),
(281,186,l),
(183,318,l)
);
}
);
width = 331;
}
);
note = uni071D.init;
},
{
glyphname = uni071E;
lastChange = "2023-01-02 10:18:49 +0000";
layers = (
{
layerId = m01;
shapes = (
{
closed = 1;
nodes = (
(356,674,l),
(438,674,l),
(438,759,l),
(356,759,l)
);
},
{
closed = 1;
nodes = (
(272,527,l),
(354,527,l),
(354,612,l),
(272,612,l)
);
},
{
closed = 1;
nodes = (
(440,527,l),
(522,527,l),
(522,612,l),
(440,612,l)
);
},
{
closed = 1;
nodes = (
(678,431,o),
(651,429,o),
(606,428,cs),
(561,427,o),
(514,426,o),
(465,426,cs),
(384.667,426,o),
(304.333,426,o),
(224,426,cs),
(177,426,o),
(140,406,o),
(111,366,cs),
(82,327,o),
(68,280,o),
(68,226,cs),
(68,159,o),
(85,103,o),
(122,62,cs),
(159,20,o),
(207,-1,o),
(267,-1,cs),
(447,-1,o),
(478,133,o),
(478,290,cs),
(478,307,o),
(475,333,o),
(472,353,c),
(521,354,o),
(570,355,o),
(619,356,c),
(619,237,o),
(619,119,o),
(619,0,c),
(676.667,0,o),
(734.333,0,o),
(792,0,cs),
(820,0,o),
(857,0,o),
(892,14,c),
(908,51,o),
(923,89,o),
(939,126,c),
(942,126,l),
(952,107,o),
(962,88,o),
(972,69,cs),
(997,22,o),
(1013,0,o),
(1039,0,cs),
(1041.333,0,o),
(1043.667,0,o),
(1046,0,c),
(1046,78,l),
(960,221,l),
(916,220,l),
(856,82,l),
(845,76,o),
(815,76,o),
(792,76,cs),
(687,76,l),
(687,195.333,o),
(687,314.667,o),
(687,434,c)
);
},
{
closed = 1;
nodes = (
(403,353,l),
(407,336,o),
(409,312,o),
(409,292,cs),
(409,169,o),
(395,74,o),
(275,74,cs),
(188,74,o),
(142,129,o),
(142,233,cs),
(142,301,o),
(181,353,o),
(229,353,cs)
);
},
{
closed = 1;
nodes = (
(357,-166,l),
(439,-166,l),
(439,-81,l),
(357,-81,l)
);
}
);
width = 1095;
},
{
layerId = "1C3A187F-9439-4340-B0A6-CD0525AA1AFE";
shapes = (
{
closed = 1;
nodes = (
(334,630,l),
(382,630,l),
(382,678,l),
(334,678,l)
);
},
{
closed = 1;
nodes = (
(260,493,l),
(308,493,l),
(308,541,l),
(260,541,l)
);
},
{
closed = 1;
nodes = (
(410,493,l),
(458,493,l),
(458,541,l),
(410,541,l)
);
},
{
closed = 1;
nodes = (
(624,382,o),
(597,380,o),
(575,379,cs),
(521,377,o),
(486,377,o),
(438,377,cs),
(366.667,377,o),
(295.333,377,o),
(224,377,cs),
(178,377,o),
(143,359,o),
(121,333,cs),
(92,299,o),
(80,250,o),
(80,202,cs),
(80,141,o),
(94,91,o),
(126,53,cs),
(157,17,o),
(204,0,o),
(256,0,cs),
(416,0,o),
(431,140,o),
(431,266,cs),
(431,290,o),
(428,327,o),
(423,352,c),
(485,352,o),
(543,353,o),
(609,356,c),
(609,237,o),
(609,119,o),
(609,0,c),
(656,0,o),
(703,0,o),
(750,0,cs),
(773,0,o),
(796,0,o),
(827,5,c),
(848,55,o),
(869,104,o),
(890,154,c),
(892,154,l),
(915.667,111,o),
(939.333,68,o),
(963,25,cs),
(971,10,o),
(977,0,o),
(991,0,cs),
(992,0,o),
(993,0,o),
(994,0,c),
(994,23,l),
(902,186,l),
(879,186,l),
(811,29,l),
(796,26,o),
(764,25,o),
(745,25,cs),
(635,25,l),
(635,144.667,o),
(635,264.333,o),
(635,384,c)
);
},
{
closed = 1;
nodes = (
(397,352,l),
(403,331,o),
(406,288,o),
(406,266,cs),
(406,144,o),
(389,25,o),
(257,25,cs),
(159,25,o),
(107,89,o),
(107,209,cs),
(107,291,o),
(150,352,o),
(219,352,cs)
);
},
{
closed = 1;
nodes = (
(335,-154,l),
(383,-154,l),
(383,-106,l),
(335,-106,l)
);
}
);
width = 1054;
},
{
layerId = "DA9A8D32-36F4-433E-897C-B49E872243BC";
shapes = (
{
closed = 1;
nodes = (
(376,755,l),
(517,755,l),
(517,894,l),
(376,894,l)
);
},
{
closed = 1;
nodes = (
(264,564,l),
(405,564,l),
(405,703,l),
(264,703,l)
);
},
{
closed = 1;
nodes = (
(485,564,l),
(626,564,l),
(626,703,l),
(485,703,l)
);
},
{
closed = 1;
nodes = (
(741,505,o),
(703,503,o),
(664,502,cs),
(624,501,o),
(577,500,o),
(525,500,cs),
(443.333,500,o),
(361.667,500,o),
(280,500,cs),
(193,500,o),
(132,464,o),
(97,411,cs),
(69,368,o),
(56,315,o),
(56,261,cs),
(56,196,o),
(75,128,o),
(116,78,cs),
(155,30,o),
(212,-3,o),
(290,-3,cs),
(480,-3,o),
(549,132,o),
(549,303,cs),
(549,306,o),
(549,328,o),
(548,340,c),
(572.333,340,o),
(596.667,340,o),
(621,340,c),
(621,226.667,o),
(621,113.333,o),
(621,0,c),
(703,0,o),
(785,0,o),
(867,0,cs),
(907,0,o),
(963,5,o),
(991,19,c),
(1003.333,40.667,o),
(1015.667,62.333,o),
(1028,84,c),
(1032,84,l),
(1035,80,o),
(1037,76,o),
(1040,72,cs),
(1080,17,o),
(1115,0,o),
(1138,0,cs),
(1141.333,0,o),
(1144.667,0,o),
(1148,0,c),
(1148,186,l),
(1050,318,l),
(987,315,l),
(923,185,l),
(913,185,o),
(904,185,o),
(894,185,c),
(780,185,l),
(780,293,o),
(780,402,o),
(780,510,c)
);
},
{
closed = 1;
nodes = (
(398,340,l),
(401,324,o),
(401,312,o),
(401,310,cs),
(401,235,o),
(386,167,o),
(300,167,cs),
(253,167,o),
(214,194,o),
(214,255,cs),
(214,296,o),
(234,340,o),
(290,340,cs)
);
},
{
closed = 1;
nodes = (
(389,-196,l),
(530,-196,l),
(530,-57,l),
(389,-57,l)
);
}
);
width = 1188;
}
);
note = uni071E;
unicode = 1822;
},
{
glyphname = uni071F;
lastChange = "2023-01-02 09:26:46 +0000";
layers = (
{
anchors = (
{
name = bottom;
pos = (222,-388);
},
{
name = top;
pos = (271,542);
}
);
layerId = m01;
shapes = (
{
closed = 1;
nodes = (
(393,-339,l),
(544,-186,o),
(623,-48,o),
(623,72,cs),
(623,184,o),
(558,246,o),
(449,246,cs),
(370,246,o),
(309,193,o),
(274,101,c),
(270,101,l),
(157,319,ls),
(150,332,o),
(149,338,o),
(149,341,cs),
(149,348,o),
(150,353,o),
(155,361,cs),
(161,372,l),
(420,372,l),
(420,445,l),
(115,445,l),
(68,335,l),
(84,297,o),
(109,245,o),
(145,179,cs),
(181,113,o),
(215,53,o),
(248,0,c),
(299,0,l),
(340,121,o),
(386,172,o),
(447,172,cs),
(510,172,o),
(546,134,o),
(546,67,cs),
(546,20,o),
(530,-32,o),
(499,-87,cs),
(468,-143,o),
(416,-212,o),
(343,-295,c)
);
}
);
width = 691;
},
{
anchors = (
{
name = bottom;
pos = (208,-385);
},
{
name = top;
pos = (251,518);
}
);
layerId = "1C3A187F-9439-4340-B0A6-CD0525AA1AFE";
shapes = (
{
closed = 1;
nodes = (
(382,-327,l),
(514,-184,o),
(573,-59,o),
(573,45,cs),
(573,141,o),
(517,199,o),
(426,199,cs),
(338,199,o),
(287,131,o),
(256,38,c),
(254,38,l),
(118,295,ls),
(115,301,o),
(111,310,o),
(111,316,cs),
(111,323,o),
(112,326,o),
(123,350,cs),
(133,372,l),
(372,372,l),
(372,397,l),
(115,397,l),
(80,313,l),
(103,269,o),
(126,224,o),
(149,180,cs),
(181,120,o),
(213,60,o),
(245,0,c),
(266,0,l),
(308,127,o),
(357,174,o),
(427,174,cs),
(501,174,o),
(547,127,o),
(547,44,cs),
(547,-13,o),
(530,-69,o),
(498,-128,cs),
(467,-186,o),
(421,-246,o),
(363,-311,c)
);
}
);
width = 653;
},
{
anchors = (
{
name = bottom;
pos = (248,-394);
},
{
name = top;
pos = (312,615);
}
);
layerId = "DA9A8D32-36F4-433E-897C-B49E872243BC";
shapes = (
{
closed = 1;
nodes = (
(443,-358,l),
(594,-203,o),
(701,-49,o),
(701,90,cs),
(701,222,o),
(621,297,o),
(497,297,cs),
(435,297,o),
(356,272,o),
(303,199,c),
(299,199,l),
(250,304,ls),
(242,321,o),
(240,327,o),
(240,334,cs),
(240,337,o),
(241,341,o),
(243,345,cs),
(245,349,l),
(497,349,l),
(497,515,l),
(122,515,l),
(56,355,l),
(79,300,o),
(125,196,o),
(142,162,cs),
(170,105,o),
(203,33,o),
(222,0,c),
(332,0,l),
(376,125,o),
(429,145,o),
(472,145,cs),
(508,145,o),
(529,123,o),
(529,89,cs),
(529,51,o),
(513,7,o),
(488,-39,cs),
(449,-112,o),
(383,-196,o),
(330,-262,c)
);
}
);
width = 757;
}
);
note = uni071F;
unicode = 1823;
},
{
glyphname = uni071F.fina;
lastChange = "2023-01-02 09:26:46 +0000";
layers = (
{
anchors = (
{
name = bottom;
pos = (254,-334);
},
{
name = top;
pos = (270,444);
}
);
layerId = m01;
shapes = (
{
closed = 1;
nodes = (
(651,-286,l),
(648,-287,o),
(635,-290,o),
(622,-290,cs),
(580,-290,o),
(541,-270,o),
(508,-231,cs),
(475,-192,o),
(427,-135,o),
(366,-60,cs),
(305,14,o),
(218,129,o),
(178,188,cs),
(160,215,o),
(153,228,o),
(153,241,cs),
(153,248,o),
(154,252,o),
(164,269,c),
(339,272,ls),
(367,272,o),
(420,276,o),
(434,279,c),
(434,106,ls),
(434,31,o),
(469,0,o),
(536,0,cs),
(615,0,l),
(615,76,l),
(547,76,ls),
(511,76,o),
(502,84,o),
(502,121,cs),
(502,396,l),
(434,396,l),
(434,350,l),
(425,348,o),
(398,345,o),
(353,344,cs),
(308,343,o),
(261,342,o),
(115,342,c),
(68,230,l),
(125,131,o),
(195,31,o),
(278,-72,cs),
(361,-175,o),
(423,-249,o),
(464,-293,cs),
(505,-337,o),
(553,-359,o),
(606,-359,cs),
(620,-359,o),
(641,-357,o),
(661,-349,c)
);
}
);
width = 615;
},
{
anchors = (
{
name = bottom;
pos = (254,-334);
},
{
name = top;
pos = (243,422);
}
);
layerId = "1C3A187F-9439-4340-B0A6-CD0525AA1AFE";
shapes = (
{
closed = 1;
nodes = (
(588,-316,l),
(580,-318,o),
(571,-319,o),
(565,-319,cs),
(518,-319,o),
(488,-301,o),
(450,-254,cs),
(417,-214,o),
(390,-180,o),
(330,-104,cs),
(272,-30,o),
(185,95,o),
(142,159,cs),
(123,187,o),
(113,203,o),
(113,218,cs),
(113,227,o),
(119,241,o),
(134,274,c),
(266,275,ls),
(335,276,o),
(392,275,o),
(426,283,c),
(426,80,ls),
(426,32,o),
(437,0,o),
(491,0,cs),
(564,0,l),
(564,25,l),
(496,25,ls),
(455,25,o),
(452,45,o),
(452,98,cs),
(452,352,l),
(426,352,l),
(426,308,l),
(400,302,o),
(346,300,o),
(289,300,cs),
(231,300,o),
(174,299,o),
(116,299,c),
(80,212,l),
(133,116,o),
(198,24,o),
(278,-79,cs),
(359,-184,o),
(402,-239,o),
(442,-284,cs),
(477,-324,o),
(512,-344,o),
(559,-344,cs),
(566,-344,o),
(582,-343,o),
(592,-340,c)
);
}
);
width = 564;
},
{
anchors = (
{
name = bottom;
pos = (234,-334);
},
{
name = top;
pos = (263,517);
}
);
layerId = "DA9A8D32-36F4-433E-897C-B49E872243BC";
shapes = (
{
closed = 1;
nodes = (
(696,-221,l),
(688,-224,o),
(671,-226,o),
(661,-226,cs),
(617,-226,o),
(590,-205,o),
(559,-176,cs),
(519,-138,o),
(462,-63,o),
(411,5,cs),
(360,73,o),
(312,145,o),
(271,212,cs),
(261,228,o),
(256,236,o),
(256,246,cs),
(256,247,o),
(256,249,o),
(257,250,c),
(307,251,ls),
(403,253,o),
(436,255,o),
(450,257,c),
(450,176,ls),
(450,47,o),
(530,0,o),
(615,0,cs),
(689,0,l),
(689,185,l),
(637,185,ls),
(614,185,o),
(594,189,o),
(594,223,cs),
(594,471,l),
(450,471,l),
(450,420,l),
(411,415,o),
(332,414,o),
(265,414,cs),
(231,414,o),
(181,414,o),
(125,415,c),
(56,240,l),
(115,141,o),
(182,29,o),
(249,-66,cs),
(331,-182,o),
(392,-258,o),
(430,-294,cs),
(477,-339,o),
(535,-373,o),
(603,-373,cs),
(637,-373,o),
(668,-369,o),
(703,-355,c)
);
}
);
width = 689;
}
);
note = uni071F.fina;
},
{
glyphname = uni071F.medi;
lastChange = "2023-01-02 09:26:46 +0000";
layers = (
{
anchors = (
{
name = bottom;
pos = (233,-98);
},
{
name = top;
pos = (251,537);
}
);
layerId = m01;
shapes = (
{
closed = 1;
nodes = (
(587,0,l),
(587,76,l),
(563,76,o),
(558,85,o),
(546,110,cs),
(499,210,ls),
(425,367,o),
(350,437,o),
(233,437,cs),
(136,437,o),
(66,389,o),
(58,305,c),
(127,305,l),
(136,342,o),
(171,362,o),
(228,362,cs),
(267,362,o),
(302,348,o),
(333,320,cs),
(365,292,o),
(400,239,o),
(438,162,cs),
(480,76,l),
(0,76,ls),
(-21,76,o),
(-39,61,o),
(-39,38,cs),
(-39,14,o),
(-21,0,o),
(0,0,cs),
(476,0,l),
(494,46,l),
(496,46,l),
(517,14,o),
(541,0,o),
(577,0,cs)
);
}
);
width = 587;
},
{
anchors = (
{
name = bottom;
pos = (223,-99);
},
{
name = top;
pos = (240,509);
}
);
layerId = "1C3A187F-9439-4340-B0A6-CD0525AA1AFE";
shapes = (
{
closed = 1;
nodes = (
(552,0,l),
(552,25,l),
(534,25,o),
(532,26,o),
(519,51,cs),
(454,177,ls),
(378,325,o),
(318,388,o),
(212,388,cs),
(137,388,o),
(85,349,o),
(77,297,c),
(102,297,l),
(113,335,o),
(151,362,o),
(211,362,cs),
(261,362,o),
(297,344,o),
(330,313,cs),
(363,282,o),
(399,225,o),
(437,152,cs),
(503,25,l),
(0,25,ls),
(-19,25,o),
(-40,21,o),
(-40,13,cs),
(-40,4,o),
(-19,0,o),
(0,0,cs),
(500,0,l),
(507,18,l),
(509,18,l),
(518,5,o),
(529,0,o),
(545,0,cs)
);
}
);
width = 552;
},
{
anchors = (
{
name = bottom;
pos = (204,-96);
},
{
name = top;
pos = (294,606);
}
);
layerId = "DA9A8D32-36F4-433E-897C-B49E872243BC";
shapes = (
{
closed = 1;
nodes = (
(652,0,l),
(652,185,l),
(620,185,o),
(613,199,o),
(598,234,cs),
(580,275,ls),
(508,440,o),
(423,509,o),
(297,509,cs),
(169,509,o),
(66,446,o),
(58,296,c),
(207,296,l),
(213,328,o),
(242,339,o),
(281,339,cs),
(322,339,o),
(351,324,o),
(373,301,cs),
(395,279,o),
(411,249,o),
(425,219,cs),
(441,185,l),
(0,185,ls),
(-24,185,o),
(-40,141,o),
(-40,92,cs),
(-40,42,o),
(-24,0,o),
(0,0,cs),
(448,0,l),
(487,81,l),
(491,81,l),
(523,20,o),
(562,0,o),
(636,0,cs)
);
}
);
width = 652;
}
);
note = uni071F.medi;
},
{
glyphname = uni071F.init;
lastChange = "2023-01-02 09:26:46 +0000";
layers = (
{
anchors = (
{
name = bottom;
pos = (246,-98);
},
{
name = top;
pos = (251,537);
}
);
layerId = m01;
shapes = (
{
closed = 1;
nodes = (
(532,0,l),
(567,63,l),
(563,75,o),
(555,94,o),
(494,220,cs),
(438,336,o),
(367,437,o),
(233,437,cs),
(136,437,o),
(66,389,o),
(58,305,c),
(127,305,l),
(136,342,o),
(171,362,o),
(228,362,cs),
(267,362,o),
(302,348,o),
(333,320,cs),
(365,292,o),
(400,239,o),
(438,162,cs),
(480,76,l),
(0,76,ls),
(-21,76,o),
(-39,61,o),
(-39,38,cs),
(-39,14,o),
(-21,0,o),
(0,0,cs)
);
}
);
width = 616;
},
{
anchors = (
{
name = bottom;
pos = (223,-102);
},
{
name = top;
pos = (240,507);
}
);
layerId = "1C3A187F-9439-4340-B0A6-CD0525AA1AFE";
shapes = (
{
closed = 1;
nodes = (
(520,0,l),
(535,20,l),
(508,72,o),
(481,125,o),
(454,177,cs),
(378,325,o),
(318,388,o),
(212,388,cs),
(137,388,o),
(85,349,o),
(77,297,c),
(102,297,l),
(113,335,o),
(151,362,o),
(211,362,cs),
(261,362,o),
(297,344,o),
(330,313,cs),
(363,282,o),
(399,225,o),
(437,152,cs),
(503,25,l),
(0,25,ls),
(-19,25,o),
(-40,21,o),
(-40,13,cs),
(-40,4,o),
(-19,0,o),
(0,0,cs)
);
}
);
width = 595;
},
{
anchors = (
{
name = bottom;
pos = (207,-98);
},
{
name = top;
pos = (291,606);
}
);
layerId = "DA9A8D32-36F4-433E-897C-B49E872243BC";
shapes = (
{
closed = 1;
nodes = (
(556,0,l),
(636,145,l),
(617,188,o),
(599,232,o),
(580,275,cs),
(509,440,o),
(423,509,o),
(297,509,cs),
(169,509,o),
(66,446,o),
(58,296,c),
(207,296,l),
(213,328,o),
(242,339,o),
(281,339,cs),
(322,339,o),
(351,324,o),
(373,301,cs),
(395,279,o),
(411,249,o),
(425,219,cs),
(441,185,l),
(0,185,ls),
(-24,185,o),
(-40,141,o),
(-40,92,cs),
(-40,42,o),
(-24,0,o),
(0,0,cs)
);
}
);
width = 676;
}
);
note = uni071F.init;
},
{
glyphname = uni0720;
lastChange = "2023-01-02 09:26:46 +0000";
layers = (
{
anchors = (
{
name = bottom;
pos = (396,-98);
},
{
name = top;
pos = (374,773);
}
);
layerId = m01;
shapes = (
{
closed = 1;
nodes = (
(705,0,l),
(751,69,l),
(429,693,l),
(358,659,l),
(659,76,l),
(267,76,ls),
(175,76,o),
(127,90,o),
(94,138,c),
(49,78,l),
(69,30,o),
(136,0,o),
(240,0,cs)
);
}
);
width = 800;
},
{
anchors = (
{
name = bottom;
pos = (390,-98);
},
{
name = top;
pos = (327,740);
}
);
layerId = "1C3A187F-9439-4340-B0A6-CD0525AA1AFE";
shapes = (
{
closed = 1;
nodes = (
(685,0,l),
(700,20,l),
(372,656,l),
(349,644,l),
(668,25,l),
(228,25,ls),
(137,25,o),
(106,34,o),
(77,73,c),
(60,53,l),
(77,23,o),
(113,0,o),
(197,0,cs)
);
}
);
width = 760;
},
{
anchors = (
{
name = bottom;
pos = (407,-98);
},
{
name = top;
pos = (417,798);
}
);
layerId = "DA9A8D32-36F4-433E-897C-B49E872243BC";
shapes = (
{
closed = 1;
nodes = (
(733,0,l),
(823,144,l),
(515,743,l),
(360,661,l),
(604,185,l),
(320,185,ls),
(245,185,o),
(177,188,o),
(132,247,c),
(37,130,l),
(61,45,o),
(163,0,o),
(307,0,cs)
);
}
);
width = 863;
}
);
note = uni0720;
unicode = 1824;
},
{
glyphname = uni0720.fina;
lastChange = "2023-01-02 09:26:46 +0000";
layers = (
{
anchors = (
{
name = bottom;
pos = (396,-98);
},
{
name = top;
pos = (374,773);
}
);
layerId = m01;
shapes = (
{
closed = 1;
nodes = (
(765,0,l),
(765,76,l),
(754,76,o),
(743,85,o),
(734,103,cs),
(429,693,l),
(358,659,l),
(659,76,l),
(267,76,ls),
(175,76,o),
(127,90,o),
(94,138,c),
(49,78,l),
(69,30,o),
(136,0,o),
(240,0,cs),
(658,0,l),
(676,45,l),
(678,45,l),
(698,18,o),
(722,0,o),
(758,0,cs)
);
}
);
width = 765;
},
{
anchors = (
{
name = bottom;
pos = (388,-98);
},
{
name = top;
pos = (327,737);
}
);
layerId = "1C3A187F-9439-4340-B0A6-CD0525AA1AFE";
shapes = (
{
closed = 1;
nodes = (
(717,0,l),
(717,25,l),
(699,25,o),
(697,26,o),
(684,51,cs),
(372,656,l),
(349,644,l),
(668,25,l),
(228,25,ls),
(137,25,o),
(106,34,o),
(77,73,c),
(60,53,l),
(77,23,o),
(113,0,o),
(197,0,cs),
(665,0,l),
(672,18,l),
(674,18,l),
(683,5,o),
(694,0,o),
(710,0,cs)
);
}
);
width = 717;
},
{
anchors = (
{
name = bottom;
pos = (411,-98);
},
{
name = top;
pos = (417,799);
}
);
layerId = "DA9A8D32-36F4-433E-897C-B49E872243BC";
shapes = (
{
closed = 1;
nodes = (
(821,0,l),
(821,185,l),
(810,185,o),
(798,195,o),
(774,241,cs),
(515,743,l),
(360,661,l),
(604,185,l),
(320,185,ls),
(245,185,o),
(177,188,o),
(132,247,c),
(37,130,l),
(61,45,o),
(163,0,o),
(307,0,cs),
(622,0,l),
(660,81,l),
(664,81,l),
(700,30,o),
(743,0,o),
(816,0,cs)
);
}
);
width = 821;
}
);
note = uni0720.fina;
},
{
glyphname = uni0720.medi;
lastChange = "2023-01-02 09:26:46 +0000";
layers = (
{
anchors = (
{
name = bottom;
pos = (169,-98);
},
{
name = top;
pos = (-9,773);
}
);
layerId = m01;
shapes = (
{
closed = 1;
nodes = (
(383,0,l),
(383,76,l),
(372,76,o),
(361,84,o),
(353,100,cs),
(47,693,l),
(-23,659,l),
(277,76,l),
(0,76,ls),
(-21,76,o),
(-39,61,o),
(-39,38,cs),
(-39,14,o),
(-21,0,o),
(0,0,cs),
(276,0,l),
(294,45,l),
(296,45,l),
(316,17,o),
(339,0,o),
(375,0,cs)
);
}
);
width = 383;
},
{
anchors = (
{
name = bottom;
pos = (169,-98);
},
{
name = top;
pos = (-25,741);
}
);
layerId = "1C3A187F-9439-4340-B0A6-CD0525AA1AFE";
shapes = (
{
closed = 1;
nodes = (
(364,0,l),
(364,25,l),
(346,25,o),
(344,26,o),
(331,51,cs),
(19,656,l),
(-4,644,l),
(315,25,l),
(0,25,ls),
(-19,25,o),
(-40,21,o),
(-40,13,cs),
(-40,4,o),
(-19,0,o),
(0,0,cs),
(312,0,l),
(319,18,l),
(321,18,l),
(330,5,o),
(341,0,o),
(357,0,cs)
);
}
);
width = 364;
},
{
anchors = (
{
name = bottom;
pos = (191,-100);
},
{
name = top;
pos = (50,796);
}
);
layerId = "DA9A8D32-36F4-433E-897C-B49E872243BC";
shapes = (
{
closed = 1;
nodes = (
(456,0,l),
(456,185,l),
(445,185,o),
(433,195,o),
(409,241,cs),
(150,743,l),
(-5,661,l),
(239,185,l),
(0,185,ls),
(-24,185,o),
(-40,141,o),
(-40,92,cs),
(-40,42,o),
(-24,0,o),
(0,0,cs),
(257,0,l),
(295,81,l),
(299,81,l),
(335,30,o),
(378,0,o),
(451,0,cs)
);
}
);
width = 456;
}
);
note = uni0720.medi;
},
{
glyphname = uni0720.init;
lastChange = "2023-01-02 09:26:46 +0000";
layers = (
{
anchors = (
{
name = bottom;
pos = (169,-98);
},
{
name = top;
pos = (-9,773);
}
);
layerId = m01;
shapes = (
{
closed = 1;
nodes = (
(323,0,l),
(369,69,l),
(47,693,l),
(-23,659,l),
(277,76,l),
(0,76,ls),
(-21,76,o),
(-39,61,o),
(-39,38,cs),
(-39,14,o),
(-21,0,o),
(0,0,cs)
);
}
);
width = 418;
},
{
anchors = (
{
name = bottom;
pos = (169,-98);
},
{
name = top;
pos = (-23,738);
}
);
layerId = "1C3A187F-9439-4340-B0A6-CD0525AA1AFE";
shapes = (
{
closed = 1;
nodes = (
(332,0,l),
(347,20,l),
(19,656,l),
(-4,644,l),
(315,25,l),
(0,25,ls),
(-19,25,o),
(-40,21,o),
(-40,13,cs),
(-40,4,o),
(-19,0,o),
(0,0,cs)
);
}
);
width = 407;
},
{
anchors = (
{
name = bottom;
pos = (191,-98);
},
{
name = top;
pos = (52,798);
}
);
layerId = "DA9A8D32-36F4-433E-897C-B49E872243BC";
shapes = (
{
closed = 1;
nodes = (
(368,0,l),
(458,144,l),
(150,743,l),
(-5,661,l),
(239,185,l),
(0,185,ls),
(-24,185,o),
(-40,141,o),
(-40,92,cs),
(-40,42,o),
(-24,0,o),
(0,0,cs)
);
}
);
width = 498;
}
);
note = uni0720.init;
},
{
glyphname = uni0721;
lastChange = "2023-01-02 09:26:46 +0000";
layers = (
{
anchors = (
{
name = bottom;
pos = (435,-99);
},
{
name = top;
pos = (429,523);
}
);
layerId = m01;
shapes = (
{
closed = 1;
nodes = (
(597,0,l),
(636,54,l),
(636,426,l),
(271,426,ls),
(189,426,o),
(111,430,o),
(49,438,c),
(49,367,l),
(118,356,o),
(201,353,o),
(274,353,cs),
(282,353,l),
(132,-139,l),
(199,-156,l),
(265,59,l),
(288,8,o),
(365,0,o),
(420,0,cs)
);
},
{
closed = 1;
nodes = (
(563,76,l),
(428,76,ls),
(377,76,o),
(297,78,o),
(290,140,c),
(354,353,l),
(563,353,l)
);
}
);
width = 705;
},
{
anchors = (
{
name = bottom;
pos = (405,-99);
},
{
name = top;
pos = (399,496);
}
);
layerId = "1C3A187F-9439-4340-B0A6-CD0525AA1AFE";
shapes = (
{
closed = 1;
nodes = (
(548,0,l),
(563,20,l),
(563,377,l),
(210,377,ls),
(162,377,o),
(102,381,o),
(60,388,c),
(60,363,l),
(88,357,o),
(153,352,o),
(214,352,cs),
(282,352,l),
(142,-132,l),
(165,-139,l),
(223,60,l),
(236,21,o),
(279,0,o),
(352,0,cs)
);
},
{
closed = 1;
nodes = (
(537,25,l),
(362,25,ls),
(277,25,o),
(242,52,o),
(234,97,c),
(308,352,l),
(537,352,l)
);
}
);
width = 643;
},
{
anchors = (
{
name = bottom;
pos = (529,-99);
},
{
name = top;
pos = (480,595);
}
);
layerId = "DA9A8D32-36F4-433E-897C-B49E872243BC";
shapes = (
{
closed = 1;
nodes = (
(655,0,l),
(736,126,l),
(736,500,l),
(259,500,ls),
(161,500,o),
(64,507,o),
(40,512,c),
(40,343,l),
(69,333,o),
(165,325,o),
(258,325,cs),
(269,325,l),
(109,-143,l),
(271,-190,l),
(351,51,l),
(381,14,o),
(437,0,o),
(504,0,cs)
);
},
{
closed = 1;
nodes = (
(575,185,l),
(496,185,ls),
(469,185,o),
(416,188,o),
(408,225,c),
(439,325,l),
(575,325,l)
);
}
);
width = 793;
}
);
note = uni0721;
unicode = 1825;
},
{
glyphname = uni0721.fina;
lastChange = "2023-01-02 09:26:46 +0000";
layers = (
{
anchors = (
{
name = bottom;
pos = (436,-99);
},
{
name = top;
pos = (429,525);
}
);
layerId = m01;
shapes = (
{
closed = 1;
nodes = (
(741,0,l),
(741,76,l),
(691,76,ls),
(647,76,o),
(636,88,o),
(636,135,cs),
(636,426,l),
(271,426,ls),
(189,426,o),
(111,430,o),
(49,438,c),
(49,367,l),
(118,356,o),
(201,353,o),
(274,353,cs),
(282,353,l),
(132,-139,l),
(199,-156,l),
(265,59,l),
(288,8,o),
(365,0,o),
(420,0,cs),
(563,0,l),
(581,45,l),
(583,45,l),
(600,16,o),
(631,0,o),
(680,0,cs)
);
},
{
closed = 1;
nodes = (
(563,353,l),
(563,128,ls),
(563,108,o),
(565,91,o),
(569,76,c),
(428,76,ls),
(377,76,o),
(297,78,o),
(290,140,c),
(354,353,l)
);
}
);
width = 741;
},
{
anchors = (
{
name = bottom;
pos = (407,-99);
},
{
name = top;
pos = (399,495);
}
);
layerId = "1C3A187F-9439-4340-B0A6-CD0525AA1AFE";
shapes = (
{
closed = 1;
nodes = (
(675,0,l),
(675,25,l),
(607,25,ls),
(566,25,o),
(563,45,o),
(563,98,cs),
(563,377,l),
(210,377,ls),
(162,377,o),
(102,381,o),
(60,388,c),
(60,363,l),
(88,357,o),
(153,352,o),
(214,352,cs),
(282,352,l),
(142,-132,l),
(165,-139,l),
(223,60,l),
(236,21,o),
(279,0,o),
(352,0,cs),
(545,0,l),
(551,17,l),
(553,17,l),
(563,6,o),
(578,0,o),
(602,0,cs)
);
},
{
closed = 1;
nodes = (
(537,352,l),
(537,80,ls),
(537,57,o),
(539,39,o),
(547,25,c),
(362,25,ls),
(277,25,o),
(242,52,o),
(234,97,c),
(308,352,l)
);
}
);
width = 675;
},
{
anchors = (
{
name = bottom;
pos = (529,-99);
},
{
name = top;
pos = (479,597);
}
);
layerId = "DA9A8D32-36F4-433E-897C-B49E872243BC";
shapes = (
{
closed = 1;
nodes = (
(818,0,l),
(818,185,l),
(808,185,ls),
(749,185,o),
(736,206,o),
(736,293,cs),
(736,500,l),
(259,500,ls),
(161,500,o),
(64,507,o),
(40,512,c),
(40,343,l),
(69,333,o),
(165,325,o),
(258,325,cs),
(269,325,l),
(109,-143,l),
(271,-190,l),
(351,51,l),
(381,14,o),
(437,0,o),
(504,0,cs),
(579,0,l),
(617,81,l),
(619,81,l),
(661,5,o),
(741,0,o),
(814,0,cs)
);
},
{
closed = 1;
nodes = (
(575,325,l),
(575,261,ls),
(575,240,o),
(578,201,o),
(582,185,c),
(496,185,ls),
(469,185,o),
(416,188,o),
(408,225,c),
(439,325,l)
);
}
);
width = 818;
}
);
note = uni0721.fina;
},
{
glyphname = uni0721.medi;
lastChange = "2023-01-02 09:26:46 +0000";
layers = (
{
anchors = (
{
name = bottom;
pos = (355,-98);
},
{
name = top;
pos = (494,527);
}
);
layerId = m01;
shapes = (
{
closed = 1;
nodes = (
(761,0,l),
(761,76,l),
(746,76,ls),
(711,76,o),
(689,87,o),
(682,114,c),
(689,135,o),
(692,159,o),
(692,185,cs),
(692,252,o),
(674,306,o),
(637,349,cs),
(600,391,o),
(553,414,o),
(492,414,cs),
(438,414,o),
(389,395,o),
(353,361,cs),
(333,342,o),
(318,319,o),
(306,291,c),
(212,362,ls),
(132,423,o),
(99,456,o),
(75,480,c),
(26,424,l),
(55,395,o),
(111,345,o),
(195,282,cs),
(286,214,l),
(285,205,o),
(285,195,o),
(285,185,cs),
(285,142,o),
(294,105,o),
(312,76,c),
(0,76,ls),
(-21,76,o),
(-39,61,o),
(-39,38,cs),
(-39,14,o),
(-21,0,o),
(0,0,cs),
(317,0,l),
(334,46,l),
(336,46,l),
(371,12,o),
(422,-5,o),
(488,-5,cs),
(555,-5,o),
(605,13,o),
(640,46,c),
(643,46,l),
(664,15,o),
(699,0,o),
(746,0,cs)
);
},
{
closed = 1;
nodes = (
(621,108,o),
(580,66,o),
(488,66,cs),
(396,66,o),
(354,108,o),
(354,187,cs),
(354,275,o),
(408,342,o),
(488,342,cs),
(568,342,o),
(621,279,o),
(621,187,cs)
);
}
);
width = 761;
},
{
anchors = (
{
name = bottom;
pos = (355,-98);
},
{
name = top;
pos = (458,495);
}
);
layerId = "1C3A187F-9439-4340-B0A6-CD0525AA1AFE";
shapes = (
{
closed = 1;
nodes = (
(713,0,l),
(713,25,l),
(709,25,ls),
(672,25,o),
(615,26,o),
(599,53,c),
(623,84,o),
(630,124,o),
(630,163,cs),
(630,222,o),
(613,273,o),
(581,309,cs),
(551,343,o),
(507,363,o),
(455,363,cs),
(412,363,o),
(373,350,o),
(340,321,cs),
(314,299,o),
(294,268,o),
(282,230,c),
(193,299,ls),
(133,345,o),
(74,396,o),
(51,419,c),
(33,400,l),
(64,371,o),
(116,324,o),
(180,276,cs),
(276,203,l),
(274,190,o),
(273,177,o),
(273,163,cs),
(273,98,o),
(295,52,o),
(335,25,c),
(0,25,ls),
(-19,25,o),
(-40,21,o),
(-40,13,cs),
(-40,4,o),
(-19,0,o),
(0,0,cs),
(335,0,l),
(342,20,l),
(344,20,l),
(373,3,o),
(409,-5,o),
(454,-5,cs),
(514,-5,o),
(554,10,o),
(581,34,c),
(583,34,l),
(607,2,o),
(657,0,o),
(709,0,cs)
);
},
{
closed = 1;
nodes = (
(604,69,o),
(562,20,o),
(455,20,cs),
(349,20,o),
(299,69,o),
(299,163,cs),
(299,269,o),
(363,338,o),
(454,338,cs),
(546,338,o),
(604,271,o),
(604,163,cs)
);
}
);
width = 713;
},
{
anchors = (
{
name = bottom;
pos = (355,-98);
},
{
name = top;
pos = (557,610);
}
);
layerId = "DA9A8D32-36F4-433E-897C-B49E872243BC";
shapes = (
{
closed = 1;
nodes = (
(849,0,l),
(849,185,l),
(845,185,ls),
(819,185,o),
(796,191,o),
(789,209,c),
(790,214,o),
(791,238,o),
(791,247,cs),
(791,324,o),
(764,387,o),
(721,430,cs),
(677,474,o),
(618,499,o),
(552,499,cs),
(510,499,o),
(473,489,o),
(441,473,cs),
(409,457,o),
(382,434,o),
(362,407,c),
(252,497,ls),
(219,524,o),
(161,574,o),
(135,598,c),
(27,462,l),
(81,406,o),
(168,340,o),
(238,289,cs),
(299,244,l),
(297,234,o),
(297,225,o),
(297,221,cs),
(297,214,o),
(298,198,o),
(302,185,c),
(0,185,ls),
(-24,185,o),
(-40,141,o),
(-40,92,cs),
(-40,42,o),
(-24,0,o),
(0,0,cs),
(299,0,l),
(339,81,l),
(341,81,l),
(383,17,o),
(454,-5,o),
(537,-5,cs),
(626,-5,o),
(695,27,o),
(726,72,c),
(730,72,l),
(760,16,o),
(810,0,o),
(844,0,cs)
);
},
{
closed = 1;
nodes = (
(641,199,o),
(610,161,o),
(544,161,cs),
(482,161,o),
(450,197,o),
(450,243,cs),
(450,294,o),
(485,341,o),
(546,341,cs),
(596,341,o),
(641,305,o),
(641,244,cs)
);
}
);
width = 849;
}
);
note = uni0721.medi;
},
{
glyphname = uni0721.init;
lastChange = "2023-01-02 09:26:46 +0000";
layers = (
{
anchors = (
{
name = bottom;
pos = (355,-98);
},
{
name = top;
pos = (492,525);
}
);
layerId = m01;
shapes = (
{
closed = 1;
nodes = (
(316,0,l),
(334,46,l),
(336,46,l),
(371,13,o),
(420,-5,o),
(488,-5,cs),
(617,-5,o),
(692,65,o),
(692,185,cs),
(692,252,o),
(674,306,o),
(637,349,cs),
(600,391,o),
(553,414,o),
(492,414,cs),
(437,414,o),
(389,396,o),
(353,361,cs),
(334,342,o),
(318,319,o),
(306,291,c),
(212,362,ls),
(132,423,o),
(99,456,o),
(75,480,c),
(26,424,l),
(55,395,o),
(111,345,o),
(195,282,cs),
(286,214,l),
(285,205,o),
(285,195,o),
(285,185,cs),
(285,142,o),
(294,105,o),
(312,76,c),
(0,76,ls),
(-21,76,o),
(-39,61,o),
(-39,38,cs),
(-39,14,o),
(-21,0,o),
(0,0,cs)
);
},
{
closed = 1;
nodes = (
(621,108,o),
(580,66,o),
(488,66,cs),
(396,66,o),
(354,108,o),
(354,187,cs),
(354,275,o),
(408,342,o),
(488,342,cs),
(568,342,o),
(621,279,o),
(621,187,cs)
);
}
);
width = 761;
},
{
anchors = (
{
name = bottom;
pos = (355,-98);
},
{
name = top;
pos = (461,495);
}
);
layerId = "1C3A187F-9439-4340-B0A6-CD0525AA1AFE";
shapes = (
{
closed = 1;
nodes = (
(335,0,l),
(342,20,l),
(344,20,l),
(373,3,o),
(409,-5,o),
(454,-5,cs),
(596,-5,o),
(630,81,o),
(630,163,cs),
(630,222,o),
(613,273,o),
(581,309,cs),
(551,343,o),
(507,363,o),
(455,363,cs),
(412,363,o),
(373,350,o),
(340,321,cs),
(314,299,o),
(294,268,o),
(282,230,c),
(193,299,ls),
(133,345,o),
(74,396,o),
(51,419,c),
(33,400,l),
(64,371,o),
(116,324,o),
(180,276,cs),
(276,203,l),
(274,190,o),
(273,177,o),
(273,163,cs),
(273,98,o),
(295,52,o),
(335,25,c),
(0,25,ls),
(-19,25,o),
(-40,21,o),
(-40,13,cs),
(-40,4,o),
(-19,0,o),
(0,0,cs)
);
},
{
closed = 1;
nodes = (
(604,69,o),
(562,20,o),
(455,20,cs),
(349,20,o),
(299,69,o),
(299,163,cs),
(299,269,o),
(363,338,o),
(454,338,cs),
(546,338,o),
(604,271,o),
(604,163,cs)
);
}
);
width = 710;
},
{
anchors = (
{
name = bottom;
pos = (355,-98);
},
{
name = top;
pos = (554,610);
}
);
layerId = "DA9A8D32-36F4-433E-897C-B49E872243BC";
shapes = (
{
closed = 1;
nodes = (
(299,0,l),
(339,81,l),
(341,81,l),
(383,17,o),
(454,-5,o),
(537,-5,cs),
(713,-5,o),
(800,105,o),
(800,241,cs),
(800,322,o),
(774,386,o),
(731,430,cs),
(688,475,o),
(630,499,o),
(564,499,cs),
(515,499,o),
(475,489,o),
(441,473,cs),
(408,457,o),
(382,434,o),
(362,407,c),
(252,497,ls),
(219,524,o),
(161,574,o),
(135,598,c),
(27,462,l),
(81,406,o),
(168,340,o),
(238,289,cs),
(299,244,l),
(297,234,o),
(297,226,o),
(297,222,cs),
(297,215,o),
(298,198,o),
(302,185,c),
(0,185,ls),
(-24,185,o),
(-40,141,o),
(-40,92,cs),
(-40,42,o),
(-24,0,o),
(0,0,cs)
);
},
{
closed = 1;
nodes = (
(641,199,o),
(610,161,o),
(544,161,cs),
(482,161,o),
(450,197,o),
(450,243,cs),
(450,294,o),
(485,341,o),
(546,341,cs),
(596,341,o),
(641,305,o),
(641,244,cs)
);
}
);
width = 858;
}
);
note = uni0721.init;
},
{
glyphname = uni0722;
lastChange = "2023-01-02 09:26:46 +0000";
layers = (
{
anchors = (
{
name = bottom;
pos = (179,-184);
},
{
name = top;
pos = (174,301);
}
);
layerId = m01;
shapes = (
{
closed = 1;
nodes = (
(177,20,l),
(670,-381,l),
(713,-330,l),
(641,-264,o),
(575,-208,o),
(508,-154,cs),
(366,-38,o),
(309,9,o),
(254,53,cs),
(137,145,l),
(60,53,l),
(145,-17,l)
);
}
);
width = 427;
},
{
anchors = (
{
name = bottom;
pos = (179,-184);
},
{
name = top;
pos = (174,301);
}
);
layerId = "1C3A187F-9439-4340-B0A6-CD0525AA1AFE";
shapes = (
{
closed = 1;
nodes = (
(149,28,l),
(624,-366,l),
(639,-348,l),
(579,-296,o),
(517,-244,o),
(455,-193,cs),
(372,-125,o),
(294,-58,o),
(211,9,cs),
(123,80,l),
(88,37,l),
(127,4,l)
);
}
);
width = 376;
},
{
anchors = (
{
name = bottom;
pos = (179,-184);
},
{
name = top;
pos = (239,438);
}
);
layerId = "DA9A8D32-36F4-433E-897C-B49E872243BC";
shapes = (
{
closed = 1;
nodes = (
(252,15,l),
(782,-403,l),
(883,-287,l),
(817,-226,o),
(706,-131,o),
(602,-45,cs),
(499,41,o),
(402,120,o),
(365,150,cs),
(204,280,l),
(48,93,l),
(205,-37,l)
);
}
);
width = 597;
}
);
note = uni0722;
unicode = 1826;
},
{
glyphname = uni0722.fina;
lastChange = "2023-01-02 09:26:46 +0000";
layers = (
{
anchors = (
{
name = bottom;
pos = (151,-444);
},
{
name = top;
pos = (121,323);
}
);
layerId = m01;
shapes = (
{
closed = 1;
nodes = (
(272,-351,l),
(213,-278,o),
(173,-214,o),
(152,-159,cs),
(131,-105,o),
(120,-49,o),
(120,8,cs),
(120,17,o),
(120,28,o),
(122,41,c),
(126,41,l),
(157,17,o),
(202,0,o),
(266,0,c),
(266,76,l),
(202,76,o),
(165,93,o),
(130,126,c),
(70,126,l),
(58,93,o),
(49,35,o),
(49,-1,cs),
(49,-145,o),
(107,-281,o),
(222,-392,c)
);
}
);
width = 266;
},
{
anchors = (
{
name = bottom;
pos = (151,-444);
},
{
name = top;
pos = (121,323);
}
);
layerId = "1C3A187F-9439-4340-B0A6-CD0525AA1AFE";
shapes = (
{
closed = 1;
nodes = (
(237,-356,l),
(186,-301,o),
(144,-243,o),
(117,-179,cs),
(96,-128,o),
(85,-73,o),
(85,-18,cs),
(85,6,o),
(88,36,o),
(93,51,c),
(95,51,l),
(122,22,o),
(172,0,o),
(227,0,c),
(227,25,l),
(165,25,o),
(131,49,o),
(98,78,c),
(76,78,l),
(67,56,o),
(60,17,o),
(60,-27,cs),
(60,-160,o),
(121,-266,o),
(218,-372,c)
);
}
);
width = 227;
},
{
anchors = (
{
name = bottom;
pos = (151,-465);
},
{
name = top;
pos = (159,449);
}
);
layerId = "DA9A8D32-36F4-433E-897C-B49E872243BC";
shapes = (
{
closed = 1;
nodes = (
(344,-321,l),
(297,-267,o),
(262,-211,o),
(238,-155,cs),
(214,-99,o),
(203,-42,o),
(203,15,cs),
(203,23,o),
(204,32,o),
(205,40,c),
(209,40,l),
(242,14,o),
(269,0,o),
(345,0,c),
(345,185,l),
(281,185,o),
(244,204,o),
(214,250,c),
(75,250,l),
(51,199,o),
(38,111,o),
(38,47,cs),
(38,-141,o),
(95,-293,o),
(227,-414,c)
);
}
);
width = 345;
}
);
note = uni0722.fina;
},
{
glyphname = uni0722.medi;
lastChange = "2023-01-02 09:26:46 +0000";
layers = (
{
anchors = (
{
name = bottom;
pos = (173,-98);
},
{
name = top;
pos = (160,523);
}
);
layerId = m01;
shapes = (
{
closed = 1;
nodes = (
(335,76,l),
(287,76,o),
(262,118,o),
(248,184,cs),
(236,241,o),
(228,353,o),
(228,407,cs),
(228,426,l),
(201,426,ls),
(176,426,o),
(135,427,o),
(111,428,c),
(111,355,l),
(133,353,o),
(146,353,o),
(151,353,cs),
(158,353,l),
(161,283,o),
(168,222,o),
(178,172,cs),
(186,133,o),
(196,100,o),
(208,76,c),
(0,76,ls),
(-21,76,o),
(-39,61,o),
(-39,38,cs),
(-39,14,o),
(-21,0,o),
(0,0,cs),
(208,0,l),
(225,46,l),
(227,46,l),
(254,13,o),
(286,0,o),
(335,0,c)
);
}
);
width = 335;
},
{
anchors = (
{
name = bottom;
pos = (156,-98);
},
{
name = top;
pos = (154,498);
}
);
layerId = "1C3A187F-9439-4340-B0A6-CD0525AA1AFE";
shapes = (
{
closed = 1;
nodes = (
(293,25,l),
(252,25,o),
(232,44,o),
(214,152,cs),
(206,197,o),
(197,268,o),
(194,374,cs),
(194,377,l),
(167,377,ls),
(143,377,o),
(139,377,o),
(116,379,c),
(116,354,l),
(138,352,o),
(141,352,o),
(158,352,cs),
(170,352,l),
(174,264,o),
(182,200,o),
(189,150,cs),
(196,101,o),
(209,48,o),
(230,25,c),
(0,25,ls),
(-19,25,o),
(-40,21,o),
(-40,13,cs),
(-40,4,o),
(-19,0,o),
(0,0,cs),
(228,0,l),
(235,18,l),
(237,18,l),
(250,7,o),
(261,0,o),
(293,0,c)
);
}
);
width = 293;
},
{
anchors = (
{
name = bottom;
pos = (177,-98);
},
{
name = top;
pos = (207,598);
}
);
layerId = "DA9A8D32-36F4-433E-897C-B49E872243BC";
shapes = (
{
closed = 1;
nodes = (
(420,185,l),
(369,185,o),
(354,209,o),
(342,240,cs),
(328,275,o),
(322,321,o),
(322,435,cs),
(322,500,l),
(249,500,ls),
(220,500,o),
(144,501,o),
(116,504,c),
(116,333,l),
(143,330,o),
(154,329,o),
(164,329,cs),
(171,329,l),
(173,301,o),
(175,274,o),
(178,249,cs),
(181,224,o),
(185,202,o),
(190,185,c),
(0,185,ls),
(-24,185,o),
(-40,141,o),
(-40,92,cs),
(-40,42,o),
(-24,0,o),
(0,0,cs),
(191,0,l),
(229,81,l),
(233,81,l),
(278,5,o),
(353,0,o),
(420,0,c)
);
}
);
width = 420;
}
);
note = uni0722.medi;
},
{
glyphname = uni0722.init;
lastChange = "2023-01-02 09:26:46 +0000";
layers = (
{
anchors = (
{
name = bottom;
pos = (173,-97);
},
{
name = top;
pos = (161,523);
}
);
layerId = m01;
shapes = (
{
closed = 1;
nodes = (
(271,0,l),
(295,54,l),
(275,99,o),
(260,146,o),
(249,193,cs),
(235,252,o),
(228,313,o),
(228,371,cs),
(228,426,l),
(201,426,ls),
(176,426,o),
(135,427,o),
(111,428,c),
(111,355,l),
(133,353,o),
(146,353,o),
(151,353,cs),
(158,353,l),
(162,290,o),
(167,230,o),
(180,174,cs),
(188,140,o),
(198,108,o),
(211,76,c),
(0,76,ls),
(-21,76,o),
(-39,61,o),
(-39,38,cs),
(-39,14,o),
(-21,0,o),
(0,0,cs)
);
}
);
width = 364;
},
{
anchors = (
{
name = bottom;
pos = (153,-97);
},
{
name = top;
pos = (154,499);
}
);
layerId = "1C3A187F-9439-4340-B0A6-CD0525AA1AFE";
shapes = (
{
closed = 1;
nodes = (
(246,0,l),
(254,20,l),
(237,63,o),
(225,98,o),
(214,158,cs),
(202,224,o),
(195,305,o),
(195,374,cs),
(195,377,l),
(167,377,ls),
(143,377,o),
(139,377,o),
(116,379,c),
(116,354,l),
(138,352,o),
(141,352,o),
(158,352,cs),
(170,352,l),
(174,257,o),
(182,191,o),
(192,140,cs),
(205,73,o),
(221,40,o),
(227,25,c),
(0,25,ls),
(-19,25,o),
(-40,21,o),
(-40,13,cs),
(-40,4,o),
(-19,0,o),
(0,0,cs)
);
}
);
width = 322;
},
{
anchors = (
{
name = bottom;
pos = (178,-97);
},
{
name = top;
pos = (203,597);
}
);
layerId = "DA9A8D32-36F4-433E-897C-B49E872243BC";
shapes = (
{
closed = 1;
nodes = (
(304,0,l),
(376,130,l),
(365,160,o),
(355,193,o),
(347,226,cs),
(330,296,o),
(322,367,o),
(322,435,cs),
(322,500,l),
(249,500,ls),
(220,500,o),
(144,501,o),
(116,504,c),
(116,333,l),
(143,330,o),
(154,329,o),
(164,329,cs),
(171,329,l),
(173,302,o),
(176,275,o),
(180,250,cs),
(184,226,o),
(189,204,o),
(194,185,c),
(0,185,ls),
(-24,185,o),
(-40,141,o),
(-40,92,cs),
(-40,42,o),
(-24,0,o),
(0,0,cs)
);
}
);
width = 434;
}
);
note = uni0722.init;
},
{
glyphname = uni0723;
lastChange = "2023-01-02 10:16:56 +0000";
layers = (
{
anchors = (
{
name = bottom;
pos = (626,-98);
},
{
name = top;
pos = (673,519);
}
);
layerId = m01;
shapes = (
{
closed = 1;
nodes = (
(969,335,o),
(906,410,o),
(812,410,cs),
(743,410,o),
(695,376,o),
(665,318,c),
(661,317,l),
(643,389,o),
(579,425,o),
(513,425,cs),
(389,425,o),
(320,330,o),
(320,214,cs),
(320,156,o),
(340,111,o),
(374,76,c),
(372,73,l),
(335,75,o),
(290,76,o),
(271,76,cs),
(262,76,ls),
(174,76,o),
(129,89,o),
(94,138,c),
(49,78,l),
(69,30,o),
(136,0,o),
(240,0,cs),
(395,0,l),
(413,43,l),
(418,43,l),
(473,10,o),
(547,-5,o),
(628,-5,cs),
(812,-5,o),
(969,36,o),
(969,238,cs)
);
},
{
closed = 1;
nodes = (
(451,81,o),
(395,142,o),
(395,226,cs),
(395,297,o),
(438,350,o),
(503,350,cs),
(583,350,o),
(603,292,o),
(603,232,cs),
(603,189,o),
(597,137,o),
(583,73,c)
);
},
{
closed = 1;
nodes = (
(662,120,o),
(664,148,o),
(681,208,cs),
(706,298,o),
(747,334,o),
(804,334,cs),
(856,334,o),
(894,295,o),
(894,230,cs),
(894,119,o),
(838,72,o),
(662,71,cs),
(659,71,o),
(656,71,o),
(653,71,c)
);
}
);
width = 1037;
},
{
anchors = (
{
name = bottom;
pos = (547,-98);
},
{
name = top;
pos = (598,461);
}
);
layerId = "1C3A187F-9439-4340-B0A6-CD0525AA1AFE";
shapes = (
{
closed = 1;
nodes = (
(854,313,o),
(795,369,o),
(720,369,cs),
(667,369,o),
(595,347,o),
(569,235,c),
(567,235,l),
(566,332,o),
(507,377,o),
(434,377,cs),
(334,377,o),
(273,291,o),
(273,206,cs),
(273,109,o),
(317,55,o),
(378,26,c),
(377,24,l),
(361,25,o),
(284,25,o),
(274,25,cs),
(228,25,ls),
(137,25,o),
(106,34,o),
(77,73,c),
(60,53,l),
(77,23,o),
(113,0,o),
(197,0,cs),
(388,0,l),
(394,18,l),
(396,18,l),
(443,0,o),
(497,-5,o),
(550,-5,cs),
(749,-5,o),
(854,56,o),
(854,209,cs)
);
},
{
closed = 1;
nodes = (
(396,25,o),
(298,76,o),
(298,205,cs),
(298,280,o),
(352,353,o),
(433,353,cs),
(506,353,o),
(547,302,o),
(547,204,cs),
(547,171,o),
(535,85,o),
(524,20,c)
);
},
{
closed = 1;
nodes = (
(562,101,o),
(570,149,o),
(577,188,cs),
(600,314,o),
(663,344,o),
(718,344,cs),
(778,344,o),
(828,302,o),
(828,212,cs),
(828,92,o),
(767,22,o),
(563,19,cs),
(559,19,o),
(555,19,o),
(551,19,c)
);
}
);
width = 934;
},
{
anchors = (
{
name = bottom;
pos = (728,-98);
},
{
name = top;
pos = (778,620);
}
);
layerId = "DA9A8D32-36F4-433E-897C-B49E872243BC";
shapes = (
{
closed = 1;
nodes = (
(1126,415,o),
(1048,513,o),
(924,513,cs),
(869,513,o),
(809,494,o),
(773,435,c),
(768,436,l),
(735,494,o),
(673,526,o),
(599,526,cs),
(457,526,o),
(366,419,o),
(366,280,cs),
(366,246,o),
(370,215,o),
(378,187,c),
(376,183,l),
(368,184,o),
(359,185,o),
(350,185,cs),
(312,185,ls),
(240,185,o),
(177,188,o),
(132,247,c),
(37,130,l),
(61,45,o),
(163,0,o),
(307,0,cs),
(413,0,l),
(449,76,l),
(452,76,l),
(514,19,o),
(604,-6,o),
(739,-6,cs),
(955,-6,o),
(1126,69,o),
(1126,289,cs)
);
},
{
closed = 1;
nodes = (
(567,183,o),
(530,221,o),
(530,286,cs),
(530,338,o),
(560,372,o),
(603,372,cs),
(655,372,o),
(669,328,o),
(669,287,cs),
(669,250,o),
(662,202,o),
(654,179,c)
);
},
{
closed = 1;
nodes = (
(800,202,o),
(805,246,o),
(820,283,cs),
(835,319,o),
(859,348,o),
(900,348,cs),
(940,348,o),
(962,311,o),
(962,277,cs),
(962,205,o),
(896,169,o),
(817,169,cs),
(812,169,o),
(808,169,o),
(797,171,c)
);
}
);
width = 1183;
}
);
note = uni0723;
unicode = 1827;
},
{
glyphname = uni0723.fina;
lastChange = "2023-01-02 10:13:56 +0000";
layers = (
{
anchors = (
{
name = bottom;
pos = (626,-98);
},
{
name = top;
pos = (678,519);
}
);
layerId = m01;
shapes = (
{
closed = 1;
nodes = (
(969,335,o),
(906,410,o),
(812,410,cs),
(743,410,o),
(695,376,o),
(665,318,c),
(661,317,l),
(643,389,o),
(579,425,o),
(513,425,cs),
(389,425,o),
(320,330,o),
(320,214,cs),
(320,156,o),
(340,111,o),
(374,76,c),
(372,73,l),
(335,75,o),
(290,76,o),
(271,76,cs),
(262,76,ls),
(174,76,o),
(129,89,o),
(94,138,c),
(49,78,l),
(69,30,o),
(136,0,o),
(240,0,cs),
(395,0,l),
(413,43,l),
(418,43,l),
(473,10,o),
(547,-5,o),
(628,-5,cs),
(717,-5,o),
(802,5,o),
(865,41,c),
(870,41,l),
(908,7,o),
(973,0,o),
(1025,0,cs),
(1032,0,l),
(1032,76,l),
(1021,76,ls),
(986,76,o),
(942,79,o),
(926,92,c),
(953,128,o),
(969,175,o),
(969,238,cs)
);
},
{
closed = 1;
nodes = (
(451,81,o),
(395,142,o),
(395,226,cs),
(395,297,o),
(438,350,o),
(503,350,cs),
(583,350,o),
(603,292,o),
(603,232,cs),
(603,189,o),
(597,137,o),
(583,73,c)
);
},
{
closed = 1;
nodes = (
(660,71,o),
(656,71,o),
(653,71,c),
(660,120,o),
(664,148,o),
(681,208,cs),
(706,298,o),
(747,334,o),
(804,334,cs),
(856,334,o),
(894,295,o),
(894,230,cs),
(894,119,o),
(839,73,o),
(663,71,cs)
);
}
);
width = 1032;
},
{
anchors = (
{
name = bottom;
pos = (546,-98);
},
{
name = top;
pos = (599,461);
}
);
layerId = "1C3A187F-9439-4340-B0A6-CD0525AA1AFE";
shapes = (
{
closed = 1;
nodes = (
(854,313,o),
(795,369,o),
(720,369,cs),
(667,369,o),
(595,347,o),
(569,235,c),
(567,235,l),
(566,332,o),
(507,377,o),
(434,377,cs),
(334,377,o),
(273,291,o),
(273,206,cs),
(273,109,o),
(317,55,o),
(378,26,c),
(377,24,l),
(361,25,o),
(284,25,o),
(274,25,cs),
(228,25,ls),
(137,25,o),
(106,34,o),
(77,73,c),
(60,53,l),
(77,23,o),
(113,0,o),
(197,0,cs),
(388,0,l),
(394,18,l),
(396,18,l),
(443,0,o),
(497,-5,o),
(550,-5,cs),
(623,-5,o),
(683,3,o),
(730,21,c),
(733,21,l),
(770,0,o),
(852,0,o),
(912,0,cs),
(929,0,l),
(929,25,l),
(912,25,ls),
(838,25,o),
(786,26,o),
(761,35,c),
(822,69,o),
(854,125,o),
(854,209,cs)
);
},
{
closed = 1;
nodes = (
(396,25,o),
(298,76,o),
(298,205,cs),
(298,280,o),
(352,353,o),
(433,353,cs),
(506,353,o),
(547,302,o),
(547,204,cs),
(547,171,o),
(535,85,o),
(524,20,c)
);
},
{
closed = 1;
nodes = (
(560,19,o),
(556,19,o),
(551,19,c),
(562,101,o),
(570,149,o),
(577,188,cs),
(600,314,o),
(663,344,o),
(718,344,cs),
(778,344,o),
(828,302,o),
(828,212,cs),
(828,93,o),
(768,22,o),
(565,19,cs)
);
}
);
width = 929;
},
{
anchors = (
{
name = bottom;
pos = (727,-98);
},
{
name = top;
pos = (782,621);
}
);
layerId = "DA9A8D32-36F4-433E-897C-B49E872243BC";
shapes = (
{
closed = 1;
nodes = (
(1126,415,o),
(1048,513,o),
(924,513,cs),
(869,513,o),
(809,494,o),
(773,435,c),
(768,436,l),
(735,494,o),
(673,526,o),
(599,526,cs),
(457,526,o),
(366,419,o),
(366,280,cs),
(366,246,o),
(370,215,o),
(378,187,c),
(376,183,l),
(368,184,o),
(359,185,o),
(350,185,cs),
(312,185,ls),
(240,185,o),
(177,188,o),
(132,247,c),
(37,130,l),
(61,45,o),
(163,0,o),
(307,0,cs),
(413,0,l),
(449,76,l),
(452,76,l),
(514,19,o),
(604,-6,o),
(739,-6,cs),
(842,-6,o),
(940,9,o),
(1017,61,c),
(1022,61,l),
(1064,14,o),
(1118,0,o),
(1178,0,cs),
(1183,0,l),
(1183,185,l),
(1178,185,ls),
(1153,185,o),
(1123,194,o),
(1116,205,c),
(1122,231,o),
(1126,258,o),
(1126,289,cs)
);
},
{
closed = 1;
nodes = (
(567,183,o),
(530,221,o),
(530,286,cs),
(530,338,o),
(560,372,o),
(603,372,cs),
(655,372,o),
(669,328,o),
(669,287,cs),
(669,250,o),
(662,202,o),
(654,179,c)
);
},
{
closed = 1;
nodes = (
(800,202,o),
(805,246,o),
(820,283,cs),
(835,319,o),
(859,348,o),
(900,348,cs),
(940,348,o),
(962,311,o),
(962,277,cs),
(962,205,o),
(896,169,o),
(817,169,cs),
(810,169,o),
(803,170,o),
(797,171,c)
);
}
);
width = 1183;
}
);
note = uni0723.fina;
},
{
glyphname = uni0723.medi;
lastChange = "2023-01-03 12:25:41 +0000";
layers = (
{
anchors = (
{
name = bottom;
pos = (365,-98);
},
{
name = top;
pos = (417,519);
}
);
layerId = m01;
shapes = (
{
closed = 1;
nodes = (
(716,335,o),
(653,410,o),
(559,410,cs),
(490,410,o),
(442,376,o),
(412,318,c),
(408,317,l),
(390,389,o),
(326,425,o),
(260,425,cs),
(136,425,o),
(67,330,o),
(67,214,cs),
(67,156,o),
(87,111,o),
(121,76,c),
(119,73,l),
(82,75,o),
(37,76,o),
(18,76,cs),
(0,76,ls),
(-21,76,o),
(-39,61,o),
(-39,38,cs),
(-39,14,o),
(-21,0,o),
(0,0,cs),
(142,0,l),
(160,43,l),
(165,43,l),
(220,10,o),
(294,-5,o),
(375,-5,cs),
(464,-5,o),
(549,5,o),
(612,41,c),
(617,41,l),
(655,7,o),
(720,0,o),
(772,0,cs),
(779,0,l),
(779,76,l),
(768,76,ls),
(733,76,o),
(689,79,o),
(673,92,c),
(700,128,o),
(716,175,o),
(716,238,cs)
);
},
{
closed = 1;
nodes = (
(198,81,o),
(142,142,o),
(142,226,cs),
(142,297,o),
(185,350,o),
(250,350,cs),
(330,350,o),
(350,292,o),
(350,232,cs),
(350,189,o),
(344,137,o),
(330,73,c)
);
},
{
closed = 1;
nodes = (
(603,334,o),
(641,295,o),
(641,230,cs),
(641,119,o),
(585,73,o),
(409,71,cs),
(406,71,o),
(403,71,o),
(400,71,c),
(401,78,o),
(411,148,o),
(428,208,cs),
(453,298,o),
(494,334,o),
(551,334,cs)
);
}
);
width = 779;
},
{
anchors = (
{
name = bottom;
pos = (350,-99);
},
{
name = top;
pos = (401,462);
}
);
layerId = "1C3A187F-9439-4340-B0A6-CD0525AA1AFE";
shapes = (
{
closed = 1;
nodes = (
(656,313,o),
(597,369,o),
(522,369,cs),
(469,369,o),
(397,347,o),
(371,235,c),
(369,235,l),
(368,332,o),
(309,377,o),
(236,377,cs),
(136,377,o),
(75,291,o),
(75,206,cs),
(75,109,o),
(119,55,o),
(180,26,c),
(179,24,l),
(163,25,o),
(86,25,o),
(76,25,cs),
(0,25,ls),
(-19,25,o),
(-40,21,o),
(-40,13,cs),
(-40,4,o),
(-19,0,o),
(0,0,cs),
(190,0,l),
(196,18,l),
(198,18,l),
(245,0,o),
(299,-5,o),
(352,-5,cs),
(425,-5,o),
(485,3,o),
(532,21,c),
(535,21,l),
(572,0,o),
(654,0,o),
(714,0,cs),
(731,0,l),
(731,25,l),
(714,25,ls),
(640,25,o),
(588,26,o),
(563,35,c),
(624,69,o),
(656,125,o),
(656,209,cs)
);
},
{
closed = 1;
nodes = (
(198,25,o),
(100,76,o),
(100,205,cs),
(100,280,o),
(154,353,o),
(235,353,cs),
(308,353,o),
(349,302,o),
(349,204,cs),
(349,171,o),
(337,85,o),
(326,20,c)
);
},
{
closed = 1;
nodes = (
(580,344,o),
(630,302,o),
(630,212,cs),
(630,92,o),
(569,22,o),
(365,19,cs),
(361,19,o),
(357,19,o),
(353,19,c),
(364,101,o),
(372,149,o),
(379,188,cs),
(402,314,o),
(465,344,o),
(520,344,cs)
);
}
);
width = 731;
},
{
anchors = (
{
name = bottom;
pos = (420,-96);
},
{
name = top;
pos = (475,621);
}
);
layerId = "DA9A8D32-36F4-433E-897C-B49E872243BC";
shapes = (
{
closed = 1;
nodes = (
(820,415,o),
(742,513,o),
(618,513,cs),
(563,513,o),
(503,494,o),
(467,435,c),
(462,436,l),
(429,494,o),
(367,526,o),
(293,526,cs),
(151,526,o),
(60,419,o),
(60,280,cs),
(60,246,o),
(64,215,o),
(72,187,c),
(70,183,l),
(62,184,o),
(53,185,o),
(44,185,cs),
(0,185,ls),
(-24,185,o),
(-40,141,o),
(-40,92,cs),
(-40,42,o),
(-24,0,o),
(0,0,cs),
(107,0,l),
(143,76,l),
(146,76,l),
(208,19,o),
(298,-6,o),
(433,-6,cs),
(536,-6,o),
(634,9,o),
(711,61,c),
(716,61,l),
(759,14,o),
(815,0,o),
(872,0,cs),
(877,0,l),
(877,185,l),
(872,185,ls),
(847,185,o),
(817,193,o),
(810,205,c),
(816,231,o),
(820,258,o),
(820,289,cs)
);
},
{
closed = 1;
nodes = (
(261,183,o),
(224,221,o),
(224,286,cs),
(224,338,o),
(254,372,o),
(297,372,cs),
(349,372,o),
(363,328,o),
(363,287,cs),
(363,250,o),
(356,202,o),
(348,179,c)
);
},
{
closed = 1;
nodes = (
(634,348,o),
(656,311,o),
(656,277,cs),
(656,205,o),
(590,169,o),
(511,169,cs),
(504,169,o),
(497,170,o),
(491,171,c),
(494,202,o),
(499,246,o),
(514,283,cs),
(529,319,o),
(553,348,o),
(594,348,cs)
);
}
);
width = 877;
}
);
note = uni0723.medi;
},
{
glyphname = uni0723.init;
lastChange = "2023-01-02 10:16:16 +0000";
layers = (
{
anchors = (
{
name = bottom;
pos = (365,-98);
},
{
name = top;
pos = (416,519);
}
);
layerId = m01;
shapes = (
{
closed = 1;
nodes = (
(716,335,o),
(653,410,o),
(559,410,cs),
(490,410,o),
(442,376,o),
(412,318,c),
(408,317,l),
(390,389,o),
(326,425,o),
(260,425,cs),
(136,425,o),
(67,330,o),
(67,214,cs),
(67,156,o),
(87,111,o),
(121,76,c),
(119,73,l),
(82,75,o),
(37,76,o),
(18,76,cs),
(0,76,ls),
(-21,76,o),
(-39,61,o),
(-39,38,cs),
(-39,14,o),
(-21,0,o),
(0,0,cs),
(142,0,l),
(160,43,l),
(165,43,l),
(220,10,o),
(294,-5,o),
(375,-5,cs),
(559,-5,o),
(716,36,o),
(716,238,cs)
);
},
{
closed = 1;
nodes = (
(198,81,o),
(142,142,o),
(142,226,cs),
(142,297,o),
(185,350,o),
(250,350,cs),
(330,350,o),
(350,292,o),
(350,232,cs),
(350,189,o),
(344,137,o),
(330,73,c)
);
},
{
closed = 1;
nodes = (
(407,120,o),
(411,148,o),
(428,208,cs),
(453,298,o),
(494,334,o),
(551,334,cs),
(603,334,o),
(641,295,o),
(641,230,cs),
(641,119,o),
(585,72,o),
(409,71,cs),
(406,71,o),
(403,71,o),
(400,71,c)
);
}
);
width = 784;
},
{
anchors = (
{
name = bottom;
pos = (350,-98);
},
{
name = top;
pos = (402,462);
}
);
layerId = "1C3A187F-9439-4340-B0A6-CD0525AA1AFE";
shapes = (
{
closed = 1;
nodes = (
(656,313,o),
(597,369,o),
(522,369,cs),
(469,369,o),
(397,347,o),
(371,235,c),
(369,235,l),
(368,332,o),
(309,377,o),
(236,377,cs),
(136,377,o),
(75,291,o),
(75,206,cs),
(75,109,o),
(119,55,o),
(180,26,c),
(179,24,l),
(163,25,o),
(86,25,o),
(76,25,cs),
(0,25,ls),
(-19,25,o),
(-40,21,o),
(-40,13,cs),
(-40,4,o),
(-19,0,o),
(0,0,cs),
(190,0,l),
(196,18,l),
(198,18,l),
(245,0,o),
(299,-5,o),
(352,-5,cs),
(551,-5,o),
(656,56,o),
(656,209,cs)
);
},
{
closed = 1;
nodes = (
(198,25,o),
(100,76,o),
(100,205,cs),
(100,280,o),
(154,353,o),
(235,353,cs),
(308,353,o),
(349,302,o),
(349,204,cs),
(349,171,o),
(337,85,o),
(326,20,c)
);
},
{
closed = 1;
nodes = (
(364,101,o),
(372,149,o),
(379,188,cs),
(402,314,o),
(465,344,o),
(520,344,cs),
(580,344,o),
(630,302,o),
(630,212,cs),
(630,92,o),
(569,21,o),
(364,19,cs),
(360.333,19,o),
(356.667,19,o),
(353,19,c)
);
}
);
width = 736;
},
{
anchors = (
{
name = bottom;
pos = (420,-98);
},
{
name = top;
pos = (477,620);
}
);
layerId = "DA9A8D32-36F4-433E-897C-B49E872243BC";
shapes = (
{
closed = 1;
nodes = (
(820,415,o),
(742,513,o),
(618,513,cs),
(563,513,o),
(503,494,o),
(467,435,c),
(462,436,l),
(429,494,o),
(367,526,o),
(293,526,cs),
(151,526,o),
(60,419,o),
(60,280,cs),
(60,246,o),
(64,215,o),
(72,187,c),
(70,183,l),
(62,184,o),
(53,185,o),
(44,185,cs),
(0,185,ls),
(-24,185,o),
(-40,141,o),
(-40,92,cs),
(-40,42,o),
(-24,0,o),
(0,0,cs),
(107,0,l),
(143,76,l),
(146,76,l),
(208,19,o),
(298,-6,o),
(433,-6,cs),
(649,-6,o),
(820,69,o),
(820,289,cs)
);
},
{
closed = 1;
nodes = (
(261,183,o),
(224,221,o),
(224,286,cs),
(224,338,o),
(254,372,o),
(297,372,cs),
(349,372,o),
(363,328,o),
(363,287,cs),
(363,250,o),
(356,202,o),
(348,179,c)
);
},
{
closed = 1;
nodes = (
(494,202,o),
(499,246,o),
(514,283,cs),
(529,319,o),
(553,348,o),
(594,348,cs),
(634,348,o),
(656,311,o),
(656,277,cs),
(656,205,o),
(590,169,o),
(511,169,cs),
(504,169,o),
(497,170,o),
(491,171,c)
);
}
);
width = 877;
}
);
note = uni0723.init;
},
{
glyphname = uni0724;
lastChange = "2023-01-02 10:16:29 +0000";
layers = (
{
anchors = (
{
name = bottom;
pos = (324,-216);
},
{
name = top;
pos = (420,519);
}
);
layerId = m01;
shapes = (
{
closed = 1;
nodes = (
(717,335,o),
(654,410,o),
(560,410,cs),
(491,410,o),
(443,376,o),
(413,318,c),
(409,317,l),
(391,389,o),
(327,425,o),
(261,425,cs),
(137,425,o),
(68,330,o),
(68,214,cs),
(68,79,o),
(177,11,o),
(321,-2,c),
(302,-125,l),
(368,-131,l),
(389,-5,l),
(567,-3,o),
(717,41,o),
(717,238,cs)
);
},
{
closed = 1;
nodes = (
(201,81,o),
(143,142,o),
(143,226,cs),
(143,297,o),
(186,350,o),
(251,350,cs),
(331,350,o),
(351,292,o),
(351,232,cs),
(351,189,o),
(344,137,o),
(333,73,c)
);
},
{
closed = 1;
nodes = (
(410,123,o),
(417,159,o),
(426,200,cs),
(446,290,o),
(495,334,o),
(552,334,cs),
(604,334,o),
(642,295,o),
(642,230,cs),
(642,119,o),
(586,73,o),
(411,71,cs),
(407.667,71,o),
(404.333,71,o),
(401,71,c)
);
}
);
width = 785;
},
{
anchors = (
{
name = bottom;
pos = (316,-210);
},
{
name = top;
pos = (402,461);
}
);
layerId = "1C3A187F-9439-4340-B0A6-CD0525AA1AFE";
shapes = (
{
closed = 1;
nodes = (
(661,313,o),
(602,369,o),
(527,369,cs),
(474,369,o),
(402,347,o),
(376,235,c),
(374,235,l),
(373,332,o),
(314,377,o),
(241,377,cs),
(141,377,o),
(80,291,o),
(80,206,cs),
(80,42,o),
(204,0,o),
(328,-4,c),
(313,-119,l),
(338,-121,l),
(354,-5,l),
(556,-5,o),
(661,56,o),
(661,209,cs)
);
},
{
closed = 1;
nodes = (
(204,25,o),
(105,76,o),
(105,205,cs),
(105,280,o),
(159,353,o),
(240,353,cs),
(313,353,o),
(354,302,o),
(354,204,cs),
(354,171,o),
(342,85,o),
(332,20,c)
);
},
{
closed = 1;
nodes = (
(369,101,o),
(377,149,o),
(384,188,cs),
(407,314,o),
(470,344,o),
(525,344,cs),
(585,344,o),
(635,302,o),
(635,212,cs),
(635,92,o),
(574,22,o),
(369,19,cs),
(365.333,19,o),
(361.667,19,o),
(358,19,c)
);
}
);
width = 741;
},
{
anchors = (
{
name = bottom;
pos = (357,-259);
},
{
name = top;
pos = (474,621);
}
);
layerId = "DA9A8D32-36F4-433E-897C-B49E872243BC";
shapes = (
{
closed = 1;
nodes = (
(818,415,o),
(740,513,o),
(616,513,cs),
(561,513,o),
(501,494,o),
(465,435,c),
(460,436,l),
(427,494,o),
(365,526,o),
(291,526,cs),
(149,526,o),
(58,419,o),
(58,280,cs),
(58,126,o),
(145,30,o),
(319,2,c),
(294,-167,l),
(442,-182,l),
(468,-5,l),
(687,3,o),
(818,96,o),
(818,289,cs)
);
},
{
closed = 1;
nodes = (
(263,183,o),
(222,221,o),
(222,286,cs),
(222,338,o),
(252,372,o),
(295,372,cs),
(347,372,o),
(361,328,o),
(361,287,cs),
(361,250,o),
(352,202,o),
(350,179,c)
);
},
{
closed = 1;
nodes = (
(493,204,o),
(500,248,o),
(516,284,cs),
(532,320,o),
(555,348,o),
(592,348,cs),
(632,348,o),
(654,311,o),
(654,277,cs),
(654,205,o),
(588,169,o),
(509,169,cs),
(502,169,o),
(494,170,o),
(487,171,c)
);
}
);
width = 875;
}
);
note = uni0724;
unicode = 1828;
},
{
glyphname = uni0724.fina;
lastChange = "2023-01-02 10:16:40 +0000";
layers = (
{
anchors = (
{
name = bottom;
pos = (327,-216);
},
{
name = top;
pos = (420,519);
}
);
layerId = m01;
shapes = (
{
closed = 1;
nodes = (
(717,335,o),
(654,410,o),
(560,410,cs),
(491,410,o),
(443,376,o),
(413,318,c),
(409,317,l),
(391,389,o),
(327,425,o),
(261,425,cs),
(137,425,o),
(68,330,o),
(68,214,cs),
(68,79,o),
(177,11,o),
(321,-2,c),
(302,-125,l),
(368,-131,l),
(389,-5,l),
(476,-4,o),
(556,7,o),
(615,41,c),
(618,41,l),
(656,7,o),
(721,0,o),
(773,0,cs),
(780,0,l),
(780,76,l),
(769,76,ls),
(735,76,o),
(691,79,o),
(674,92,c),
(701,127,o),
(717,174,o),
(717,238,cs)
);
},
{
closed = 1;
nodes = (
(201,81,o),
(143,142,o),
(143,226,cs),
(143,297,o),
(186,350,o),
(251,350,cs),
(331,350,o),
(351,292,o),
(351,232,cs),
(351,189,o),
(344,137,o),
(333,73,c)
);
},
{
closed = 1;
nodes = (
(411,123,o),
(417,159,o),
(426,200,cs),
(446,290,o),
(495,334,o),
(552,334,cs),
(604,334,o),
(642,295,o),
(642,230,cs),
(642,119,o),
(586,73,o),
(412,71,cs),
(408.333,71,o),
(404.667,71,o),
(401,71,c)
);
}
);
width = 780;
},
{
anchors = (
{
name = bottom;
pos = (316,-207);
},
{
name = top;
pos = (401,464);
}
);
layerId = "1C3A187F-9439-4340-B0A6-CD0525AA1AFE";
shapes = (
{
closed = 1;
nodes = (
(661,313,o),
(602,369,o),
(527,369,cs),
(474,369,o),
(402,347,o),
(376,235,c),
(374,235,l),
(373,332,o),
(314,377,o),
(241,377,cs),
(141,377,o),
(80,291,o),
(80,206,cs),
(80,42,o),
(204,0,o),
(328,-4,c),
(313,-119,l),
(338,-121,l),
(354,-5,l),
(430,-5,o),
(490,3,o),
(537,21,c),
(540,21,l),
(577,0,o),
(659,0,o),
(719,0,cs),
(736,0,l),
(736,25,l),
(719,25,ls),
(645,25,o),
(593,26,o),
(568,35,c),
(629,69,o),
(661,125,o),
(661,209,cs)
);
},
{
closed = 1;
nodes = (
(204,25,o),
(105,76,o),
(105,205,cs),
(105,280,o),
(159,353,o),
(240,353,cs),
(313,353,o),
(354,302,o),
(354,204,cs),
(354,171,o),
(342,85,o),
(332,20,c)
);
},
{
closed = 1;
nodes = (
(369,101,o),
(377,149,o),
(384,188,cs),
(407,314,o),
(470,344,o),
(525,344,cs),
(585,344,o),
(635,302,o),
(635,212,cs),
(635,92,o),
(574,22,o),
(370,19,cs),
(366,19,o),
(362,19,o),
(358,19,c)
);
}
);
width = 736;
},
{
anchors = (
{
name = bottom;
pos = (357,-262);
},
{
name = top;
pos = (475,621);
}
);
layerId = "DA9A8D32-36F4-433E-897C-B49E872243BC";
shapes = (
{
closed = 1;
nodes = (
(818,415,o),
(740,513,o),
(616,513,cs),
(561,513,o),
(501,494,o),
(465,435,c),
(460,436,l),
(427,494,o),
(365,526,o),
(291,526,cs),
(149,526,o),
(58,419,o),
(58,280,cs),
(58,126,o),
(145,30,o),
(319,2,c),
(294,-167,l),
(442,-182,l),
(468,-5,l),
(568,-1,o),
(650,20,o),
(709,61,c),
(714,61,l),
(757,13,o),
(811,0,o),
(870,0,cs),
(875,0,l),
(875,185,l),
(870,185,ls),
(850,185,o),
(815,193,o),
(808,205,c),
(814,230,o),
(818,258,o),
(818,289,cs)
);
},
{
closed = 1;
nodes = (
(263,183,o),
(222,221,o),
(222,286,cs),
(222,338,o),
(252,372,o),
(295,372,cs),
(347,372,o),
(361,328,o),
(361,287,cs),
(361,250,o),
(352,202,o),
(350,179,c)
);
},
{
closed = 1;
nodes = (
(492,204,o),
(500,248,o),
(516,284,cs),
(532,320,o),
(555,348,o),
(592,348,cs),
(632,348,o),
(654,311,o),
(654,277,cs),
(654,205,o),
(588,169,o),
(509,169,cs),
(502,169,o),
(494,170,o),
(487,171,c)
);
}
);
width = 875;
}
);
note = uni0724.fina;
},
{
glyphname = uni0724.medi;
lastChange = "2023-01-02 10:19:05 +0000";
layers = (
{
anchors = (
{
name = bottom;
pos = (364,-98);
},
{
name = top;
pos = (416,519);
}
);
layerId = m01;
shapes = (
{
closed = 1;
nodes = (
(716,335,o),
(653,410,o),
(559,410,cs),
(490,410,o),
(442,376,o),
(412,318,c),
(408,317,l),
(390,389,o),
(326,425,o),
(260,425,cs),
(136,425,o),
(67,330,o),
(67,214,cs),
(67,156,o),
(87,111,o),
(121,76,c),
(119,73,l),
(82,75,o),
(37,76,o),
(18,76,cs),
(0,76,ls),
(-21,76,o),
(-39,61,o),
(-39,38,cs),
(-39,14,o),
(-21,0,o),
(0,0,cs),
(142,0,l),
(160,43,l),
(165,43,l),
(220,10,o),
(294,-5,o),
(375,-5,cs),
(464,-5,o),
(549,5,o),
(612,41,c),
(617,41,l),
(655,7,o),
(720,0,o),
(772,0,cs),
(779,0,l),
(779,76,l),
(768,76,ls),
(733,76,o),
(689,79,o),
(673,92,c),
(700,128,o),
(716,175,o),
(716,238,cs)
);
},
{
closed = 1;
nodes = (
(198,81,o),
(142,142,o),
(142,226,cs),
(142,297,o),
(185,350,o),
(250,350,cs),
(330,350,o),
(350,292,o),
(350,232,cs),
(350,189,o),
(344,137,o),
(330,73,c)
);
},
{
closed = 1;
nodes = (
(409,120,o),
(411,148,o),
(428,208,cs),
(453,298,o),
(494,334,o),
(551,334,cs),
(603,334,o),
(641,295,o),
(641,230,cs),
(641,119,o),
(585,73,o),
(409,71,cs),
(406,71,o),
(403,71,o),
(400,71,c)
);
}
);
width = 779;
},
{
anchors = (
{
name = bottom;
pos = (351,-98);
},
{
name = top;
pos = (404,462);
}
);
layerId = "1C3A187F-9439-4340-B0A6-CD0525AA1AFE";
shapes = (
{
closed = 1;
nodes = (
(660,313,o),
(601,369,o),
(526,369,cs),
(473,369,o),
(401,347,o),
(375,235,c),
(373,235,l),
(372,332,o),
(313,377,o),
(240,377,cs),
(140,377,o),
(79,291,o),
(79,206,cs),
(79,109,o),
(123,55,o),
(184,26,c),
(183,24,l),
(167,25,o),
(90,25,o),
(80,25,cs),
(4,25,ls),
(-15,25,o),
(-36,21,o),
(-36,13,cs),
(-36,4,o),
(-15,0,o),
(4,0,cs),
(194,0,l),
(200,18,l),
(202,18,l),
(249,0,o),
(303,-5,o),
(356,-5,cs),
(429,-5,o),
(489,3,o),
(536,21,c),
(539,21,l),
(576,0,o),
(658,0,o),
(718,0,cs),
(735,0,l),
(735,25,l),
(718,25,ls),
(644,25,o),
(592,26,o),
(567,35,c),
(628,69,o),
(660,125,o),
(660,209,cs)
);
},
{
closed = 1;
nodes = (
(202,25,o),
(104,76,o),
(104,205,cs),
(104,280,o),
(158,353,o),
(239,353,cs),
(312,353,o),
(353,302,o),
(353,204,cs),
(353,171,o),
(341,85,o),
(330,20,c)
);
},
{
closed = 1;
nodes = (
(368,101,o),
(376,149,o),
(383,188,cs),
(406,314,o),
(469,344,o),
(524,344,cs),
(584,344,o),
(634,302,o),
(634,212,cs),
(634,92,o),
(573,22,o),
(369,19,cs),
(365,19,o),
(361,19,o),
(357,19,c)
);
}
);
width = 735;
},
{
anchors = (
{
name = bottom;
pos = (420,-98);
},
{
name = top;
pos = (475,621);
}
);
layerId = "DA9A8D32-36F4-433E-897C-B49E872243BC";
shapes = (
{
closed = 1;
nodes = (
(820,415,o),
(742,513,o),
(618,513,cs),
(563,513,o),
(503,494,o),
(467,435,c),
(462,436,l),
(429,494,o),
(367,526,o),
(293,526,cs),
(151,526,o),
(60,419,o),
(60,280,cs),
(60,246,o),
(64,215,o),
(72,187,c),
(70,183,l),
(63,184,o),
(53,185,o),
(44,185,cs),
(0,185,ls),
(-24,185,o),
(-40,141,o),
(-40,92,cs),
(-40,42,o),
(-24,0,o),
(0,0,cs),
(107,0,l),
(143,76,l),
(146,76,l),
(208,19,o),
(298,-6,o),
(433,-6,cs),
(536,-6,o),
(634,9,o),
(711,61,c),
(716,61,l),
(759,14,o),
(815,0,o),
(872,0,cs),
(877,0,l),
(877,185,l),
(872,185,ls),
(847,185,o),
(817,193,o),
(810,205,c),
(816,231,o),
(820,258,o),
(820,289,cs)
);
},
{
closed = 1;
nodes = (
(261,183,o),
(224,221,o),
(224,286,cs),
(224,338,o),
(254,372,o),
(297,372,cs),
(349,372,o),
(363,328,o),
(363,287,cs),
(363,250,o),
(356,202,o),
(348,179,c)
);
},
{
closed = 1;
nodes = (
(494,202,o),
(499,246,o),
(514,283,cs),
(529,319,o),
(553,348,o),
(594,348,cs),
(634,348,o),
(656,311,o),
(656,277,cs),
(656,205,o),
(590,169,o),
(511,169,cs),
(504,169,o),
(502,169,o),
(491,171,c)
);
}
);
width = 877;
}
);
note = uni0724.medi;
},
{
glyphname = uni0724.init;
lastChange = "2023-01-02 10:19:17 +0000";
layers = (
{
anchors = (
{
name = bottom;
pos = (364,-98);
},
{
name = top;
pos = (420,519);
}
);
layerId = m01;
shapes = (
{
closed = 1;
nodes = (
(716,335,o),
(653,410,o),
(559,410,cs),
(490,410,o),
(442,376,o),
(412,318,c),
(408,317,l),
(390,389,o),
(326,425,o),
(260,425,cs),
(136,425,o),
(67,330,o),
(67,214,cs),
(67,156,o),
(87,111,o),
(121,76,c),
(119,73,l),
(82,75,o),
(37,76,o),
(18,76,cs),
(0,76,ls),
(-21,76,o),
(-39,61,o),
(-39,38,cs),
(-39,14,o),
(-21,0,o),
(0,0,cs),
(142,0,l),
(160,43,l),
(165,43,l),
(220,10,o),
(294,-5,o),
(375,-5,cs),
(559,-5,o),
(716,36,o),
(716,238,cs)
);
},
{
closed = 1;
nodes = (
(198,81,o),
(142,142,o),
(142,226,cs),
(142,297,o),
(185,350,o),
(250,350,cs),
(330,350,o),
(350,292,o),
(350,232,cs),
(350,189,o),
(344,137,o),
(330,73,c)
);
},
{
closed = 1;
nodes = (
(409,120,o),
(411,148,o),
(428,208,cs),
(453,298,o),
(494,334,o),
(551,334,cs),
(603,334,o),
(641,295,o),
(641,230,cs),
(641,119,o),
(585,72,o),
(409,71,cs),
(406,71,o),
(403,71,o),
(400,71,c)
);
}
);
width = 784;
},
{
anchors = (
{
name = bottom;
pos = (351,-98);
},
{
name = top;
pos = (402,464);
}
);
layerId = "1C3A187F-9439-4340-B0A6-CD0525AA1AFE";
shapes = (
{
closed = 1;
nodes = (
(660,313,o),
(601,369,o),
(526,369,cs),
(473,369,o),
(401,347,o),
(375,235,c),
(373,235,l),
(372,332,o),
(313,377,o),
(240,377,cs),
(140,377,o),
(79,291,o),
(79,206,cs),
(79,109,o),
(123,55,o),
(184,26,c),
(183,24,l),
(167,25,o),
(90,25,o),
(80,25,cs),
(4,25,ls),
(-15,25,o),
(-36,21,o),
(-36,13,cs),
(-36,4,o),
(-15,0,o),
(4,0,cs),
(194,0,l),
(200,18,l),
(202,18,l),
(249,0,o),
(303,-5,o),
(356,-5,cs),
(555,-5,o),
(660,56,o),
(660,209,cs)
);
},
{
closed = 1;
nodes = (
(202,25,o),
(104,76,o),
(104,205,cs),
(104,280,o),
(158,353,o),
(239,353,cs),
(312,353,o),
(353,302,o),
(353,204,cs),
(353,171,o),
(341,85,o),
(330,20,c)
);
},
{
closed = 1;
nodes = (
(368,101,o),
(376,149,o),
(383,188,cs),
(406,314,o),
(469,344,o),
(524,344,cs),
(584,344,o),
(634,302,o),
(634,212,cs),
(634,92,o),
(573,21,o),
(368,19,cs),
(364.333,19,o),
(360.667,19,o),
(357,19,c)
);
}
);
width = 740;
},
{
anchors = (
{
name = bottom;
pos = (421,-98);
},
{
name = top;
pos = (475,621);
}
);
layerId = "DA9A8D32-36F4-433E-897C-B49E872243BC";
shapes = (
{
closed = 1;
nodes = (
(820,415,o),
(742,513,o),
(618,513,cs),
(563,513,o),
(503,494,o),
(467,435,c),
(462,436,l),
(429,494,o),
(367,526,o),
(293,526,cs),
(151,526,o),
(60,419,o),
(60,280,cs),
(60,246,o),
(64,215,o),
(72,187,c),
(70,183,l),
(62,184,o),
(53,185,o),
(44,185,cs),
(0,185,ls),
(-24,185,o),
(-40,141,o),
(-40,92,cs),
(-40,42,o),
(-24,0,o),
(0,0,cs),
(107,0,l),
(143,76,l),
(146,76,l),
(208,19,o),
(298,-6,o),
(433,-6,cs),
(649,-6,o),
(820,69,o),
(820,289,cs)
);
},
{
closed = 1;
nodes = (
(261,183,o),
(224,221,o),
(224,286,cs),
(224,338,o),
(254,372,o),
(297,372,cs),
(349,372,o),
(363,328,o),
(363,287,cs),
(363,250,o),
(356,202,o),
(348,179,c)
);
},
{
closed = 1;
nodes = (
(494,202,o),
(499,246,o),
(514,283,cs),
(529,319,o),
(553,348,o),
(594,348,cs),
(634,348,o),
(656,311,o),
(656,277,cs),
(656,205,o),
(590,169,o),
(511,169,cs),
(504,169,o),
(498,169,o),
(491,171,c)
);
}
);
width = 877;
}
);
note = uni0724.init;
},
{
glyphname = uni0725;
lastChange = "2023-01-02 09:26:46 +0000";
layers = (
{
anchors = (
{
name = bottom;
pos = (366,-98);
},
{
name = top;
pos = (307,532);
}
);
layerId = m01;
shapes = (
{
closed = 1;
nodes = (
(691,98,l),
(688,98,l),
(677,80,o),
(665,74,o),
(652,74,cs),
(631,74,o),
(616,84,o),
(592,119,cs),
(361,450,l),
(296,406,l),
(492,125,ls),
(504,108,o),
(519,87,o),
(529,76,c),
(267,76,ls),
(175,76,o),
(127,90,o),
(94,138,c),
(49,78,l),
(69,30,o),
(136,0,o),
(240,0,cs),
(532,0,l),
(551,46,l),
(553,46,l),
(582,13,o),
(607,-3,o),
(644,-3,cs),
(681,-3,o),
(711,17,o),
(728,45,c)
);
}
);
width = 776;
},
{
anchors = (
{
name = bottom;
pos = (341,-98);
},
{
name = top;
pos = (271,468);
}
);
layerId = "1C3A187F-9439-4340-B0A6-CD0525AA1AFE";
shapes = (
{
closed = 1;
nodes = (
(630,44,l),
(628,44,l),
(617,29,o),
(608,21,o),
(591,21,cs),
(570,21,o),
(557,38,o),
(536,68,cs),
(315,387,l),
(294,372,l),
(518,47,ls),
(523,40,o),
(528,33,o),
(535,25,c),
(228,25,ls),
(137,25,o),
(106,34,o),
(77,73,c),
(60,53,l),
(77,23,o),
(113,0,o),
(197,0,cs),
(532,0,l),
(540,18,l),
(542,18,l),
(557,2,o),
(573,-5,o),
(591,-5,cs),
(618,-5,o),
(635,13,o),
(644,28,c)
);
}
);
width = 704;
},
{
anchors = (
{
name = bottom;
pos = (333,-98);
},
{
name = top;
pos = (316,598);
}
);
layerId = "DA9A8D32-36F4-433E-897C-B49E872243BC";
shapes = (
{
closed = 1;
nodes = (
(768,214,l),
(763,214,l),
(745,189,o),
(730,180,o),
(711,180,cs),
(690,180,o),
(674,194,o),
(654,221,cs),
(417,553,l),
(277,458,l),
(399,283,ls),
(423,248,o),
(454,205,o),
(471,185,c),
(320,185,ls),
(245,185,o),
(177,188,o),
(132,247,c),
(37,130,l),
(61,45,o),
(156,0,o),
(300,0,cs),
(501,0,l),
(539,81,l),
(543,81,l),
(591,24,o),
(633,-2,o),
(692,-2,cs),
(733,-2,o),
(799,14,o),
(847,106,c)
);
}
);
width = 897;
}
);
note = uni0725;
unicode = 1829;
},
{
glyphname = uni0725.fina;
lastChange = "2023-01-02 09:26:46 +0000";
layers = (
{
anchors = (
{
name = bottom;
pos = (329,-98);
},
{
name = top;
pos = (310,531);
}
);
layerId = m01;
shapes = (
{
closed = 1;
nodes = (
(638,76,l),
(623,76,o),
(609,94,o),
(564,159,cs),
(361,450,l),
(296,406,l),
(492,125,ls),
(504,107,o),
(519,88,o),
(531,76,c),
(267,76,ls),
(175,76,o),
(127,90,o),
(94,138,c),
(49,78,l),
(69,30,o),
(136,0,o),
(240,0,cs),
(534,0,l),
(553,46,l),
(555,46,l),
(584,14,o),
(610,0,o),
(638,0,c)
);
}
);
width = 638;
},
{
anchors = (
{
name = bottom;
pos = (311,-98);
},
{
name = top;
pos = (271,470);
}
);
layerId = "1C3A187F-9439-4340-B0A6-CD0525AA1AFE";
shapes = (
{
closed = 1;
nodes = (
(588,25,l),
(568,25,o),
(563,29,o),
(547,53,cs),
(315,387,l),
(294,372,l),
(515,52,ls),
(521,43,o),
(527,34,o),
(534,25,c),
(228,25,ls),
(137,25,o),
(106,34,o),
(77,73,c),
(60,53,l),
(77,23,o),
(113,0,o),
(197,0,cs),
(531,0,l),
(538,18,l),
(540,18,l),
(547,8,o),
(555,0,o),
(588,0,c)
);
}
);
width = 588;
},
{
anchors = (
{
name = bottom;
pos = (334,-98);
},
{
name = top;
pos = (315,597);
}
);
layerId = "DA9A8D32-36F4-433E-897C-B49E872243BC";
shapes = (
{
closed = 1;
nodes = (
(706,185,l),
(683,185,o),
(676,190,o),
(643,236,cs),
(417,553,l),
(277,458,l),
(399,283,ls),
(423,248,o),
(454,205,o),
(471,185,c),
(320,185,ls),
(245,185,o),
(177,188,o),
(132,247,c),
(37,130,l),
(61,45,o),
(156,0,o),
(300,0,cs),
(501,0,l),
(539,81,l),
(543,81,l),
(603,11,o),
(650,0,o),
(706,0,c)
);
}
);
width = 706;
}
);
note = uni0725.fina;
},
{
glyphname = uni0725.medi;
lastChange = "2023-01-02 09:26:46 +0000";
layers = (
{
anchors = (
{
name = bottom;
pos = (198,-98);
},
{
name = top;
pos = (144,539);
}
);
layerId = m01;
shapes = (
{
closed = 1;
nodes = (
(421,76,l),
(408,76,o),
(393,95,o),
(348,159,cs),
(145,450,l),
(80,406,l),
(276,125,ls),
(288,108,o),
(303,88,o),
(314,76,c),
(0,76,ls),
(-21,76,o),
(-39,61,o),
(-39,38,cs),
(-39,14,o),
(-21,0,o),
(0,0,cs),
(318,0,l),
(337,46,l),
(339,46,l),
(367,14,o),
(394,0,o),
(421,0,c)
);
}
);
width = 421;
},
{
anchors = (
{
name = bottom;
pos = (198,-98);
},
{
name = top;
pos = (120,468);
}
);
layerId = "1C3A187F-9439-4340-B0A6-CD0525AA1AFE";
shapes = (
{
closed = 1;
nodes = (
(393,25,l),
(373,25,o),
(368,29,o),
(352,53,cs),
(120,387,l),
(99,372,l),
(321,51,ls),
(327,42,o),
(333,33,o),
(339,25,c),
(0,25,ls),
(-19,25,o),
(-40,21,o),
(-40,13,cs),
(-40,4,o),
(-19,0,o),
(0,0,cs),
(336,0,l),
(343,18,l),
(345,18,l),
(352,8,o),
(360,0,o),
(393,0,c)
);
}
);
width = 393;
},
{
anchors = (
{
name = bottom;
pos = (189,-98);
},
{
name = top;
pos = (90,597);
}
);
layerId = "DA9A8D32-36F4-433E-897C-B49E872243BC";
shapes = (
{
closed = 1;
nodes = (
(483,185,l),
(460,185,o),
(453,190,o),
(420,236,cs),
(194,553,l),
(54,458,l),
(176,283,ls),
(200,248,o),
(231,205,o),
(248,185,c),
(0,185,ls),
(-24,185,o),
(-40,141,o),
(-40,92,cs),
(-40,42,o),
(-24,0,o),
(0,0,cs),
(278,0,l),
(316,81,l),
(320,81,l),
(380,11,o),
(427,0,o),
(483,0,c)
);
}
);
width = 483;
}
);
note = uni0725.medi;
},
{
glyphname = uni0725.init;
lastChange = "2023-01-02 09:26:46 +0000";
layers = (
{
anchors = (
{
name = bottom;
pos = (198,-98);
},
{
name = top;
pos = (145,540);
}
);
layerId = m01;
shapes = (
{
closed = 1;
nodes = (
(476,98,l),
(473,98,l),
(462,80,o),
(450,74,o),
(437,74,cs),
(416,74,o),
(401,84,o),
(377,119,cs),
(146,450,l),
(81,406,l),
(277,125,ls),
(289,108,o),
(304,87,o),
(314,76,c),
(0,76,ls),
(-21,76,o),
(-39,61,o),
(-39,38,cs),
(-39,14,o),
(-21,0,o),
(0,0,cs),
(317,0,l),
(336,46,l),
(338,46,l),
(367,13,o),
(392,-3,o),
(429,-3,cs),
(466,-3,o),
(496,17,o),
(513,45,c)
);
}
);
width = 561;
},
{
anchors = (
{
name = bottom;
pos = (198,-98);
},
{
name = top;
pos = (118,468);
}
);
layerId = "1C3A187F-9439-4340-B0A6-CD0525AA1AFE";
shapes = (
{
closed = 1;
nodes = (
(435,44,l),
(433,44,l),
(422,29,o),
(413,21,o),
(396,21,cs),
(375,21,o),
(362,38,o),
(341,68,cs),
(120,387,l),
(99,372,l),
(323,47,ls),
(328,40,o),
(333,33,o),
(340,25,c),
(0,25,ls),
(-19,25,o),
(-40,21,o),
(-40,13,cs),
(-40,4,o),
(-19,0,o),
(0,0,cs),
(337,0,l),
(345,18,l),
(347,18,l),
(362,2,o),
(378,-5,o),
(396,-5,cs),
(423,-5,o),
(440,13,o),
(449,28,c)
);
}
);
width = 509;
},
{
anchors = (
{
name = bottom;
pos = (188,-98);
},
{
name = top;
pos = (92,596);
}
);
layerId = "DA9A8D32-36F4-433E-897C-B49E872243BC";
shapes = (
{
closed = 1;
nodes = (
(545,214,l),
(540,214,l),
(522,189,o),
(507,180,o),
(488,180,cs),
(467,180,o),
(451,194,o),
(431,221,cs),
(194,553,l),
(54,458,l),
(176,283,ls),
(200,248,o),
(231,205,o),
(248,185,c),
(0,185,ls),
(-24,185,o),
(-40,141,o),
(-40,92,cs),
(-40,42,o),
(-24,0,o),
(0,0,cs),
(278,0,l),
(316,81,l),
(320,81,l),
(368,24,o),
(410,-2,o),
(469,-2,cs),
(510,-2,o),
(576,14,o),
(624,106,c)
);
}
);
width = 674;
}
);
note = uni0725.init;
},
{
glyphname = uni0726;
lastChange = "2023-01-02 09:26:46 +0000";
layers = (
{
anchors = (
{
name = bottom;
pos = (366,-98);
},
{
name = top;
pos = (368,655);
}
);
layerId = m01;
shapes = (
{
closed = 1;
nodes = (
(648,0,l),
(681,66,l),
(541,589,l),
(469,565,l),
(310,538,o),
(225,464,o),
(225,359,cs),
(225,260,o),
(294,199,o),
(407,199,cs),
(566,199,l),
(599,76,l),
(262,76,ls),
(174,76,o),
(129,89,o),
(94,138,c),
(49,78,l),
(69,30,o),
(136,0,o),
(240,0,cs)
);
},
{
closed = 1;
nodes = (
(547,270,l),
(416,270,ls),
(341,270,o),
(304,300,o),
(304,367,cs),
(304,434,o),
(365,477,o),
(488,494,c)
);
}
);
width = 740;
},
{
anchors = (
{
name = bottom;
pos = (345,-98);
},
{
name = top;
pos = (348,629);
}
);
layerId = "1C3A187F-9439-4340-B0A6-CD0525AA1AFE";
shapes = (
{
closed = 1;
nodes = (
(614,0,l),
(628,20,l),
(497,542,l),
(473,534,l),
(289,504,o),
(228,432,o),
(228,342,cs),
(228,249,o),
(292,204,o),
(390,204,cs),
(556,204,l),
(601,25,l),
(228,25,ls),
(137,25,o),
(106,34,o),
(77,73,c),
(60,53,l),
(77,23,o),
(113,0,o),
(197,0,cs)
);
},
{
closed = 1;
nodes = (
(549,229,l),
(397,229,ls),
(307,229,o),
(255,263,o),
(255,343,cs),
(255,436,o),
(332,488,o),
(479,509,c)
);
}
);
width = 698;
},
{
anchors = (
{
name = bottom;
pos = (398,-100);
},
{
name = top;
pos = (419,730);
}
);
layerId = "DA9A8D32-36F4-433E-897C-B49E872243BC";
shapes = (
{
closed = 1;
nodes = (
(690,0,l),
(778,138,l),
(633,671,l),
(521,643,l),
(344,611,o),
(249,527,o),
(249,402,cs),
(249,280,o),
(333,231,o),
(471,231,cs),
(582,231,l),
(594,185,l),
(320,185,ls),
(245,185,o),
(177,188,o),
(132,247,c),
(37,130,l),
(61,45,o),
(163,0,o),
(307,0,cs)
);
},
{
closed = 1;
nodes = (
(553,370,l),
(469,370,ls),
(431,370,o),
(408,386,o),
(408,415,cs),
(408,448,o),
(430,477,o),
(521,488,c)
);
}
);
width = 825;
}
);
note = uni0726;
unicode = 1830;
},
{
glyphname = uni0726.fina;
lastChange = "2023-01-02 09:26:46 +0000";
layers = (
{
anchors = (
{
name = bottom;
pos = (366,-98);
},
{
name = top;
pos = (369,655);
}
);
layerId = m01;
shapes = (
{
closed = 1;
nodes = (
(723,76,l),
(681,76,o),
(678,82,o),
(663,137,cs),
(541,589,l),
(469,565,l),
(310,538,o),
(225,464,o),
(225,359,cs),
(225,260,o),
(294,199,o),
(407,199,cs),
(566,199,l),
(590,111,ls),
(593,99,o),
(596,87,o),
(600,76,c),
(262,76,ls),
(174,76,o),
(129,89,o),
(94,138,c),
(49,78,l),
(69,30,o),
(136,0,o),
(240,0,cs),
(591,0,l),
(610,47,l),
(612,47,l),
(633,15,o),
(654,0,o),
(723,0,c)
);
},
{
closed = 1;
nodes = (
(547,270,l),
(416,270,ls),
(341,270,o),
(304,300,o),
(304,367,cs),
(304,434,o),
(365,477,o),
(488,494,c)
);
}
);
width = 723;
},
{
anchors = (
{
name = bottom;
pos = (345,-98);
},
{
name = top;
pos = (345,630);
}
);
layerId = "1C3A187F-9439-4340-B0A6-CD0525AA1AFE";
shapes = (
{
closed = 1;
nodes = (
(678,25,l),
(639,25,o),
(624,38,o),
(612,85,cs),
(497,542,l),
(473,534,l),
(289,504,o),
(228,432,o),
(228,342,cs),
(228,249,o),
(292,204,o),
(390,204,cs),
(556,204,l),
(587,80,ls),
(593,58,o),
(599,39,o),
(611,25,c),
(228,25,ls),
(137,25,o),
(106,34,o),
(77,73,c),
(60,53,l),
(77,23,o),
(113,0,o),
(197,0,cs),
(611,0,l),
(617,18,l),
(619,18,l),
(632,7,o),
(645,0,o),
(678,0,c)
);
},
{
closed = 1;
nodes = (
(549,229,l),
(397,229,ls),
(307,229,o),
(255,263,o),
(255,343,cs),
(255,436,o),
(332,488,o),
(479,509,c)
);
}
);
width = 678;
},
{
anchors = (
{
name = bottom;
pos = (398,-101);
},
{
name = top;
pos = (420,733);
}
);
layerId = "DA9A8D32-36F4-433E-897C-B49E872243BC";
shapes = (
{
closed = 1;
nodes = (
(798,185,l),
(787,185,o),
(762,197,o),
(746,257,cs),
(633,671,l),
(521,643,l),
(344,611,o),
(249,527,o),
(249,402,cs),
(249,280,o),
(333,231,o),
(471,231,cs),
(582,231,l),
(587,211,ls),
(589,203,o),
(591,195,o),
(594,185,c),
(320,185,ls),
(245,185,o),
(177,188,o),
(132,247,c),
(37,130,l),
(61,45,o),
(163,0,o),
(307,0,cs),
(599,0,l),
(637,81,l),
(641,81,l),
(677,30,o),
(720,0,o),
(798,0,c)
);
},
{
closed = 1;
nodes = (
(553,370,l),
(469,370,ls),
(431,370,o),
(408,386,o),
(408,415,cs),
(408,448,o),
(430,477,o),
(521,488,c)
);
}
);
width = 798;
}
);
note = uni0726.fina;
},
{
glyphname = uni0726.medi;
lastChange = "2023-01-02 09:26:46 +0000";
layers = (
{
anchors = (
{
name = bottom;
pos = (207,-97);
},
{
name = top;
pos = (197,655);
}
);
layerId = m01;
shapes = (
{
closed = 1;
nodes = (
(551,76,l),
(509,76,o),
(506,82,o),
(491,137,cs),
(370,589,l),
(298,565,l),
(145,541,o),
(54,467,o),
(54,359,cs),
(54,260,o),
(121,199,o),
(236,199,cs),
(395,199,l),
(420,107,ls),
(423,97,o),
(426,86,o),
(428,76,c),
(0,76,ls),
(-21,76,o),
(-39,61,o),
(-39,38,cs),
(-39,14,o),
(-21,0,o),
(0,0,cs),
(419,0,l),
(438,47,l),
(440,47,l),
(461,15,o),
(482,0,o),
(551,0,c)
);
},
{
closed = 1;
nodes = (
(376,270,l),
(245,270,ls),
(169,270,o),
(133,300,o),
(133,367,cs),
(133,434,o),
(195,477,o),
(316,494,c)
);
}
);
width = 551;
},
{
anchors = (
{
name = bottom;
pos = (184,-97);
},
{
name = top;
pos = (183,629);
}
);
layerId = "1C3A187F-9439-4340-B0A6-CD0525AA1AFE";
shapes = (
{
closed = 1;
nodes = (
(517,25,l),
(478,25,o),
(463,38,o),
(451,85,cs),
(336,542,l),
(312,534,l),
(128,504,o),
(67,432,o),
(67,342,cs),
(67,249,o),
(131,204,o),
(229,204,cs),
(395,204,l),
(426,80,ls),
(432,58,o),
(438,39,o),
(450,25,c),
(0,25,ls),
(-19,25,o),
(-40,21,o),
(-40,13,cs),
(-40,4,o),
(-19,0,o),
(0,0,cs),
(450,0,l),
(456,18,l),
(458,18,l),
(471,7,o),
(484,0,o),
(517,0,c)
);
},
{
closed = 1;
nodes = (
(388,229,l),
(236,229,ls),
(146,229,o),
(94,263,o),
(94,343,cs),
(94,436,o),
(171,488,o),
(318,509,c)
);
}
);
width = 517;
},
{
anchors = (
{
name = bottom;
pos = (192,-97);
},
{
name = top;
pos = (216,730);
}
);
layerId = "DA9A8D32-36F4-433E-897C-B49E872243BC";
shapes = (
{
closed = 1;
nodes = (
(593,185,l),
(582,185,o),
(557,197,o),
(541,257,cs),
(428,671,l),
(316,643,l),
(139,611,o),
(44,527,o),
(44,402,cs),
(44,280,o),
(128,231,o),
(266,231,cs),
(377,231,l),
(383,208,ls),
(385,200,o),
(388,188,o),
(389,185,c),
(0,185,ls),
(-24,185,o),
(-40,141,o),
(-40,92,cs),
(-40,42,o),
(-24,0,o),
(0,0,cs),
(394,0,l),
(432,81,l),
(436,81,l),
(472,30,o),
(515,0,o),
(593,0,c)
);
},
{
closed = 1;
nodes = (
(348,370,l),
(264,370,ls),
(226,370,o),
(203,386,o),
(203,415,cs),
(203,448,o),
(225,477,o),
(316,488,c)
);
}
);
width = 593;
}
);
note = uni0726.medi;
},
{
glyphname = uni0726.init;
lastChange = "2023-01-02 09:26:46 +0000";
layers = (
{
anchors = (
{
name = bottom;
pos = (207,-98);
},
{
name = top;
pos = (197,655);
}
);
layerId = m01;
shapes = (
{
closed = 1;
nodes = (
(477,0,l),
(510,66,l),
(370,589,l),
(297,565,l),
(140,538,o),
(54,464,o),
(54,359,cs),
(54,260,o),
(121,199,o),
(236,199,cs),
(395,199,l),
(428,76,l),
(0,76,ls),
(-21,76,o),
(-39,61,o),
(-39,38,cs),
(-39,14,o),
(-21,0,o),
(0,0,cs)
);
},
{
closed = 1;
nodes = (
(376,270,l),
(245,270,ls),
(169,270,o),
(133,300,o),
(133,367,cs),
(133,434,o),
(195,477,o),
(316,494,c)
);
}
);
width = 568;
},
{
anchors = (
{
name = bottom;
pos = (183,-98);
},
{
name = top;
pos = (183,627);
}
);
layerId = "1C3A187F-9439-4340-B0A6-CD0525AA1AFE";
shapes = (
{
closed = 1;
nodes = (
(453,0,l),
(467,20,l),
(336,542,l),
(312,534,l),
(128,504,o),
(67,432,o),
(67,342,cs),
(67,249,o),
(131,204,o),
(229,204,cs),
(395,204,l),
(440,25,l),
(0,25,ls),
(-19,25,o),
(-40,21,o),
(-40,13,cs),
(-40,4,o),
(-19,0,o),
(0,0,cs)
);
},
{
closed = 1;
nodes = (
(388,229,l),
(236,229,ls),
(146,229,o),
(94,263,o),
(94,343,cs),
(94,436,o),
(171,488,o),
(318,509,c)
);
}
);
width = 537;
},
{
anchors = (
{
name = bottom;
pos = (191,-98);
},
{
name = top;
pos = (215,731);
}
);
layerId = "DA9A8D32-36F4-433E-897C-B49E872243BC";
shapes = (
{
closed = 1;
nodes = (
(485,0,l),
(573,138,l),
(428,671,l),
(316,643,l),
(139,611,o),
(44,527,o),
(44,402,cs),
(44,280,o),
(128,231,o),
(266,231,cs),
(377,231,l),
(389,185,l),
(0,185,ls),
(-24,185,o),
(-40,141,o),
(-40,92,cs),
(-40,42,o),
(-24,0,o),
(0,0,cs)
);
},
{
closed = 1;
nodes = (
(348,370,l),
(264,370,ls),
(226,370,o),
(203,386,o),
(203,415,cs),
(203,448,o),
(225,477,o),
(316,488,c)
);
}
);
width = 620;
}
);
note = uni0726.init;
},
{
glyphname = uni0727;
lastChange = "2023-01-02 09:26:46 +0000";
layers = (
{
anchors = (
{
name = bottom;
pos = (419,-96);
},
{
name = top;
pos = (476,750);
}
);
layerId = m01;
shapes = (
{
closed = 1;
nodes = (
(525,585,l),
(606,585,l),
(606,671,l),
(525,671,l)
);
},
{
closed = 1;
nodes = (
(340,585,l),
(422,585,l),
(422,671,l),
(340,671,l)
);
},
{
closed = 1;
nodes = (
(665,0,l),
(687,70,l),
(664,70,ls),
(449,70,o),
(323,145,o),
(323,285,cs),
(323,376,o),
(395,423,o),
(473,423,cs),
(545,423,o),
(597,388,o),
(597,333,cs),
(597,285,o),
(572,255,o),
(525,255,cs),
(488,255,o),
(461,278,o),
(461,319,c),
(402,319,l),
(402,234,o),
(449,189,o),
(525,189,cs),
(617,189,o),
(667,246,o),
(667,339,cs),
(667,446,o),
(562,497,o),
(473,497,cs),
(347,497,o),
(249,407,o),
(249,282,cs),
(249,237,o),
(259,196,o),
(277,162,cs),
(295,127,o),
(322,99,o),
(356,77,c),
(355,74,l),
(332,75,o),
(308,76,o),
(287,76,cs),
(262,76,ls),
(174,76,o),
(129,89,o),
(94,138,c),
(49,78,l),
(69,30,o),
(136,0,o),
(240,0,cs)
);
}
);
width = 757;
},
{
anchors = (
{
name = bottom;
pos = (410,-98);
},
{
name = top;
pos = (442,693);
}
);
layerId = "1C3A187F-9439-4340-B0A6-CD0525AA1AFE";
shapes = (
{
closed = 1;
nodes = (
(497,547,l),
(545,547,l),
(545,595,l),
(497,595,l)
);
},
{
closed = 1;
nodes = (
(333,547,l),
(381,547,l),
(381,595,l),
(333,595,l)
);
},
{
closed = 1;
nodes = (
(627,0,l),
(635,25,l),
(599,25,ls),
(490,25,o),
(273,47,o),
(273,253,cs),
(273,361,o),
(352,425,o),
(439,425,cs),
(515,425,o),
(583,390,o),
(583,304,cs),
(583,247,o),
(557,208,o),
(496,208,cs),
(460,208,o),
(430,224,o),
(422,269,c),
(399,269,l),
(402,210,o),
(442,183,o),
(496,183,cs),
(572,183,o),
(609,240,o),
(609,305,cs),
(609,393,o),
(539,450,o),
(440,450,cs),
(335,450,o),
(247,369,o),
(247,253,cs),
(247,192,o),
(264,136,o),
(305,93,cs),
(335,62,o),
(378,38,o),
(436,25,c),
(436,22,l),
(415,23,o),
(372,25,o),
(353,25,cs),
(228,25,ls),
(137,25,o),
(106,34,o),
(77,73,c),
(60,53,l),
(77,23,o),
(113,0,o),
(197,0,cs)
);
}
);
width = 715;
},
{
anchors = (
{
name = bottom;
pos = (447,-92);
},
{
name = top;
pos = (540,857);
}
);
layerId = "DA9A8D32-36F4-433E-897C-B49E872243BC";
shapes = (
{
closed = 1;
nodes = (
(573,635,l),
(714,635,l),
(714,774,l),
(573,774,l)
);
},
{
closed = 1;
nodes = (
(363,635,l),
(504,635,l),
(504,774,l),
(363,774,l)
);
},
{
closed = 1;
nodes = (
(761,0,l),
(814,180,l),
(727,180,ls),
(542,180,o),
(439,207,o),
(439,333,cs),
(439,391,o),
(473,438,o),
(546,438,cs),
(593,438,o),
(641,417,o),
(641,374,cs),
(641,356,o),
(632,344,o),
(617,344,cs),
(601,344,o),
(593,352,o),
(590,365,c),
(495,365,l),
(495,242,o),
(577,225,o),
(622,225,cs),
(706,225,o),
(774,274,o),
(774,374,cs),
(774,496,o),
(683,580,o),
(545,580,cs),
(404,580,o),
(288,486,o),
(288,349,cs),
(288,310,o),
(296,276,o),
(309,249,cs),
(322,222,o),
(337,200,o),
(353,187,c),
(353,183,l),
(333,185,o),
(325,185,o),
(322,185,cs),
(318,185,ls),
(209,185,o),
(188,207,o),
(147,250,c),
(37,138,l),
(78,41,o),
(186,0,o),
(341,0,cs)
);
}
);
width = 874;
}
);
note = uni0727;
unicode = 1831;
},
{
glyphname = uni0727.fina;
lastChange = "2023-01-02 09:26:46 +0000";
layers = (
{
anchors = (
{
name = bottom;
pos = (418,-98);
},
{
name = top;
pos = (477,750);
}
);
layerId = m01;
shapes = (
{
closed = 1;
nodes = (
(525,585,l),
(606,585,l),
(606,671,l),
(525,671,l)
);
},
{
closed = 1;
nodes = (
(340,585,l),
(422,585,l),
(422,671,l),
(340,671,l)
);
},
{
closed = 1;
nodes = (
(734,0,l),
(734,76,l),
(645,76,ls),
(440,76,o),
(323,148,o),
(323,285,cs),
(323,375,o),
(395,423,o),
(473,423,cs),
(545,423,o),
(597,388,o),
(597,333,cs),
(597,285,o),
(572,255,o),
(525,255,cs),
(488,255,o),
(461,279,o),
(461,319,c),
(402,319,l),
(402,234,o),
(449,189,o),
(525,189,cs),
(617,189,o),
(667,246,o),
(667,339,cs),
(667,446,o),
(562,497,o),
(473,497,cs),
(347,497,o),
(249,407,o),
(249,282,cs),
(249,191,o),
(288,120,o),
(356,77,c),
(355,74,l),
(332,75,o),
(308,76,o),
(287,76,cs),
(262,76,ls),
(174,76,o),
(129,89,o),
(94,138,c),
(49,78,l),
(69,30,o),
(136,0,o),
(240,0,cs)
);
}
);
width = 734;
},
{
anchors = (
{
name = bottom;
pos = (410,-98);
},
{
name = top;
pos = (440,693);
}
);
layerId = "1C3A187F-9439-4340-B0A6-CD0525AA1AFE";
shapes = (
{
closed = 1;
nodes = (
(497,547,l),
(545,547,l),
(545,595,l),
(497,595,l)
);
},
{
closed = 1;
nodes = (
(333,547,l),
(381,547,l),
(381,595,l),
(333,595,l)
);
},
{
closed = 1;
nodes = (
(695,0,l),
(695,25,l),
(599,25,ls),
(490,25,o),
(273,47,o),
(273,253,cs),
(273,361,o),
(352,425,o),
(439,425,cs),
(515,425,o),
(583,390,o),
(583,304,cs),
(583,247,o),
(557,208,o),
(496,208,cs),
(460,208,o),
(430,224,o),
(422,269,c),
(399,269,l),
(402,210,o),
(442,183,o),
(496,183,cs),
(572,183,o),
(609,240,o),
(609,305,cs),
(609,393,o),
(539,450,o),
(440,450,cs),
(335,450,o),
(247,369,o),
(247,253,cs),
(247,147,o),
(299,56,o),
(436,25,c),
(436,22,l),
(415,23,o),
(372,25,o),
(353,25,cs),
(228,25,ls),
(137,25,o),
(106,34,o),
(77,73,c),
(60,53,l),
(77,23,o),
(113,0,o),
(197,0,cs)
);
}
);
width = 695;
},
{
anchors = (
{
name = bottom;
pos = (447,-98);
},
{
name = top;
pos = (541,857);
}
);
layerId = "DA9A8D32-36F4-433E-897C-B49E872243BC";
shapes = (
{
closed = 1;
nodes = (
(573,635,l),
(714,635,l),
(714,774,l),
(573,774,l)
);
},
{
closed = 1;
nodes = (
(363,635,l),
(504,635,l),
(504,774,l),
(363,774,l)
);
},
{
closed = 1;
nodes = (
(831,0,l),
(831,185,l),
(747,185,ls),
(542,185,o),
(439,207,o),
(439,333,cs),
(439,391,o),
(473,438,o),
(546,438,cs),
(593,438,o),
(641,417,o),
(641,374,cs),
(641,356,o),
(632,344,o),
(617,344,cs),
(601,344,o),
(593,352,o),
(590,365,c),
(495,365,l),
(495,242,o),
(577,225,o),
(622,225,cs),
(706,225,o),
(774,274,o),
(774,374,cs),
(774,496,o),
(683,580,o),
(545,580,cs),
(404,580,o),
(288,486,o),
(288,349,cs),
(288,271,o),
(321,213,o),
(353,187,c),
(353,183,l),
(333,185,o),
(325,185,o),
(322,185,cs),
(318,185,ls),
(209,185,o),
(188,207,o),
(147,250,c),
(37,138,l),
(78,41,o),
(186,0,o),
(341,0,cs)
);
}
);
width = 831;
}
);
note = uni0727.fina;
},
{
glyphname = uni0727.medi;
lastChange = "2023-01-02 09:26:46 +0000";
layers = (
{
anchors = (
{
name = bottom;
pos = (278,-99);
},
{
name = top;
pos = (288,751);
}
);
layerId = m01;
shapes = (
{
closed = 1;
nodes = (
(337,585,l),
(418,585,l),
(418,671,l),
(337,671,l)
);
},
{
closed = 1;
nodes = (
(152,585,l),
(234,585,l),
(234,671,l),
(152,671,l)
);
},
{
closed = 1;
nodes = (
(547,0,l),
(547,76,l),
(458,76,ls),
(253,76,o),
(136,148,o),
(136,285,cs),
(136,376,o),
(208,423,o),
(286,423,cs),
(358,423,o),
(410,388,o),
(410,333,cs),
(410,285,o),
(385,255,o),
(338,255,cs),
(301,255,o),
(274,279,o),
(274,319,c),
(215,319,l),
(215,234,o),
(262,189,o),
(338,189,cs),
(430,189,o),
(480,246,o),
(480,339,cs),
(480,446,o),
(375,497,o),
(286,497,cs),
(160,497,o),
(62,407,o),
(62,282,cs),
(62,191,o),
(101,120,o),
(169,77,c),
(168,74,l),
(145,75,o),
(121,76,o),
(100,76,cs),
(0,76,ls),
(-21,76,o),
(-39,61,o),
(-39,38,cs),
(-39,14,o),
(-21,0,o),
(0,0,cs)
);
}
);
width = 547;
},
{
anchors = (
{
name = bottom;
pos = (260,-98);
},
{
name = top;
pos = (294,693);
}
);
layerId = "1C3A187F-9439-4340-B0A6-CD0525AA1AFE";
shapes = (
{
closed = 1;
nodes = (
(347,547,l),
(395,547,l),
(395,595,l),
(347,595,l)
);
},
{
closed = 1;
nodes = (
(183,547,l),
(231,547,l),
(231,595,l),
(183,595,l)
);
},
{
closed = 1;
nodes = (
(545,0,l),
(545,25,l),
(449,25,ls),
(340,25,o),
(123,47,o),
(123,253,cs),
(123,361,o),
(202,425,o),
(289,425,cs),
(365,425,o),
(433,390,o),
(433,304,cs),
(433,247,o),
(407,208,o),
(346,208,cs),
(310,208,o),
(280,224,o),
(272,269,c),
(249,269,l),
(252,210,o),
(292,183,o),
(346,183,cs),
(422,183,o),
(459,240,o),
(459,305,cs),
(459,393,o),
(389,450,o),
(290,450,cs),
(185,450,o),
(97,369,o),
(97,253,cs),
(97,147,o),
(149,56,o),
(286,25,c),
(286,22,l),
(265,23,o),
(222,25,o),
(203,25,cs),
(0,25,ls),
(-19,25,o),
(-40,21,o),
(-40,13,cs),
(-40,4,o),
(-19,0,o),
(0,0,cs)
);
}
);
width = 545;
},
{
anchors = (
{
name = bottom;
pos = (288,-101);
},
{
name = top;
pos = (305,854);
}
);
layerId = "DA9A8D32-36F4-433E-897C-B49E872243BC";
shapes = (
{
closed = 1;
nodes = (
(337,635,l),
(478,635,l),
(478,774,l),
(337,774,l)
);
},
{
closed = 1;
nodes = (
(127,635,l),
(268,635,l),
(268,774,l),
(127,774,l)
);
},
{
closed = 1;
nodes = (
(595,0,l),
(595,185,l),
(511,185,ls),
(306,185,o),
(203,207,o),
(203,333,cs),
(203,391,o),
(237,438,o),
(310,438,cs),
(357,438,o),
(405,417,o),
(405,374,cs),
(405,356,o),
(396,344,o),
(381,344,cs),
(365,344,o),
(357,352,o),
(354,365,c),
(259,365,l),
(259,242,o),
(341,225,o),
(386,225,cs),
(470,225,o),
(538,274,o),
(538,374,cs),
(538,496,o),
(447,580,o),
(309,580,cs),
(168,580,o),
(52,486,o),
(52,349,cs),
(52,271,o),
(85,213,o),
(117,187,c),
(117,183,l),
(97,185,o),
(89,185,o),
(86,185,cs),
(0,185,ls),
(-24,185,o),
(-40,141,o),
(-40,92,cs),
(-40,42,o),
(-24,0,o),
(0,0,cs)
);
}
);
width = 595;
}
);
note = uni0727.medi;
},
{
glyphname = uni0727.init;
lastChange = "2023-01-02 09:26:46 +0000";
layers = (
{
anchors = (
{
name = bottom;
pos = (277,-98);
},
{
name = top;
pos = (288,751);
}
);
layerId = m01;
shapes = (
{
closed = 1;
nodes = (
(337,585,l),
(418,585,l),
(418,671,l),
(337,671,l)
);
},
{
closed = 1;
nodes = (
(152,585,l),
(234,585,l),
(234,671,l),
(152,671,l)
);
},
{
closed = 1;
nodes = (
(478,0,l),
(500,70,l),
(477,70,ls),
(262,70,o),
(136,145,o),
(136,285,cs),
(136,375,o),
(208,423,o),
(286,423,cs),
(358,423,o),
(410,388,o),
(410,333,cs),
(410,285,o),
(385,255,o),
(338,255,cs),
(301,255,o),
(274,278,o),
(274,319,c),
(215,319,l),
(215,234,o),
(262,189,o),
(338,189,cs),
(430,189,o),
(480,246,o),
(480,339,cs),
(480,446,o),
(375,497,o),
(286,497,cs),
(160,497,o),
(62,407,o),
(62,282,cs),
(62,191,o),
(101,120,o),
(169,77,c),
(168,74,l),
(145,75,o),
(121,76,o),
(100,76,cs),
(0,76,ls),
(-21,76,o),
(-39,61,o),
(-39,38,cs),
(-39,14,o),
(-21,0,o),
(0,0,cs)
);
}
);
width = 570;
},
{
anchors = (
{
name = bottom;
pos = (259,-98);
},
{
name = top;
pos = (295,692);
}
);
layerId = "1C3A187F-9439-4340-B0A6-CD0525AA1AFE";
shapes = (
{
closed = 1;
nodes = (
(347,547,l),
(395,547,l),
(395,595,l),
(347,595,l)
);
},
{
closed = 1;
nodes = (
(183,547,l),
(231,547,l),
(231,595,l),
(183,595,l)
);
},
{
closed = 1;
nodes = (
(477,0,l),
(485,25,l),
(449,25,ls),
(340,25,o),
(123,47,o),
(123,253,cs),
(123,361,o),
(202,425,o),
(289,425,cs),
(365,425,o),
(433,390,o),
(433,304,cs),
(433,247,o),
(407,208,o),
(346,208,cs),
(310,208,o),
(281,226,o),
(269,268,c),
(246,264,l),
(254,213,o),
(292,183,o),
(346,183,cs),
(422,183,o),
(459,240,o),
(459,305,cs),
(459,393,o),
(389,450,o),
(290,450,cs),
(185,450,o),
(97,369,o),
(97,253,cs),
(97,147,o),
(149,56,o),
(286,25,c),
(286,22,l),
(265,23,o),
(222,25,o),
(203,25,cs),
(0,25,ls),
(-19,25,o),
(-40,21,o),
(-40,13,cs),
(-40,4,o),
(-19,0,o),
(0,0,cs)
);
}
);
width = 565;
},
{
anchors = (
{
name = bottom;
pos = (287,-98);
},
{
name = top;
pos = (305,854);
}
);
layerId = "DA9A8D32-36F4-433E-897C-B49E872243BC";
shapes = (
{
closed = 1;
nodes = (
(337,635,l),
(478,635,l),
(478,774,l),
(337,774,l)
);
},
{
closed = 1;
nodes = (
(127,635,l),
(268,635,l),
(268,774,l),
(127,774,l)
);
},
{
closed = 1;
nodes = (
(525,0,l),
(578,180,l),
(491,180,ls),
(306,180,o),
(203,207,o),
(203,333,cs),
(203,391,o),
(237,438,o),
(310,438,cs),
(357,438,o),
(405,417,o),
(405,374,cs),
(405,356,o),
(396,344,o),
(381,344,cs),
(365,344,o),
(357,352,o),
(354,365,c),
(259,365,l),
(259,242,o),
(341,225,o),
(386,225,cs),
(470,225,o),
(538,274,o),
(538,374,cs),
(538,496,o),
(447,580,o),
(309,580,cs),
(168,580,o),
(52,486,o),
(52,349,cs),
(52,271,o),
(85,213,o),
(117,187,c),
(117,183,l),
(97,185,o),
(89,185,o),
(86,185,cs),
(0,185,ls),
(-24,185,o),
(-40,141,o),
(-40,92,cs),
(-40,42,o),
(-24,0,o),
(0,0,cs)
);
}
);
width = 638;
}
);
note = uni0727.init;
},
{
glyphname = uni0728;
lastChange = "2023-01-02 09:26:46 +0000";
layers = (
{
anchors = (
{
name = bottom;
pos = (262,-456);
},
{
name = top;
pos = (290,396);
}
);
layerId = m01;
shapes = (
{
closed = 1;
nodes = (
(69,-381,l),
(445,-381,l),
(459,-322,l),
(256,-221,o),
(146,-72,o),
(146,92,c),
(145,98,o),
(144,105,o),
(143,111,c),
(146,112,l),
(167,44,o),
(222,0,o),
(290,0,cs),
(364,0,o),
(414,36,o),
(440,107,c),
(443,107,l),
(476,0,l),
(540,21,l),
(480,193,l),
(419,193,l),
(398,110,o),
(355,76,o),
(295,76,cs),
(229,76,o),
(176,134,o),
(165,194,c),
(101,192,l),
(86,148,o),
(83,107,o),
(83,62,cs),
(83,-20,o),
(107,-97,o),
(155,-168,cs),
(203,-239,o),
(264,-290,o),
(338,-319,c),
(337,-323,l),
(280,-316,o),
(226,-313,o),
(183,-313,cs),
(69,-313,l)
);
}
);
width = 587;
},
{
anchors = (
{
name = bottom;
pos = (262,-443);
},
{
name = top;
pos = (269,368);
}
);
layerId = "1C3A187F-9439-4340-B0A6-CD0525AA1AFE";
shapes = (
{
closed = 1;
nodes = (
(80,-366,l),
(417,-366,l),
(421,-344,l),
(231,-240,o),
(110,-122,o),
(110,45,cs),
(110,63,o),
(111,92,o),
(113,109,c),
(116,109,l),
(138,42,o),
(188,0,o),
(264,0,cs),
(323,0,o),
(377,20,o),
(409,109,c),
(411,109,l),
(445,0,l),
(469,7,l),
(424,146,l),
(400,146,l),
(366,49,o),
(328,25,o),
(264,25,cs),
(204,25,o),
(153,55,o),
(127,146,c),
(100,146,l),
(88,110,o),
(86,66,o),
(86,45,cs),
(86,-37,o),
(112,-107,o),
(154,-166,cs),
(208,-242,o),
(290,-300,o),
(376,-342,c),
(376,-344,l),
(359,-342,o),
(306,-341,o),
(293,-341,cs),
(80,-341,l)
);
}
);
width = 529;
},
{
anchors = (
{
name = bottom;
pos = (277,-468);
},
{
name = top;
pos = (336,500);
}
);
layerId = "DA9A8D32-36F4-433E-897C-B49E872243BC";
shapes = (
{
closed = 1;
nodes = (
(57,-393,l),
(479,-393,l),
(512,-256,l),
(412,-215,o),
(242,-57,o),
(228,62,cs),
(227,68,o),
(227,73,o),
(226,79,c),
(231,80,l),
(265,17,o),
(303,0,o),
(351,0,cs),
(417,0,o),
(458,41,o),
(475,81,c),
(479,81,l),
(511,-5,l),
(654,37,l),
(565,292,l),
(431,292,l),
(422,218,o),
(396,185,o),
(337,185,cs),
(263,185,o),
(246,258,o),
(246,292,c),
(109,292,l),
(85,235,o),
(76,166,o),
(76,92,cs),
(76,27,o),
(91,-41,o),
(124,-101,cs),
(157,-162,o),
(208,-217,o),
(281,-258,c),
(279,-262,l),
(199,-256,o),
(116,-252,o),
(78,-252,cs),
(57,-252,l)
);
}
);
width = 704;
}
);
note = uni0728;
unicode = 1832;
},
{
glyphname = uni0728.fina;
lastChange = "2023-01-02 09:26:46 +0000";
layers = (
{
anchors = (
{
name = bottom;
pos = (262,-456);
},
{
name = top;
pos = (292,396);
}
);
layerId = m01;
shapes = (
{
closed = 1;
nodes = (
(69,-381,l),
(445,-381,l),
(459,-322,l),
(256,-221,o),
(146,-72,o),
(146,92,c),
(145,98,o),
(144,105,o),
(143,111,c),
(146,112,l),
(167,44,o),
(222,0,o),
(290,0,cs),
(363,0,o),
(405,28,o),
(432,101,c),
(436,101,l),
(439,94,o),
(443,87,o),
(446,80,cs),
(472,25,o),
(503,0,o),
(556,0,c),
(556,76,l),
(531,76,o),
(512,97,o),
(496,136,cs),
(473,193,l),
(414,193,l),
(393,110,o),
(355,76,o),
(295,76,cs),
(229,76,o),
(176,134,o),
(165,194,c),
(101,192,l),
(86,148,o),
(83,107,o),
(83,62,cs),
(83,-20,o),
(107,-97,o),
(155,-168,cs),
(203,-239,o),
(264,-290,o),
(338,-319,c),
(337,-323,l),
(280,-316,o),
(226,-313,o),
(183,-313,cs),
(69,-313,l)
);
}
);
width = 556;
},
{
anchors = (
{
name = bottom;
pos = (262,-443);
},
{
name = top;
pos = (270,366);
}
);
layerId = "1C3A187F-9439-4340-B0A6-CD0525AA1AFE";
shapes = (
{
closed = 1;
nodes = (
(80,-366,l),
(417,-366,l),
(421,-344,l),
(231,-240,o),
(110,-122,o),
(110,45,cs),
(110,63,o),
(111,92,o),
(113,109,c),
(116,109,l),
(138,42,o),
(188,0,o),
(264,0,cs),
(323,0,o),
(377,20,o),
(409,109,c),
(412,109,l),
(415,100,o),
(418,90,o),
(421,81,cs),
(436,34,o),
(447,0,o),
(511,0,c),
(511,25,l),
(472,25,o),
(461,39,o),
(445,85,cs),
(424,146,l),
(400,146,l),
(366,49,o),
(328,25,o),
(264,25,cs),
(204,25,o),
(153,55,o),
(127,146,c),
(100,146,l),
(88,110,o),
(86,66,o),
(86,45,cs),
(86,-37,o),
(112,-107,o),
(154,-166,cs),
(208,-242,o),
(290,-300,o),
(376,-342,c),
(376,-344,l),
(359,-342,o),
(306,-341,o),
(293,-341,cs),
(80,-341,l)
);
}
);
width = 511;
},
{
anchors = (
{
name = bottom;
pos = (279,-468);
},
{
name = top;
pos = (338,500);
}
);
layerId = "DA9A8D32-36F4-433E-897C-B49E872243BC";
shapes = (
{
closed = 1;
nodes = (
(57,-393,l),
(479,-393,l),
(512,-256,l),
(412,-215,o),
(242,-57,o),
(228,62,cs),
(227,68,o),
(227,73,o),
(226,79,c),
(231,80,l),
(265,17,o),
(303,0,o),
(351,0,cs),
(417,0,o),
(458,41,o),
(475,81,c),
(479,81,l),
(485,72,o),
(491,64,o),
(497,57,cs),
(538,11,o),
(587,0,o),
(639,0,c),
(639,185,l),
(620,185,o),
(594,212,o),
(575,264,cs),
(565,292,l),
(431,292,l),
(419,218,o),
(396,185,o),
(337,185,cs),
(263,185,o),
(246,258,o),
(246,292,c),
(109,292,l),
(85,235,o),
(76,166,o),
(76,92,cs),
(76,27,o),
(91,-41,o),
(124,-101,cs),
(157,-162,o),
(208,-217,o),
(281,-258,c),
(279,-262,l),
(199,-256,o),
(116,-252,o),
(78,-252,cs),
(57,-252,l)
);
}
);
width = 639;
}
);
note = uni0728.fina;
},
{
glyphname = uni0729;
lastChange = "2023-01-02 09:26:46 +0000";
layers = (
{
anchors = (
{
name = bottom;
pos = (483,-99);
},
{
name = top;
pos = (609,525);
}
);
layerId = m01;
shapes = (
{
closed = 1;
nodes = (
(777,0,l),
(816,54,l),
(816,438,l),
(791,433,o),
(723,426,o),
(663,426,cs),
(545,426,ls),
(485,426,o),
(417,433,o),
(392,438,c),
(392,128,ls),
(392,108,o),
(394,91,o),
(398,76,c),
(262,76,ls),
(174,76,o),
(129,89,o),
(94,138,c),
(49,78,l),
(69,30,o),
(136,0,o),
(240,0,cs),
(392,0,l),
(409,46,l),
(411,46,l),
(430,17,o),
(460,0,o),
(508,0,cs)
);
},
{
closed = 1;
nodes = (
(743,76,l),
(520,76,ls),
(473,76,o),
(465,90,o),
(465,135,cs),
(465,357,l),
(494,354,o),
(526,353,o),
(550,353,cs),
(658,353,ls),
(682,353,o),
(714,353,o),
(743,357,c)
);
}
);
width = 884;
},
{
anchors = (
{
name = bottom;
pos = (433,-99);
},
{
name = top;
pos = (558,494);
}
);
layerId = "1C3A187F-9439-4340-B0A6-CD0525AA1AFE";
shapes = (
{
closed = 1;
nodes = (
(718,0,l),
(733,20,l),
(733,383,l),
(702,380,o),
(663,377,o),
(620,377,cs),
(492,377,ls),
(448,377,o),
(399,382,o),
(371,385,c),
(371,80,ls),
(371,57,o),
(373,39,o),
(381,25,c),
(228,25,ls),
(137,25,o),
(106,34,o),
(77,73,c),
(60,53,l),
(77,23,o),
(113,0,o),
(197,0,cs),
(379,0,l),
(385,18,l),
(387,18,l),
(397,6,o),
(412,0,o),
(436,0,cs)
);
},
{
closed = 1;
nodes = (
(707,25,l),
(441,25,ls),
(400,25,o),
(397,45,o),
(397,98,cs),
(397,357,l),
(450,352,o),
(489,352,o),
(510,352,cs),
(592,352,ls),
(614,352,o),
(649,352,o),
(707,356,c)
);
}
);
width = 813;
},
{
anchors = (
{
name = bottom;
pos = (533,-99);
},
{
name = top;
pos = (683,598);
}
);
layerId = "DA9A8D32-36F4-433E-897C-B49E872243BC";
shapes = (
{
closed = 1;
nodes = (
(852,0,l),
(933,126,l),
(933,513,l),
(901,506,o),
(801,500,o),
(713,500,cs),
(633,500,ls),
(547,500,o),
(468,504,o),
(430,512,c),
(430,236,ls),
(430,225,o),
(431,197,o),
(433,185,c),
(320,185,ls),
(245,185,o),
(177,188,o),
(132,247,c),
(37,130,l),
(61,45,o),
(163,0,o),
(307,0,cs),
(418,0,l),
(456,81,l),
(460,81,l),
(483,29,o),
(525,0,o),
(605,0,cs)
);
},
{
closed = 1;
nodes = (
(777,185,l),
(616,185,ls),
(594,185,o),
(586,195,o),
(586,213,cs),
(586,339,l),
(607,336,o),
(632,335,o),
(662,335,cs),
(699,335,ls),
(729,335,o),
(756,336,o),
(777,339,c)
);
}
);
width = 989;
}
);
note = uni0729;
unicode = 1833;
},
{
glyphname = uni0729.fina;
lastChange = "2023-01-02 09:26:46 +0000";
layers = (
{
anchors = (
{
name = bottom;
pos = (483,-99);
},
{
name = top;
pos = (609,525);
}
);
layerId = m01;
shapes = (
{
closed = 1;
nodes = (
(921,0,l),
(921,76,l),
(871,76,ls),
(826,76,o),
(816,88,o),
(816,135,cs),
(816,438,l),
(791,433,o),
(723,426,o),
(663,426,cs),
(545,426,ls),
(485,426,o),
(417,433,o),
(392,438,c),
(392,128,ls),
(392,108,o),
(394,91,o),
(398,76,c),
(262,76,ls),
(174,76,o),
(129,89,o),
(94,138,c),
(49,78,l),
(69,30,o),
(136,0,o),
(240,0,cs),
(392,0,l),
(409,46,l),
(411,46,l),
(430,17,o),
(460,0,o),
(508,0,cs),
(743,0,l),
(760,46,l),
(762,46,l),
(779,17,o),
(811,0,o),
(859,0,cs)
);
},
{
closed = 1;
nodes = (
(743,128,ls),
(743,108,o),
(745,91,o),
(749,76,c),
(520,76,ls),
(473,76,o),
(465,90,o),
(465,135,cs),
(465,357,l),
(494,354,o),
(526,353,o),
(550,353,cs),
(658,353,ls),
(682,353,o),
(714,353,o),
(743,357,c)
);
}
);
width = 921;
},
{
anchors = (
{
name = bottom;
pos = (432,-99);
},
{
name = top;
pos = (558,494);
}
);
layerId = "1C3A187F-9439-4340-B0A6-CD0525AA1AFE";
shapes = (
{
closed = 1;
nodes = (
(845,0,l),
(845,25,l),
(777,25,ls),
(736,25,o),
(733,45,o),
(733,98,cs),
(733,383,l),
(702,380,o),
(663,377,o),
(620,377,cs),
(492,377,ls),
(448,377,o),
(399,382,o),
(371,385,c),
(371,80,ls),
(371,57,o),
(373,39,o),
(381,25,c),
(228,25,ls),
(137,25,o),
(106,34,o),
(77,73,c),
(60,53,l),
(77,23,o),
(113,0,o),
(197,0,cs),
(379,0,l),
(385,18,l),
(387,18,l),
(397,6,o),
(412,0,o),
(436,0,cs),
(715,0,l),
(721,18,l),
(723,18,l),
(733,6,o),
(748,0,o),
(772,0,cs)
);
},
{
closed = 1;
nodes = (
(707,80,ls),
(707,57,o),
(709,39,o),
(717,25,c),
(441,25,ls),
(400,25,o),
(397,45,o),
(397,98,cs),
(397,357,l),
(450,352,o),
(489,352,o),
(510,352,cs),
(592,352,ls),
(614,352,o),
(649,352,o),
(707,356,c)
);
}
);
width = 845;
},
{
anchors = (
{
name = bottom;
pos = (534,-99);
},
{
name = top;
pos = (682,597);
}
);
layerId = "DA9A8D32-36F4-433E-897C-B49E872243BC";
shapes = (
{
closed = 1;
nodes = (
(1025,0,l),
(1025,185,l),
(1005,185,ls),
(946,185,o),
(933,206,o),
(933,293,cs),
(933,513,l),
(901,506,o),
(801,500,o),
(713,500,cs),
(633,500,ls),
(547,500,o),
(468,504,o),
(430,512,c),
(430,236,ls),
(430,225,o),
(431,197,o),
(433,185,c),
(320,185,ls),
(245,185,o),
(177,188,o),
(132,247,c),
(37,130,l),
(61,45,o),
(163,0,o),
(307,0,cs),
(418,0,l),
(456,81,l),
(460,81,l),
(483,29,o),
(525,0,o),
(605,0,cs),
(784,0,l),
(812,81,l),
(816,81,l),
(858,5,o),
(938,0,o),
(1011,0,cs)
);
},
{
closed = 1;
nodes = (
(777,261,ls),
(777,240,o),
(780,201,o),
(784,185,c),
(616,185,ls),
(594,185,o),
(586,195,o),
(586,213,cs),
(586,339,l),
(607,336,o),
(632,335,o),
(662,335,cs),
(699,335,ls),
(729,335,o),
(756,336,o),
(777,339,c)
);
}
);
width = 1025;
}
);
note = uni0729.fina;
},
{
glyphname = uni0729.medi;
lastChange = "2023-01-02 09:26:46 +0000";
layers = (
{
anchors = (
{
name = bottom;
pos = (316,-98);
},
{
name = top;
pos = (322,523);
}
);
layerId = m01;
shapes = (
{
closed = 1;
nodes = (
(634,0,l),
(634,76,l),
(583,76,ls),
(539,76,o),
(529,88,o),
(529,135,cs),
(529,438,l),
(504,433,o),
(436,426,o),
(375,426,cs),
(258,426,ls),
(197,426,o),
(130,433,o),
(105,438,c),
(105,128,ls),
(105,108,o),
(107,91,o),
(111,76,c),
(0,76,ls),
(-21,76,o),
(-39,61,o),
(-39,38,cs),
(-39,14,o),
(-21,0,o),
(0,0,cs),
(104,0,l),
(123,46,l),
(125,46,l),
(142,17,o),
(173,0,o),
(221,0,cs),
(456,0,l),
(473,46,l),
(475,46,l),
(492,17,o),
(524,0,o),
(572,0,cs)
);
},
{
closed = 1;
nodes = (
(456,128,ls),
(456,108,o),
(458,91,o),
(462,76,c),
(232,76,ls),
(187,76,o),
(178,90,o),
(178,135,cs),
(178,357,l),
(207,353,o),
(239,353,o),
(263,353,cs),
(371,353,ls),
(395,353,o),
(427,353,o),
(456,357,c)
);
}
);
width = 634;
},
{
anchors = (
{
name = bottom;
pos = (299,-98);
},
{
name = top;
pos = (302,494);
}
);
layerId = "1C3A187F-9439-4340-B0A6-CD0525AA1AFE";
shapes = (
{
closed = 1;
nodes = (
(590,0,l),
(590,25,l),
(522,25,ls),
(481,25,o),
(478,45,o),
(478,98,cs),
(478,383,l),
(447,380,o),
(408,377,o),
(365,377,cs),
(237,377,ls),
(193,377,o),
(144,382,o),
(116,385,c),
(116,80,ls),
(116,57,o),
(118,39,o),
(126,25,c),
(0,25,ls),
(-19,25,o),
(-40,21,o),
(-40,13,cs),
(-40,4,o),
(-19,0,o),
(0,0,cs),
(124,0,l),
(130,18,l),
(132,18,l),
(142,6,o),
(157,0,o),
(181,0,cs),
(460,0,l),
(466,18,l),
(468,18,l),
(478,6,o),
(493,0,o),
(517,0,cs)
);
},
{
closed = 1;
nodes = (
(452,80,ls),
(452,57,o),
(454,39,o),
(462,25,c),
(186,25,ls),
(145,25,o),
(142,45,o),
(142,98,cs),
(142,357,l),
(195,352,o),
(234,352,o),
(255,352,cs),
(337,352,ls),
(359,352,o),
(394,352,o),
(452,356,c)
);
}
);
width = 590;
},
{
anchors = (
{
name = bottom;
pos = (348,-98);
},
{
name = top;
pos = (349,598);
}
);
layerId = "DA9A8D32-36F4-433E-897C-B49E872243BC";
shapes = (
{
closed = 1;
nodes = (
(687,0,l),
(687,185,l),
(667,185,ls),
(608,185,o),
(595,206,o),
(595,293,cs),
(595,513,l),
(563,506,o),
(463,500,o),
(375,500,cs),
(295,500,ls),
(209,500,o),
(130,504,o),
(92,512,c),
(92,236,ls),
(92,225,o),
(93,197,o),
(95,185,c),
(0,185,ls),
(-24,185,o),
(-40,141,o),
(-40,92,cs),
(-40,42,o),
(-24,0,o),
(0,0,cs),
(80,0,l),
(118,81,l),
(122,81,l),
(145,29,o),
(187,0,o),
(267,0,cs),
(446,0,l),
(474,81,l),
(478,81,l),
(520,5,o),
(600,0,o),
(673,0,cs)
);
},
{
closed = 1;
nodes = (
(439,261,ls),
(439,240,o),
(442,201,o),
(446,185,c),
(278,185,ls),
(256,185,o),
(248,195,o),
(248,213,cs),
(248,339,l),
(269,336,o),
(294,335,o),
(324,335,cs),
(361,335,ls),
(391,335,o),
(418,336,o),
(439,339,c)
);
}
);
width = 687;
}
);
note = uni0729.medi;
},
{
glyphname = uni0729.init;
lastChange = "2023-01-02 09:26:46 +0000";
layers = (
{
anchors = (
{
name = bottom;
pos = (316,-98);
},
{
name = top;
pos = (321,523);
}
);
layerId = m01;
shapes = (
{
closed = 1;
nodes = (
(490,0,l),
(529,54,l),
(529,438,l),
(504,433,o),
(436,426,o),
(375,426,cs),
(258,426,ls),
(197,426,o),
(130,433,o),
(105,438,c),
(105,128,ls),
(105,108,o),
(107,91,o),
(111,76,c),
(0,76,ls),
(-21,76,o),
(-39,61,o),
(-39,38,cs),
(-39,14,o),
(-21,0,o),
(0,0,cs),
(104,0,l),
(123,46,l),
(125,46,l),
(142,17,o),
(173,0,o),
(221,0,cs)
);
},
{
closed = 1;
nodes = (
(456,76,l),
(232,76,ls),
(187,76,o),
(178,90,o),
(178,135,cs),
(178,357,l),
(207,353,o),
(239,353,o),
(263,353,cs),
(371,353,ls),
(395,353,o),
(427,353,o),
(456,357,c)
);
}
);
width = 597;
},
{
anchors = (
{
name = bottom;
pos = (298,-98);
},
{
name = top;
pos = (302,495);
}
);
layerId = "1C3A187F-9439-4340-B0A6-CD0525AA1AFE";
shapes = (
{
closed = 1;
nodes = (
(463,0,l),
(478,20,l),
(478,383,l),
(447,380,o),
(408,377,o),
(365,377,cs),
(237,377,ls),
(193,377,o),
(144,382,o),
(116,385,c),
(116,80,ls),
(116,57,o),
(118,39,o),
(126,25,c),
(0,25,ls),
(-19,25,o),
(-40,21,o),
(-40,13,cs),
(-40,4,o),
(-19,0,o),
(0,0,cs),
(124,0,l),
(130,18,l),
(132,18,l),
(142,6,o),
(157,0,o),
(181,0,cs)
);
},
{
closed = 1;
nodes = (
(452,25,l),
(186,25,ls),
(145,25,o),
(142,45,o),
(142,98,cs),
(142,357,l),
(195,352,o),
(234,352,o),
(255,352,cs),
(337,352,ls),
(359,352,o),
(394,352,o),
(452,356,c)
);
}
);
width = 558;
},
{
anchors = (
{
name = bottom;
pos = (350,-98);
},
{
name = top;
pos = (346,600);
}
);
layerId = "DA9A8D32-36F4-433E-897C-B49E872243BC";
shapes = (
{
closed = 1;
nodes = (
(514,0,l),
(595,126,l),
(595,513,l),
(563,506,o),
(463,500,o),
(375,500,cs),
(295,500,ls),
(209,500,o),
(130,504,o),
(92,512,c),
(92,236,ls),
(92,225,o),
(93,197,o),
(95,185,c),
(0,185,ls),
(-24,185,o),
(-40,141,o),
(-40,92,cs),
(-40,42,o),
(-24,0,o),
(0,0,cs),
(80,0,l),
(118,81,l),
(122,81,l),
(145,29,o),
(187,0,o),
(267,0,cs)
);
},
{
closed = 1;
nodes = (
(439,185,l),
(278,185,ls),
(256,185,o),
(248,195,o),
(248,213,cs),
(248,339,l),
(269,336,o),
(294,335,o),
(324,335,cs),
(361,335,ls),
(391,335,o),
(418,336,o),
(439,339,c)
);
}
);
width = 651;
}
);
note = uni0729.init;
},
{
glyphname = uni072A;
lastChange = "2023-01-02 09:26:46 +0000";
layers = (
{
anchors = (
{
name = bottom;
pos = (257,-98);
},
{
name = top;
pos = (250,686);
}
);
layerId = m01;
shapes = (
{
closed = 1;
nodes = (
(209,522,l),
(291,522,l),
(291,607,l),
(209,607,l)
);
},
{
closed = 1;
nodes = (
(78,0,l),
(314,0,ls),
(429,0,o),
(444,71,o),
(444,136,cs),
(444,317,o),
(366,430,o),
(212,430,cs),
(162,430,o),
(120,418,o),
(90,399,c),
(90,331,l),
(130,350,o),
(168,356,o),
(208,356,cs),
(317,356,o),
(370,267,o),
(370,137,cs),
(370,102,o),
(361,76,o),
(313,76,cs),
(78,76,l)
);
}
);
width = 521;
},
{
anchors = (
{
name = bottom;
pos = (240,-98);
},
{
name = top;
pos = (233,636);
}
);
layerId = "1C3A187F-9439-4340-B0A6-CD0525AA1AFE";
shapes = (
{
closed = 1;
nodes = (
(209,488,l),
(257,488,l),
(257,536,l),
(209,536,l)
);
},
{
closed = 1;
nodes = (
(88,0,l),
(295,0,ls),
(388,0,o),
(400,59,o),
(400,112,cs),
(400,278,o),
(330,386,o),
(193,386,cs),
(160,386,o),
(123,377,o),
(100,364,c),
(100,340,l),
(131,354,o),
(167,361,o),
(193,361,cs),
(319,361,o),
(375,257,o),
(375,112,cs),
(375,63,o),
(364,25,o),
(294,25,cs),
(88,25,l)
);
}
);
width = 482;
},
{
anchors = (
{
name = bottom;
pos = (295,-98);
},
{
name = top;
pos = (268,788);
}
);
layerId = "DA9A8D32-36F4-433E-897C-B49E872243BC";
shapes = (
{
closed = 1;
nodes = (
(199,564,l),
(340,564,l),
(340,703,l),
(199,703,l)
);
},
{
closed = 1;
nodes = (
(72,0,l),
(337,0,ls),
(472,0,o),
(526,87,o),
(526,176,cs),
(526,388,o),
(403,493,o),
(228,493,cs),
(187,493,o),
(122,480,o),
(86,447,c),
(86,297,l),
(136,315,o),
(171,318,o),
(215,318,cs),
(288,318,o),
(364,283,o),
(364,215,cs),
(364,199,o),
(362,185,o),
(340,185,cs),
(72,185,l)
);
}
);
width = 584;
}
);
note = uni072A;
unicode = 1834;
},
{
glyphname = uni072A.fina;
lastChange = "2023-01-02 09:26:46 +0000";
layers = (
{
anchors = (
{
name = bottom;
pos = (258,-98);
},
{
name = top;
pos = (251,687);
}
);
layerId = m01;
shapes = (
{
closed = 1;
nodes = (
(209,522,l),
(291,522,l),
(291,607,l),
(209,607,l)
);
},
{
closed = 1;
nodes = (
(518,76,l),
(478,76,o),
(469,86,o),
(462,121,cs),
(441,231,ls),
(416,364,o),
(341,430,o),
(214,430,cs),
(166,430,o),
(114,417,o),
(90,398,c),
(90,331,l),
(119,346,o),
(166,356,o),
(199,356,cs),
(302,356,o),
(355,306,o),
(375,191,cs),
(387,121,l),
(383,96,o),
(352,76,o),
(291,76,cs),
(78,76,l),
(78,0,l),
(286,0,ls),
(329,0,o),
(388,10,o),
(412,48,c),
(414,48,l),
(432,14,o),
(462,0,o),
(518,0,c)
);
}
);
width = 518;
},
{
anchors = (
{
name = bottom;
pos = (240,-98);
},
{
name = top;
pos = (233,636);
}
);
layerId = "1C3A187F-9439-4340-B0A6-CD0525AA1AFE";
shapes = (
{
closed = 1;
nodes = (
(209,488,l),
(257,488,l),
(257,536,l),
(209,536,l)
);
},
{
closed = 1;
nodes = (
(472,25,l),
(434,25,o),
(417,36,o),
(408,84,cs),
(386,207,ls),
(366,318,o),
(305,386,o),
(193,386,cs),
(160,386,o),
(123,377,o),
(100,364,c),
(100,340,l),
(131,354,o),
(167,361,o),
(193,361,cs),
(307,361,o),
(347,282,o),
(364,186,cs),
(383,77,l),
(375,46,o),
(348,25,o),
(294,25,cs),
(88,25,l),
(88,0,l),
(295,0,ls),
(349,0,o),
(377,18,o),
(391,44,c),
(393,44,l),
(405,9,o),
(430,0,o),
(472,0,c)
);
}
);
width = 472;
},
{
anchors = (
{
name = bottom;
pos = (298,-98);
},
{
name = top;
pos = (289,788);
}
);
layerId = "DA9A8D32-36F4-433E-897C-B49E872243BC";
shapes = (
{
closed = 1;
nodes = (
(213,564,l),
(354,564,l),
(354,703,l),
(213,703,l)
);
},
{
closed = 1;
nodes = (
(577,185,l),
(542,185,o),
(537,194,o),
(531,223,cs),
(524,255,ls),
(487,425,o),
(375,493,o),
(228,493,cs),
(187,493,o),
(122,480,o),
(86,447,c),
(86,297,l),
(136,315,o),
(171,318,o),
(215,318,cs),
(291,318,o),
(353,290,o),
(369,221,cs),
(373,204,l),
(365,189,o),
(342,185,o),
(269,185,cs),
(72,185,l),
(72,0,l),
(241,0,ls),
(319,0,o),
(384,17,o),
(415,71,c),
(417,71,l),
(451,10,o),
(493,0,o),
(577,0,c)
);
}
);
width = 577;
}
);
note = uni072A.fina;
},
{
glyphname = uni072B;
lastChange = "2023-01-02 09:26:46 +0000";
layers = (
{
anchors = (
{
name = bottom;
pos = (470,-98);
},
{
name = top;
pos = (646,523);
}
);
layerId = m01;
shapes = (
{
closed = 1;
nodes = (
(921,0,l),
(921,76,l),
(749,76,ls),
(688,76,o),
(679,94,o),
(679,170,cs),
(679,333,l),
(742,338,o),
(810,353,o),
(859,378,c),
(827,444,l),
(788,427,o),
(725,407,o),
(646,407,cs),
(567,407,o),
(505,422,o),
(462,444,c),
(422,381,l),
(454,357,o),
(533,337,o),
(605,333,c),
(605,164,ls),
(605,128,o),
(609,99,o),
(618,76,c),
(262,76,ls),
(174,76,o),
(129,89,o),
(94,138,c),
(49,78,l),
(69,30,o),
(136,0,o),
(240,0,cs),
(615,0,l),
(633,46,l),
(635,46,l),
(658,13,o),
(695,0,o),
(743,0,cs)
);
}
);
width = 970;
},
{
anchors = (
{
name = bottom;
pos = (470,-98);
},
{
name = top;
pos = (638,498);
}
);
layerId = "1C3A187F-9439-4340-B0A6-CD0525AA1AFE";
shapes = (
{
closed = 1;
nodes = (
(881,0,l),
(881,25,l),
(691,25,ls),
(650,25,o),
(647,45,o),
(647,98,cs),
(647,336,l),
(717,338,o),
(780,354,o),
(821,373,c),
(809,396,l),
(776,382,o),
(719,361,o),
(635,361,cs),
(551,361,o),
(492,378,o),
(460,396,c),
(445,373,l),
(472,355,o),
(545,337,o),
(621,336,c),
(621,80,ls),
(621,57,o),
(623,39,o),
(631,25,c),
(228,25,ls),
(137,25,o),
(106,34,o),
(77,73,c),
(60,53,l),
(77,23,o),
(113,0,o),
(197,0,cs),
(629,0,l),
(635,18,l),
(637,18,l),
(647,6,o),
(662,0,o),
(686,0,cs)
);
}
);
width = 941;
},
{
anchors = (
{
name = bottom;
pos = (426,-98);
},
{
name = top;
pos = (633,585);
}
);
layerId = "DA9A8D32-36F4-433E-897C-B49E872243BC";
shapes = (
{
closed = 1;
nodes = (
(951,0,l),
(951,185,l),
(774,185,ls),
(715,185,o),
(702,197,o),
(702,278,cs),
(702,312,l),
(762,319,o),
(840,333,o),
(898,365,c),
(836,513,l),
(781,489,o),
(708,472,o),
(630,472,cs),
(561,472,o),
(486,485,o),
(422,515,c),
(342,377,l),
(382,344,o),
(451,321,o),
(541,310,c),
(541,261,ls),
(541,240,o),
(544,201,o),
(548,185,c),
(320,185,ls),
(245,185,o),
(177,188,o),
(132,247,c),
(37,130,l),
(61,45,o),
(163,0,o),
(307,0,cs),
(553,0,l),
(581,81,l),
(585,81,l),
(627,5,o),
(707,0,o),
(780,0,cs)
);
}
);
width = 1001;
}
);
note = uni072B;
unicode = 1835;
},
{
glyphname = uni072B.fina;
lastChange = "2023-01-02 09:26:46 +0000";
layers = (
{
anchors = (
{
name = bottom;
pos = (470,-98);
},
{
name = top;
pos = (646,523);
}
);
layerId = m01;
shapes = (
{
closed = 1;
nodes = (
(924,0,l),
(924,76,l),
(749,76,ls),
(688,76,o),
(679,94,o),
(679,170,cs),
(679,333,l),
(742,338,o),
(810,353,o),
(859,378,c),
(827,444,l),
(788,427,o),
(725,407,o),
(646,407,cs),
(567,407,o),
(505,422,o),
(462,444,c),
(422,381,l),
(454,357,o),
(533,337,o),
(605,333,c),
(605,164,ls),
(605,128,o),
(609,99,o),
(618,76,c),
(262,76,ls),
(174,76,o),
(129,89,o),
(94,138,c),
(49,78,l),
(69,30,o),
(136,0,o),
(240,0,cs),
(615,0,l),
(633,46,l),
(635,46,l),
(658,13,o),
(695,0,o),
(743,0,cs)
);
}
);
width = 924;
},
{
anchors = (
{
name = bottom;
pos = (470,-98);
},
{
name = top;
pos = (639,498);
}
);
layerId = "1C3A187F-9439-4340-B0A6-CD0525AA1AFE";
shapes = (
{
closed = 1;
nodes = (
(875,0,l),
(875,25,l),
(691,25,ls),
(650,25,o),
(647,45,o),
(647,98,cs),
(647,336,l),
(717,338,o),
(780,354,o),
(821,373,c),
(809,396,l),
(776,382,o),
(719,361,o),
(635,361,cs),
(551,361,o),
(492,378,o),
(460,396,c),
(445,373,l),
(472,355,o),
(545,337,o),
(621,336,c),
(621,80,ls),
(621,57,o),
(623,39,o),
(631,25,c),
(228,25,ls),
(137,25,o),
(106,34,o),
(77,73,c),
(60,53,l),
(77,23,o),
(113,0,o),
(197,0,cs),
(629,0,l),
(635,18,l),
(637,18,l),
(647,6,o),
(662,0,o),
(686,0,cs)
);
}
);
width = 875;
},
{
anchors = (
{
name = bottom;
pos = (426,-98);
},
{
name = top;
pos = (633,585);
}
);
layerId = "DA9A8D32-36F4-433E-897C-B49E872243BC";
shapes = (
{
closed = 1;
nodes = (
(954,0,l),
(954,185,l),
(774,185,ls),
(715,185,o),
(702,197,o),
(702,278,cs),
(702,312,l),
(762,319,o),
(840,333,o),
(898,365,c),
(836,513,l),
(781,489,o),
(708,472,o),
(630,472,cs),
(561,472,o),
(486,485,o),
(422,515,c),
(342,377,l),
(382,344,o),
(451,321,o),
(541,310,c),
(541,261,ls),
(541,240,o),
(544,201,o),
(548,185,c),
(320,185,ls),
(245,185,o),
(177,188,o),
(132,247,c),
(37,130,l),
(61,45,o),
(163,0,o),
(307,0,cs),
(553,0,l),
(581,81,l),
(585,81,l),
(627,5,o),
(707,0,o),
(780,0,cs)
);
}
);
width = 954;
}
);
note = uni072B.fina;
},
{
glyphname = uni072B.medi;
lastChange = "2023-01-02 09:26:46 +0000";
layers = (
{
anchors = (
{
name = bottom;
pos = (280,-98);
},
{
name = top;
pos = (288,525);
}
);
layerId = m01;
shapes = (
{
closed = 1;
nodes = (
(564,0,l),
(564,76,l),
(390,76,ls),
(329,76,o),
(320,94,o),
(320,170,cs),
(320,333,l),
(383,338,o),
(451,353,o),
(500,378,c),
(468,444,l),
(429,427,o),
(366,407,o),
(287,407,cs),
(208,407,o),
(146,422,o),
(103,444,c),
(63,381,l),
(95,357,o),
(174,337,o),
(246,333,c),
(246,164,ls),
(246,128,o),
(250,99,o),
(259,76,c),
(0,76,ls),
(-21,76,o),
(-39,61,o),
(-39,38,cs),
(-39,14,o),
(-21,0,o),
(0,0,cs),
(256,0,l),
(273,46,l),
(275,46,l),
(299,13,o),
(336,0,o),
(383,0,cs)
);
}
);
width = 564;
},
{
anchors = (
{
name = bottom;
pos = (266,-98);
},
{
name = top;
pos = (272,498);
}
);
layerId = "1C3A187F-9439-4340-B0A6-CD0525AA1AFE";
shapes = (
{
closed = 1;
nodes = (
(507,0,l),
(507,25,l),
(323,25,ls),
(282,25,o),
(279,45,o),
(279,98,cs),
(279,336,l),
(349,338,o),
(412,354,o),
(453,373,c),
(441,396,l),
(408,382,o),
(351,361,o),
(267,361,cs),
(183,361,o),
(124,378,o),
(92,396,c),
(77,373,l),
(104,355,o),
(177,337,o),
(253,336,c),
(253,80,ls),
(253,57,o),
(255,39,o),
(263,25,c),
(0,25,ls),
(-19,25,o),
(-40,21,o),
(-40,13,cs),
(-40,4,o),
(-19,0,o),
(0,0,cs),
(261,0,l),
(267,18,l),
(269,18,l),
(279,6,o),
(294,0,o),
(318,0,cs)
);
}
);
width = 507;
},
{
anchors = (
{
name = bottom;
pos = (306,-98);
},
{
name = top;
pos = (346,585);
}
);
layerId = "DA9A8D32-36F4-433E-897C-B49E872243BC";
shapes = (
{
closed = 1;
nodes = (
(668,0,l),
(668,185,l),
(488,185,ls),
(429,185,o),
(416,197,o),
(416,278,cs),
(416,312,l),
(476,319,o),
(554,333,o),
(612,365,c),
(550,513,l),
(495,489,o),
(422,472,o),
(344,472,cs),
(275,472,o),
(200,485,o),
(136,515,c),
(56,377,l),
(96,344,o),
(165,321,o),
(255,310,c),
(255,261,ls),
(255,240,o),
(258,201,o),
(262,185,c),
(0,185,ls),
(-24,185,o),
(-40,141,o),
(-40,92,cs),
(-40,42,o),
(-24,0,o),
(0,0,cs),
(267,0,l),
(295,81,l),
(299,81,l),
(341,5,o),
(421,0,o),
(494,0,cs)
);
}
);
width = 668;
}
);
note = uni072B.medi;
},
{
glyphname = uni072B.init;
lastChange = "2023-01-02 09:26:46 +0000";
layers = (
{
anchors = (
{
name = bottom;
pos = (280,-98);
},
{
name = top;
pos = (288,523);
}
);
layerId = m01;
shapes = (
{
closed = 1;
nodes = (
(552,0,l),
(552,76,l),
(390,76,ls),
(329,76,o),
(320,94,o),
(320,170,cs),
(320,333,l),
(383,338,o),
(451,353,o),
(500,378,c),
(468,444,l),
(429,427,o),
(366,407,o),
(287,407,cs),
(208,407,o),
(146,422,o),
(103,444,c),
(63,381,l),
(95,357,o),
(174,337,o),
(246,333,c),
(246,164,ls),
(246,128,o),
(250,99,o),
(259,76,c),
(0,76,ls),
(-21,76,o),
(-39,61,o),
(-39,38,cs),
(-39,14,o),
(-21,0,o),
(0,0,cs),
(256,0,l),
(273,46,l),
(275,46,l),
(299,13,o),
(336,0,o),
(383,0,cs)
);
}
);
width = 601;
},
{
anchors = (
{
name = bottom;
pos = (266,-98);
},
{
name = top;
pos = (272,498);
}
);
layerId = "1C3A187F-9439-4340-B0A6-CD0525AA1AFE";
shapes = (
{
closed = 1;
nodes = (
(513,0,l),
(513,25,l),
(323,25,ls),
(282,25,o),
(279,45,o),
(279,98,cs),
(279,336,l),
(349,338,o),
(412,354,o),
(453,373,c),
(441,396,l),
(408,382,o),
(351,361,o),
(267,361,cs),
(183,361,o),
(124,378,o),
(92,396,c),
(77,373,l),
(104,355,o),
(177,337,o),
(253,336,c),
(253,80,ls),
(253,57,o),
(255,39,o),
(263,25,c),
(0,25,ls),
(-19,25,o),
(-40,21,o),
(-40,13,cs),
(-40,4,o),
(-19,0,o),
(0,0,cs),
(261,0,l),
(267,18,l),
(269,18,l),
(279,6,o),
(294,0,o),
(318,0,cs)
);
}
);
width = 573;
},
{
anchors = (
{
name = bottom;
pos = (306,-98);
},
{
name = top;
pos = (347,588);
}
);
layerId = "DA9A8D32-36F4-433E-897C-B49E872243BC";
shapes = (
{
closed = 1;
nodes = (
(665,0,l),
(665,185,l),
(488,185,ls),
(429,185,o),
(416,197,o),
(416,278,cs),
(416,312,l),
(476,319,o),
(554,333,o),
(612,365,c),
(550,513,l),
(495,489,o),
(422,472,o),
(344,472,cs),
(275,472,o),
(200,485,o),
(136,515,c),
(56,377,l),
(96,344,o),
(165,321,o),
(255,310,c),
(255,261,ls),
(255,240,o),
(258,201,o),
(262,185,c),
(0,185,ls),
(-24,185,o),
(-40,141,o),
(-40,92,cs),
(-40,42,o),
(-24,0,o),
(0,0,cs),
(267,0,l),
(295,81,l),
(299,81,l),
(341,5,o),
(421,0,o),
(494,0,cs)
);
}
);
width = 715;
}
);
note = uni072B.init;
},
